<?xml version="1.0" encoding="UTF-8"?>
<svg width="171.4mm" height="83.69mm" version="1.1" viewBox="0 0 85.72 41.84" xmlns="http://www.w3.org/2000/svg"><defs><clipPath id="aj"><path d="m0 0h715v349h-715z"/></clipPath><clipPath id="ah"><path transform="matrix(.4531 0 0 -.4531 420 521.9)" d="m0 0h715v349h-715z"/></clipPath><clipPath id="ai"><path transform="matrix(12700 0 0 -12700 -1136650 4235450)" d="m0 0h715v349h-715z"/></clipPath><clipPath id="ae"><path transform="matrix(.4531 0 0 -.4531 420 521.9)" d="m0 0h715v349h-715z"/></clipPath><clipPath id="ag"><path d="m89 134h618v200h-618z"/></clipPath><clipPath id="af"><path transform="matrix(12700 0 0 -12700 -1517650 3.08e6)" d="m89 134h618v200h-618z"/></clipPath><clipPath id="ab"><path transform="matrix(.4531 0 0 -.4531 420 521.9)" d="m0 0h715v349h-715z"/></clipPath><clipPath id="ad"><path d="m89 134h618v200h-618z"/></clipPath><clipPath id="ac"><path transform="matrix(12700 0 0 -12700 -2647950 2990850)" d="m89 134h618v200h-618z"/></clipPath><clipPath id="y"><path transform="matrix(.4531 0 0 -.4531 420 521.9)" d="m0 0h715v349h-715z"/></clipPath><clipPath id="aa"><path d="m89 134h618v200h-618z"/></clipPath><clipPath id="z"><path transform="matrix(12700 0 0 -12700 -3765550 3511550)" d="m89 134h618v200h-618z"/></clipPath><clipPath id="v"><path transform="matrix(.4531 0 0 -.4531 420 521.9)" d="m0 0h715v349h-715z"/></clipPath><clipPath id="x"><path d="m89 134h618v200h-618z"/></clipPath><clipPath id="w"><path transform="matrix(12700 0 0 -12700 -7118350 4044950)" d="m89 134h618v200h-618z"/></clipPath><clipPath id="s"><path transform="matrix(.4531 0 0 -.4531 420 521.9)" d="m0 0h715v349h-715z"/></clipPath><clipPath id="u"><path d="m89 134h618v200h-618z"/></clipPath><clipPath id="t"><path transform="matrix(12700 0 0 -12700 -8235950 4032250)" d="m89 134h618v200h-618z"/></clipPath><clipPath id="p"><path transform="matrix(.4531 0 0 -.4531 420 521.9)" d="m0 0h715v349h-715z"/></clipPath><clipPath id="r"><path d="m89 134h618v200h-618z"/></clipPath><clipPath id="q"><path transform="matrix(12700 0 0 -12700 -1136650 4235450)" d="m89 134h618v200h-618z"/></clipPath><clipPath id="n"><path transform="matrix(.4531 0 0 -.4531 420 521.9)" d="m0 0h715v349h-715z"/></clipPath><clipPath id="o"><path transform="matrix(12700 0 0 -12700 -1136650 1708150)" d="m0 0h715v349h-715z"/></clipPath><clipPath id="l"><path transform="matrix(.4531 0 0 -.4531 420 521.9)" d="m0 0h715v349h-715z"/></clipPath><clipPath id="m"><path transform="matrix(1 0 0 -1 -48.02 129)" d="m0 0h715v349h-715z"/></clipPath><clipPath id="j"><path transform="matrix(.4531 0 0 -.4531 420 521.9)" d="m0 0h715v349h-715z"/></clipPath><clipPath id="k"><path transform="matrix(1 0 0 -1 -48.02 179)" d="m0 0h715v349h-715z"/></clipPath><clipPath id="h"><path transform="matrix(.4531 0 0 -.4531 420 521.9)" d="m0 0h715v349h-715z"/></clipPath><clipPath id="i"><path transform="matrix(1 0 0 -1 -48.02 228)" d="m0 0h715v349h-715z"/></clipPath><clipPath id="f"><path transform="matrix(.4531 0 0 -.4531 420 521.9)" d="m0 0h715v349h-715z"/></clipPath><clipPath id="g"><path transform="matrix(1 0 0 -1 -48.02 278)" d="m0 0h715v349h-715z"/></clipPath><clipPath id="d"><path transform="matrix(.4531 0 0 -.4531 420 521.9)" d="m0 0h715v349h-715z"/></clipPath><clipPath id="e"><path transform="matrix(1 0 0 -1 -48.02 328)" d="m0 0h715v349h-715z"/></clipPath><clipPath id="b"><path transform="matrix(.4531 0 0 -.4531 420 521.9)" d="m0 0h715v349h-715z"/></clipPath><clipPath id="c"><path transform="matrix(.7071 .7071 .7071 -.7071 -54.58 -23.47)" d="m0 0h715v349h-715z"/></clipPath><clipPath id="bm"><path transform="matrix(.4531 0 0 -.4531 420 521.9)" d="m0 0h715v349h-715z"/></clipPath><clipPath id="a"><path transform="matrix(.7071 .7071 .7071 -.7071 -108.9 -86.28)" d="m0 0h715v349h-715z"/></clipPath><clipPath id="bk"><path transform="matrix(.4531 0 0 -.4531 420 521.9)" d="m0 0h715v349h-715z"/></clipPath><clipPath id="bl"><path transform="matrix(.7071 .7071 .7071 -.7071 -216 -148.1)" d="m0 0h715v349h-715z"/></clipPath><clipPath id="bi"><path transform="matrix(.4531 0 0 -.4531 420 521.9)" d="m0 0h715v349h-715z"/></clipPath><clipPath id="bj"><path transform="matrix(.7071 .7071 .7071 -.7071 -292.7 -210.7)" d="m0 0h715v349h-715z"/></clipPath><clipPath id="bg"><path transform="matrix(.4531 0 0 -.4531 420 521.9)" d="m0 0h715v349h-715z"/></clipPath><clipPath id="bh"><path transform="matrix(.7071 .7071 .7071 -.7071 -332.6 -273.2)" d="m0 0h715v349h-715z"/></clipPath><clipPath id="be"><path transform="matrix(.4531 0 0 -.4531 420 521.9)" d="m0 0h715v349h-715z"/></clipPath><clipPath id="bf"><path transform="matrix(.7071 .7071 .7071 -.7071 -345.3 -335.4)" d="m0 0h715v349h-715z"/></clipPath><clipPath id="bc"><path transform="matrix(.4531 0 0 -.4531 420 521.9)" d="m0 0h715v349h-715z"/></clipPath><clipPath id="bd"><path transform="matrix(.7071 .7071 .7071 -.7071 -440 -397.6)" d="m0 0h715v349h-715z"/></clipPath><clipPath id="ba"><path transform="matrix(.4531 0 0 -.4531 420 521.9)" d="m0 0h715v349h-715z"/></clipPath><clipPath id="bb"><path transform="matrix(0 1 1 0 -132 -27.58)" d="m0 0h715v349h-715z"/></clipPath><clipPath id="ay"><path transform="matrix(.4531 0 0 -.4531 420 521.9)" d="m0 0h715v349h-715z"/></clipPath><clipPath id="az"><path d="m0 0h715v349h-715z"/></clipPath><clipPath id="aw"><path transform="matrix(.4531 0 0 -.4531 420 521.9)" d="m0 0h715v349h-715z"/></clipPath><clipPath id="ax"><path d="m0 0h715v349h-715z"/></clipPath><clipPath id="au"><path transform="matrix(.4531 0 0 -.4531 420 521.9)" d="m0 0h715v349h-715z"/></clipPath><clipPath id="av"><path d="m0 0h715v349h-715z"/></clipPath><clipPath id="as"><path transform="matrix(.4531 0 0 -.4531 420 521.9)" d="m0 0h715v349h-715z"/></clipPath><clipPath id="at"><path d="m0 0h715v349h-715z"/></clipPath><clipPath id="aq"><path transform="matrix(.4531 0 0 -.4531 420 521.9)" d="m0 0h715v349h-715z"/></clipPath><clipPath id="ar"><path transform="matrix(1 0 0 -1 -164.2 179)" d="m72 174h215v20h-215z"/></clipPath><clipPath id="ao"><path transform="matrix(.4531 0 0 -.4531 420 521.9)" d="m0 0h715v349h-715z"/></clipPath><clipPath id="ap"><path transform="matrix(1 0 0 -1 -295.2 177)" d="m0 0h715v349h-715z"/></clipPath><clipPath id="am"><path transform="matrix(.4531 0 0 -.4531 420 521.9)" d="m0 0h715v349h-715z"/></clipPath><clipPath id="an"><path transform="matrix(1 0 0 -1 -424.1 177)" d="m0 0h715v349h-715z"/></clipPath><clipPath id="ak"><path transform="matrix(.4531 0 0 -.4531 420 521.9)" d="m0 0h715v349h-715z"/></clipPath><clipPath id="al"><path transform="matrix(1 0 0 -1 -591 179)" d="m0 0h715v349h-715z"/></clipPath></defs><g transform="translate(-80.17 -78.58)"><g transform="matrix(.2646 0 0 .2646 -30.96 -17.66)"><path transform="matrix(.4531 0 0 -.4531 420 521.9)" d="m0 349h715v-349h-715z" clip-path="url(#aj)" fill="#fff"/><g clip-path="url(#ah)"><path transform="matrix(3.568e-5 0 0 3.568e-5 460.6 370.8)" d="M 0,1892300 H 7835900 M 0,1270000 H 7835900 M 0,635000 H 7835900 M 0,0 h 7835900" clip-path="url(#ai)" fill="none" stroke="#d9d9d9" stroke-linejoin="round" stroke-miterlimit="10" stroke-width="9525"/></g><g clip-path="url(#ae)"><path transform="matrix(.4531 0 0 -.4531 420 521.9)" d="m119.5 242.5h28v-108h-28z" clip-path="url(#ag)" fill="#7f7f7f"/><path transform="matrix(3.568e-5 0 0 3.568e-5 474.2 412)" d="m0 0h355600v1371600h-355600z" clip-path="url(#af)" fill="none" stroke="#000" stroke-linejoin="round" stroke-miterlimit="10" stroke-width="9525"/></g><g clip-path="url(#ab)"><path transform="matrix(.4531 0 0 -.4531 420 521.9)" d="m208.5 235.5h27v-101h-27z" clip-path="url(#ad)" fill="#f00"/><path transform="matrix(3.568e-5 0 0 3.568e-5 514.5 415.2)" d="m0 0h342900v1282700h-342900z" clip-path="url(#ac)" fill="none" stroke="#000" stroke-linejoin="round" stroke-miterlimit="10" stroke-width="9525"/></g><g clip-path="url(#y)"><path transform="matrix(.4531 0 0 -.4531 420 521.9)" d="m296.5 276.5h27v-142h-27z" clip-path="url(#aa)" fill="#ffc000"/><path transform="matrix(3.568e-5 0 0 3.568e-5 554.4 396.6)" d="m0 0h342900v1803400h-342900z" clip-path="url(#z)" fill="none" stroke="#000" stroke-linejoin="round" stroke-miterlimit="10" stroke-width="9525"/></g><g clip-path="url(#v)"><path transform="matrix(.4531 0 0 -.4531 420 521.9)" d="m560.5 318.5h28v-184h-28z" clip-path="url(#x)" fill="#70ad47"/><path transform="matrix(3.568e-5 0 0 3.568e-5 674 377.6)" d="m0 0h355600v2336800h-355600z" clip-path="url(#w)" fill="none" stroke="#000" stroke-linejoin="round" stroke-miterlimit="10" stroke-width="9525"/></g><g clip-path="url(#s)"><path transform="matrix(.4531 0 0 -.4531 420 521.9)" d="m648.5 317.5h28v-183h-28z" clip-path="url(#u)" fill="#70ad47"/><path transform="matrix(3.568e-5 0 0 3.568e-5 713.9 378)" d="m0 0h355600v2324100h-355600z" clip-path="url(#t)" fill="none" stroke="#000" stroke-linejoin="round" stroke-miterlimit="10" stroke-width="9525"/></g><g clip-path="url(#p)"><path transform="matrix(.4531 0 0 -.4531 420 521.9)" d="m384.5 290.5h28v-156h-28zm88 0h28v-156h-28z" clip-path="url(#r)" fill="#4472c4"/><path transform="matrix(3.568e-5 0 0 3.568e-5 460.6 370.8)" d="m3746500 546100h355600v1981200h-355600zm1117600 0h355600v1981200h-355600z" clip-path="url(#q)" fill="none" stroke="#000" stroke-linejoin="round" stroke-miterlimit="10" stroke-width="9525"/></g><g clip-path="url(#n)"><path transform="matrix(3.568e-5 0 0 3.568e-5 460.6 461)" d="m0 0 7835900 1" clip-path="url(#o)" fill="none" stroke="#d9d9d9" stroke-linejoin="round" stroke-miterlimit="10" stroke-width="9525"/></g><g clip-path="url(#l)"><text transform="matrix(.4531 0 0 .4531 441.8 463.4)" clip-path="url(#m)" xml:space="preserve"><tspan x="0" y="0" dx="0 0.36669999 -0.79229999" fill="#595959" font-family="Carlito" font-size="19px">0.0</tspan></text></g><g clip-path="url(#j)"><text transform="matrix(.4531 0 0 .4531 441.8 440.8)" clip-path="url(#k)" xml:space="preserve"><tspan x="0" y="0" dx="0 0.36669999 -0.79229999" fill="#595959" font-family="Carlito" font-size="19px">0.5</tspan></text></g><g clip-path="url(#h)"><text transform="matrix(.4531 0 0 .4531 441.8 418.6)" clip-path="url(#i)" xml:space="preserve"><tspan x="0" y="0" dx="0 0.36669999 -0.79229999" fill="#595959" font-family="Carlito" font-size="19px">1.0</tspan></text></g><g clip-path="url(#f)"><text transform="matrix(.4531 0 0 .4531 441.8 395.9)" clip-path="url(#g)" xml:space="preserve"><tspan x="0" y="0" dx="0 0.36669999 -0.79229999" fill="#595959" font-family="Carlito" font-size="19px">1.5</tspan></text></g><g clip-path="url(#d)"><text transform="matrix(.4531 0 0 .4531 441.8 373.3)" clip-path="url(#e)" xml:space="preserve"><tspan x="0" y="0" dx="0 0.36669999 -0.79229999" fill="#595959" font-family="Carlito" font-size="19px">2.0</tspan></text></g><g clip-path="url(#b)"><text transform="matrix(.3204 -.3204 .3204 .3204 445 511.9)" clip-path="url(#c)" xml:space="preserve"><tspan x="0" y="0" dx="0 0 0.45100001 -0.583 0 0.34099999 -0.16500001 -0.16500001 -0.16500001 -0.16500001 0.45100001 -0.16500001" fill="#595959" font-family="Carlito" font-size="22px">yum (2018.8)</tspan></text></g><g clip-path="url(#bm)"><text transform="matrix(.3204 -.3204 .3204 .3204 482.5 514.7)" clip-path="url(#a)" xml:space="preserve"><tspan x="0" y="0" dx="0 -0.36300001 0 0.45100001 0 -0.671 0.95700002 -0.29699999 0 -0.671 0.91299999 0 -0.73699999 0.847" fill="#595959" font-family="Carlito" font-size="22px">generic (SSE2)</tspan></text></g><g clip-path="url(#bk)"><text transform="matrix(.3204 -.3204 .3204 .3204 536.6 500.2)" clip-path="url(#bl)" xml:space="preserve"><tspan x="0" y="0" dx="0 0 0 0 0.44659999 -0.67540002 0 0.44659999 -0.36739999" fill="#595959" font-family="Carlito" font-size="22px">ivybridge</tspan></text></g><g clip-path="url(#bi)"><text transform="matrix(.3204 -.3204 .3204 .3204 581.3 495.6)" clip-path="url(#bj)" xml:space="preserve"><tspan x="0" y="0" dx="0 0.45100001 -0.53899997 0.40700001 -0.73699999" fill="#595959" font-family="Carlito" font-size="22px">haswell</tspan></text></g><g clip-path="url(#bg)"><text transform="matrix(.3204 -.3204 .3204 .3204 614.1 502.9)" clip-path="url(#bh)" xml:space="preserve"><tspan x="0" y="0" dx="0 0.45100001 -0.671 0.40700001 -0.53899997 0.45100001 0.27500001" fill="#595959" font-family="Carlito" font-size="22px">broadwell</tspan></text></g><g clip-path="url(#be)"><text transform="matrix(.3204 -.3204 .3204 .3204 638.1 518.7)" clip-path="url(#bf)" xml:space="preserve"><tspan x="0" y="0" dx="0 0.39820001 0 0 0 -0.5478 0 0 0 0.46419999 0 -0.52579999 -0.15180001 -0.15180001" fill="#595959" font-family="Carlito" font-size="22px">skylake_avx512</tspan></text></g><g clip-path="url(#bc)"><text transform="matrix(.3204 -.3204 .3204 .3204 688.4 508.3)" clip-path="url(#bd)" xml:space="preserve"><tspan x="0" y="0" dx="0 -0.30579999 0.46419999 -0.59179997 0.68419999 -0.5478 0.44220001 0 0 -0.5478" fill="#595959" font-family="Carlito" font-size="22px">cascadelake</tspan></text></g><g clip-path="url(#ba)"><text transform="matrix(0 -.4531 .4531 0 432.5 462.1)" clip-path="url(#bb)" xml:space="preserve"><tspan x="0" y="0" dx="0 0 0 0 -0.45539999 0 0 0 0 0 0 0 0 0 0 0 0 0 -0.40700001" fill="#595959" font-family="Carlito" font-size="22px">performance (ns/day)</tspan></text></g><g clip-path="url(#ay)"><path transform="matrix(.4531 0 0 -.4531 420 521.9)" d="m262 192.2c0 2.669 2.164 4.833 4.833 4.833h83.33c2.669 0 4.833-2.164 4.833-4.833v-19.33c0-2.669-2.164-4.833-4.833-4.833h-83.33c-2.669 0-4.833 2.164-4.833 4.833z" clip-path="url(#az)" fill="#d9d9d9"/></g><g clip-path="url(#aw)"><path transform="matrix(.4531 0 0 -.4531 420 521.9)" d="m132 193.2c0 2.669 2.164 4.833 4.833 4.833h83.33c2.669 0 4.833-2.164 4.833-4.833v-19.33c0-2.669-2.164-4.833-4.833-4.833h-83.33c-2.669 0-4.833 2.164-4.833 4.833z" clip-path="url(#ax)" fill="#d9d9d9"/></g><g clip-path="url(#au)"><path transform="matrix(.4531 0 0 -.4531 420 521.9)" d="m396 192.2c0 2.669 2.164 4.833 4.833 4.833h83.33c2.669 0 4.833-2.164 4.833-4.833v-19.33c0-2.669-2.164-4.833-4.833-4.833h-83.33c-2.669 0-4.833 2.164-4.833 4.833z" clip-path="url(#av)" fill="#d9d9d9"/></g><g clip-path="url(#as)"><path transform="matrix(.4531 0 0 -.4531 420 521.9)" d="m569 194.2c0 2.669 2.164 4.833 4.833 4.833h83.33c2.669 0 4.833-2.164 4.833-4.833v-19.33c0-2.669-2.164-4.833-4.833-4.833h-83.33c-2.669 0-4.833 2.164-4.833 4.833z" clip-path="url(#at)" fill="#d9d9d9"/></g><g clip-path="url(#aq)"><text transform="matrix(.4531 0 0 .4531 494.4 440.8)" clip-path="url(#ar)" xml:space="preserve"><tspan x="0" y="0" fill="#000000" font-family="Carlito" font-size="16px">SSE2</tspan></text></g><g clip-path="url(#ao)"><text transform="matrix(.4531 0 0 .4531 553.8 441.7)" clip-path="url(#ap)" xml:space="preserve"><tspan x="0" y="0" fill="#000000" font-family="Carlito" font-size="16px">AVX</tspan></text></g><g clip-path="url(#am)"><text transform="matrix(.4531 0 0 .4531 612.2 441.7)" clip-path="url(#an)" xml:space="preserve"><tspan x="0" y="0" fill="#000000" font-family="Carlito" font-size="16px">AVX2</tspan></text></g><g clip-path="url(#ak)"><text transform="matrix(.4531 0 0 .4531 687.8 440.8)" clip-path="url(#al)" xml:space="preserve"><tspan x="0" y="0" fill="#000000" font-family="Carlito" font-size="16px">AVX512</tspan></text></g></g></g></svg>
