<?xml version="1.0" encoding="UTF-8" standalone="no"?>
<!-- Created with Inkscape (http://www.inkscape.org/) -->

<svg
   width="171.44992mm"
   height="83.686745mm"
   viewBox="0 0 85.72496 41.843372"
   version="1.1"
   id="svg1"
   inkscape:version="1.4.2 (ebf0e940d0, 2025-05-08)"
   sodipodi:docname="avx512_gromacs_benchmark.svg"
   xmlns:inkscape="http://www.inkscape.org/namespaces/inkscape"
   xmlns:sodipodi="http://sodipodi.sourceforge.net/DTD/sodipodi-0.dtd"
   xmlns="http://www.w3.org/2000/svg"
   xmlns:svg="http://www.w3.org/2000/svg">
  <sodipodi:namedview
     id="namedview1"
     pagecolor="#ffffff"
     bordercolor="#111111"
     borderopacity="1"
     inkscape:showpageshadow="0"
     inkscape:pageopacity="0"
     inkscape:pagecheckerboard="1"
     inkscape:deskcolor="#d1d1d1"
     inkscape:document-units="mm"
     inkscape:zoom="1.1659971"
     inkscape:cx="-23.156148"
     inkscape:cy="214.83759"
     inkscape:window-width="3840"
     inkscape:window-height="2116"
     inkscape:window-x="0"
     inkscape:window-y="0"
     inkscape:window-maximized="1"
     inkscape:current-layer="g156" />
  <defs
     id="defs1">
    <clipPath
       clipPathUnits="userSpaceOnUse"
       id="clipPath64">
      <path
         d="M 0,0 H 715 V 349 H 0 Z"
         id="path64" />
    </clipPath>
    <clipPath
       clipPathUnits="userSpaceOnUse"
       id="clipPath66">
      <path
         d="M 0,0 H 715 V 349 H 0 Z"
         transform="matrix(0.45314667,0,0,-0.45314667,420,521.904)"
         id="path66" />
    </clipPath>
    <clipPath
       clipPathUnits="userSpaceOnUse"
       id="clipPath65">
      <path
         d="M 0,0 H 715 V 349 H 0 Z"
         transform="matrix(12700,0,0,-12700,-1136650.1,4235449.8)"
         id="path65" />
    </clipPath>
    <clipPath
       clipPathUnits="userSpaceOnUse"
       id="clipPath69">
      <path
         d="M 0,0 H 715 V 349 H 0 Z"
         transform="matrix(0.45314667,0,0,-0.45314667,420,521.904)"
         id="path69" />
    </clipPath>
    <clipPath
       clipPathUnits="userSpaceOnUse"
       id="clipPath67">
      <path
         d="M 89,134 H 707 V 334 H 89 Z"
         id="path67" />
    </clipPath>
    <clipPath
       clipPathUnits="userSpaceOnUse"
       id="clipPath68">
      <path
         d="M 89,134 H 707 V 334 H 89 Z"
         transform="matrix(12700,0,0,-12700,-1517650,3079750)"
         id="path68" />
    </clipPath>
    <clipPath
       clipPathUnits="userSpaceOnUse"
       id="clipPath72">
      <path
         d="M 0,0 H 715 V 349 H 0 Z"
         transform="matrix(0.45314667,0,0,-0.45314667,420,521.904)"
         id="path72" />
    </clipPath>
    <clipPath
       clipPathUnits="userSpaceOnUse"
       id="clipPath70">
      <path
         d="M 89,134 H 707 V 334 H 89 Z"
         id="path70" />
    </clipPath>
    <clipPath
       clipPathUnits="userSpaceOnUse"
       id="clipPath71">
      <path
         d="M 89,134 H 707 V 334 H 89 Z"
         transform="matrix(12700,0,0,-12700,-2647949.9,2990849.9)"
         id="path71" />
    </clipPath>
    <clipPath
       clipPathUnits="userSpaceOnUse"
       id="clipPath75">
      <path
         d="M 0,0 H 715 V 349 H 0 Z"
         transform="matrix(0.45314667,0,0,-0.45314667,420,521.904)"
         id="path75" />
    </clipPath>
    <clipPath
       clipPathUnits="userSpaceOnUse"
       id="clipPath73">
      <path
         d="M 89,134 H 707 V 334 H 89 Z"
         id="path73" />
    </clipPath>
    <clipPath
       clipPathUnits="userSpaceOnUse"
       id="clipPath74">
      <path
         d="M 89,134 H 707 V 334 H 89 Z"
         transform="matrix(12700,0,0,-12700,-3765550,3511549.8)"
         id="path74" />
    </clipPath>
    <clipPath
       clipPathUnits="userSpaceOnUse"
       id="clipPath78">
      <path
         d="M 0,0 H 715 V 349 H 0 Z"
         transform="matrix(0.45314667,0,0,-0.45314667,420,521.904)"
         id="path78" />
    </clipPath>
    <clipPath
       clipPathUnits="userSpaceOnUse"
       id="clipPath76">
      <path
         d="M 89,134 H 707 V 334 H 89 Z"
         id="path76" />
    </clipPath>
    <clipPath
       clipPathUnits="userSpaceOnUse"
       id="clipPath77">
      <path
         d="M 89,134 H 707 V 334 H 89 Z"
         transform="matrix(12700,0,0,-12700,-7118349.9,4044949.8)"
         id="path77" />
    </clipPath>
    <clipPath
       clipPathUnits="userSpaceOnUse"
       id="clipPath81">
      <path
         d="M 0,0 H 715 V 349 H 0 Z"
         transform="matrix(0.45314667,0,0,-0.45314667,420,521.904)"
         id="path81" />
    </clipPath>
    <clipPath
       clipPathUnits="userSpaceOnUse"
       id="clipPath79">
      <path
         d="M 89,134 H 707 V 334 H 89 Z"
         id="path79" />
    </clipPath>
    <clipPath
       clipPathUnits="userSpaceOnUse"
       id="clipPath80">
      <path
         d="M 89,134 H 707 V 334 H 89 Z"
         transform="matrix(12700,0,0,-12700,-8235949.7,4032250)"
         id="path80" />
    </clipPath>
    <clipPath
       clipPathUnits="userSpaceOnUse"
       id="clipPath84">
      <path
         d="M 0,0 H 715 V 349 H 0 Z"
         transform="matrix(0.45314667,0,0,-0.45314667,420,521.904)"
         id="path84" />
    </clipPath>
    <clipPath
       clipPathUnits="userSpaceOnUse"
       id="clipPath82">
      <path
         d="M 89,134 H 707 V 334 H 89 Z"
         id="path82" />
    </clipPath>
    <clipPath
       clipPathUnits="userSpaceOnUse"
       id="clipPath83">
      <path
         d="M 89,134 H 707 V 334 H 89 Z"
         transform="matrix(12700,0,0,-12700,-1136650.1,4235449.8)"
         id="path83" />
    </clipPath>
    <clipPath
       clipPathUnits="userSpaceOnUse"
       id="clipPath86">
      <path
         d="M 0,0 H 715 V 349 H 0 Z"
         transform="matrix(0.45314667,0,0,-0.45314667,420,521.904)"
         id="path86" />
    </clipPath>
    <clipPath
       clipPathUnits="userSpaceOnUse"
       id="clipPath85">
      <path
         d="M 0,0 H 715 V 349 H 0 Z"
         transform="matrix(12700,0,0,-12700,-1136650.1,1708150)"
         id="path85" />
    </clipPath>
    <clipPath
       clipPathUnits="userSpaceOnUse"
       id="clipPath88">
      <path
         d="M 0,0 H 715 V 349 H 0 Z"
         transform="matrix(0.45314667,0,0,-0.45314667,420,521.904)"
         id="path88" />
    </clipPath>
    <clipPath
       clipPathUnits="userSpaceOnUse"
       id="clipPath87">
      <path
         d="M 0,0 H 715 V 349 H 0 Z"
         transform="matrix(0.99999999,0,0,-0.99999999,-48.016683,129)"
         id="path87" />
    </clipPath>
    <clipPath
       clipPathUnits="userSpaceOnUse"
       id="clipPath90">
      <path
         d="M 0,0 H 715 V 349 H 0 Z"
         transform="matrix(0.45314667,0,0,-0.45314667,420,521.904)"
         id="path90" />
    </clipPath>
    <clipPath
       clipPathUnits="userSpaceOnUse"
       id="clipPath89">
      <path
         d="M 0,0 H 715 V 349 H 0 Z"
         transform="matrix(0.99999999,0,0,-0.99999999,-48.016683,178.99999)"
         id="path89" />
    </clipPath>
    <clipPath
       clipPathUnits="userSpaceOnUse"
       id="clipPath92">
      <path
         d="M 0,0 H 715 V 349 H 0 Z"
         transform="matrix(0.45314667,0,0,-0.45314667,420,521.904)"
         id="path92" />
    </clipPath>
    <clipPath
       clipPathUnits="userSpaceOnUse"
       id="clipPath91">
      <path
         d="M 0,0 H 715 V 349 H 0 Z"
         transform="matrix(0.99999999,0,0,-0.99999999,-48.016683,228)"
         id="path91" />
    </clipPath>
    <clipPath
       clipPathUnits="userSpaceOnUse"
       id="clipPath94">
      <path
         d="M 0,0 H 715 V 349 H 0 Z"
         transform="matrix(0.45314667,0,0,-0.45314667,420,521.904)"
         id="path94" />
    </clipPath>
    <clipPath
       clipPathUnits="userSpaceOnUse"
       id="clipPath93">
      <path
         d="M 0,0 H 715 V 349 H 0 Z"
         transform="matrix(0.99999999,0,0,-0.99999999,-48.016683,277.99999)"
         id="path93" />
    </clipPath>
    <clipPath
       clipPathUnits="userSpaceOnUse"
       id="clipPath96">
      <path
         d="M 0,0 H 715 V 349 H 0 Z"
         transform="matrix(0.45314667,0,0,-0.45314667,420,521.904)"
         id="path96" />
    </clipPath>
    <clipPath
       clipPathUnits="userSpaceOnUse"
       id="clipPath95">
      <path
         d="M 0,0 H 715 V 349 H 0 Z"
         transform="matrix(0.99999999,0,0,-0.99999999,-48.016683,328)"
         id="path95" />
    </clipPath>
    <clipPath
       clipPathUnits="userSpaceOnUse"
       id="clipPath98">
      <path
         d="M 0,0 H 715 V 349 H 0 Z"
         transform="matrix(0.45314667,0,0,-0.45314667,420,521.904)"
         id="path98" />
    </clipPath>
    <clipPath
       clipPathUnits="userSpaceOnUse"
       id="clipPath97">
      <path
         d="M 0,0 H 715 V 349 H 0 Z"
         transform="matrix(0.70710676,0.70710676,0.70710676,-0.70710676,-54.58263,-23.469985)"
         id="path97" />
    </clipPath>
    <clipPath
       clipPathUnits="userSpaceOnUse"
       id="clipPath100">
      <path
         d="M 0,0 H 715 V 349 H 0 Z"
         transform="matrix(0.45314667,0,0,-0.45314667,420,521.904)"
         id="path100" />
    </clipPath>
    <clipPath
       clipPathUnits="userSpaceOnUse"
       id="clipPath99">
      <path
         d="M 0,0 H 715 V 349 H 0 Z"
         transform="matrix(0.70710676,0.70710676,0.70710676,-0.70710676,-108.91133,-86.283966)"
         id="path99" />
    </clipPath>
    <clipPath
       clipPathUnits="userSpaceOnUse"
       id="clipPath102">
      <path
         d="M 0,0 H 715 V 349 H 0 Z"
         transform="matrix(0.45314667,0,0,-0.45314667,420,521.904)"
         id="path102" />
    </clipPath>
    <clipPath
       clipPathUnits="userSpaceOnUse"
       id="clipPath101">
      <path
         d="M 0,0 H 715 V 349 H 0 Z"
         transform="matrix(0.70710676,0.70710676,0.70710676,-0.70710676,-215.96504,-148.08282)"
         id="path101" />
    </clipPath>
    <clipPath
       clipPathUnits="userSpaceOnUse"
       id="clipPath104">
      <path
         d="M 0,0 H 715 V 349 H 0 Z"
         transform="matrix(0.45314667,0,0,-0.45314667,420,521.904)"
         id="path104" />
    </clipPath>
    <clipPath
       clipPathUnits="userSpaceOnUse"
       id="clipPath103">
      <path
         d="M 0,0 H 715 V 349 H 0 Z"
         transform="matrix(0.70710676,0.70710676,0.70710676,-0.70710676,-292.68251,-210.65818)"
         id="path103" />
    </clipPath>
    <clipPath
       clipPathUnits="userSpaceOnUse"
       id="clipPath106">
      <path
         d="M 0,0 H 715 V 349 H 0 Z"
         transform="matrix(0.45314667,0,0,-0.45314667,420,521.904)"
         id="path106" />
    </clipPath>
    <clipPath
       clipPathUnits="userSpaceOnUse"
       id="clipPath105">
      <path
         d="M 0,0 H 715 V 349 H 0 Z"
         transform="matrix(0.70710676,0.70710676,0.70710676,-0.70710676,-332.59764,-273.20071)"
         id="path105" />
    </clipPath>
    <clipPath
       clipPathUnits="userSpaceOnUse"
       id="clipPath108">
      <path
         d="M 0,0 H 715 V 349 H 0 Z"
         transform="matrix(0.45314667,0,0,-0.45314667,420,521.904)"
         id="path108" />
    </clipPath>
    <clipPath
       clipPathUnits="userSpaceOnUse"
       id="clipPath107">
      <path
         d="M 0,0 H 715 V 349 H 0 Z"
         transform="matrix(0.70710676,0.70710676,0.70710676,-0.70710676,-345.28517,-335.38572)"
         id="path107" />
    </clipPath>
    <clipPath
       clipPathUnits="userSpaceOnUse"
       id="clipPath110">
      <path
         d="M 0,0 H 715 V 349 H 0 Z"
         transform="matrix(0.45314667,0,0,-0.45314667,420,521.904)"
         id="path110" />
    </clipPath>
    <clipPath
       clipPathUnits="userSpaceOnUse"
       id="clipPath109">
      <path
         d="M 0,0 H 715 V 349 H 0 Z"
         transform="matrix(0.70710676,0.70710676,0.70710676,-0.70710676,-439.97753,-397.55116)"
         id="path109" />
    </clipPath>
    <clipPath
       clipPathUnits="userSpaceOnUse"
       id="clipPath112">
      <path
         d="M 0,0 H 715 V 349 H 0 Z"
         transform="matrix(0.45314667,0,0,-0.45314667,420,521.904)"
         id="path112" />
    </clipPath>
    <clipPath
       clipPathUnits="userSpaceOnUse"
       id="clipPath111">
      <path
         d="M 0,0 H 715 V 349 H 0 Z"
         transform="matrix(0,0.99999999,0.99999999,0,-132,-27.583895)"
         id="path111" />
    </clipPath>
    <clipPath
       clipPathUnits="userSpaceOnUse"
       id="clipPath114">
      <path
         d="M 0,0 H 715 V 349 H 0 Z"
         transform="matrix(0.45314667,0,0,-0.45314667,420,521.904)"
         id="path114" />
    </clipPath>
    <clipPath
       clipPathUnits="userSpaceOnUse"
       id="clipPath113">
      <path
         d="M 0,0 H 715 V 349 H 0 Z"
         id="path113" />
    </clipPath>
    <clipPath
       clipPathUnits="userSpaceOnUse"
       id="clipPath116">
      <path
         d="M 0,0 H 715 V 349 H 0 Z"
         transform="matrix(0.45314667,0,0,-0.45314667,420,521.904)"
         id="path116" />
    </clipPath>
    <clipPath
       clipPathUnits="userSpaceOnUse"
       id="clipPath115">
      <path
         d="M 0,0 H 715 V 349 H 0 Z"
         id="path115" />
    </clipPath>
    <clipPath
       clipPathUnits="userSpaceOnUse"
       id="clipPath118">
      <path
         d="M 0,0 H 715 V 349 H 0 Z"
         transform="matrix(0.45314667,0,0,-0.45314667,420,521.904)"
         id="path118" />
    </clipPath>
    <clipPath
       clipPathUnits="userSpaceOnUse"
       id="clipPath117">
      <path
         d="M 0,0 H 715 V 349 H 0 Z"
         id="path117" />
    </clipPath>
    <clipPath
       clipPathUnits="userSpaceOnUse"
       id="clipPath120">
      <path
         d="M 0,0 H 715 V 349 H 0 Z"
         transform="matrix(0.45314667,0,0,-0.45314667,420,521.904)"
         id="path120" />
    </clipPath>
    <clipPath
       clipPathUnits="userSpaceOnUse"
       id="clipPath119">
      <path
         d="M 0,0 H 715 V 349 H 0 Z"
         id="path119" />
    </clipPath>
    <clipPath
       clipPathUnits="userSpaceOnUse"
       id="clipPath122">
      <path
         d="M 0,0 H 715 V 349 H 0 Z"
         transform="matrix(0.45314667,0,0,-0.45314667,420,521.904)"
         id="path122" />
    </clipPath>
    <clipPath
       clipPathUnits="userSpaceOnUse"
       id="clipPath121">
      <path
         d="m 72,174 h 215 v 20 H 72 Z"
         transform="matrix(0.99999999,0,0,-0.99999999,-164.18459,178.99999)"
         id="path121" />
    </clipPath>
    <clipPath
       clipPathUnits="userSpaceOnUse"
       id="clipPath124">
      <path
         d="M 0,0 H 715 V 349 H 0 Z"
         transform="matrix(0.45314667,0,0,-0.45314667,420,521.904)"
         id="path124" />
    </clipPath>
    <clipPath
       clipPathUnits="userSpaceOnUse"
       id="clipPath123">
      <path
         d="M 0,0 H 715 V 349 H 0 Z"
         transform="matrix(0.99999999,0,0,-0.99999999,-295.175,177)"
         id="path123" />
    </clipPath>
    <clipPath
       clipPathUnits="userSpaceOnUse"
       id="clipPath126">
      <path
         d="M 0,0 H 715 V 349 H 0 Z"
         transform="matrix(0.45314667,0,0,-0.45314667,420,521.904)"
         id="path126" />
    </clipPath>
    <clipPath
       clipPathUnits="userSpaceOnUse"
       id="clipPath125">
      <path
         d="M 0,0 H 715 V 349 H 0 Z"
         transform="matrix(0.99999999,0,0,-0.99999999,-424.1242,177)"
         id="path125" />
    </clipPath>
    <clipPath
       clipPathUnits="userSpaceOnUse"
       id="clipPath128">
      <path
         d="M 0,0 H 715 V 349 H 0 Z"
         transform="matrix(0.45314667,0,0,-0.45314667,420,521.904)"
         id="path128" />
    </clipPath>
    <clipPath
       clipPathUnits="userSpaceOnUse"
       id="clipPath127">
      <path
         d="M 0,0 H 715 V 349 H 0 Z"
         transform="matrix(0.99999999,0,0,-0.99999999,-591.0105,178.99999)"
         id="path127" />
    </clipPath>
  </defs>
  <g
     inkscape:label="Layer 1"
     inkscape:groupmode="layer"
     id="layer1"
     transform="translate(-80.168749,-78.581249)">
    <g
       id="g165"
       transform="matrix(0.26458333,0,0,0.26458333,-30.95625,-17.662475)">
      <path
         d="M 0,349 H 715 V -5.149719e-6 H 0 Z"
         style="fill:#ffffff;fill-opacity:1;fill-rule:nonzero;stroke:none"
         transform="matrix(0.45314667,0,0,-0.45314667,420,521.904)"
         clip-path="url(#clipPath64)"
         id="path129" />
      <g
         clip-path="url(#clipPath66)"
         id="g130">
        <path
           d="M 0,1892300 H 7835900 M 0,1270000 H 7835900 M 0,635000 H 7835900 M 0,0 h 7835900"
           style="fill:none;stroke:#d9d9d9;stroke-width:9525;stroke-linecap:butt;stroke-linejoin:round;stroke-miterlimit:10;stroke-dasharray:none;stroke-opacity:1"
           transform="matrix(3.5680841e-5,0,0,3.5680841e-5,460.55663,370.77959)"
           clip-path="url(#clipPath65)"
           id="path130" />
      </g>
      <g
         clip-path="url(#clipPath69)"
         id="g132">
        <path
           d="m 119.5,242.5 h 28 v -108 h -28 z"
           style="fill:#7f7f7f;fill-opacity:1;fill-rule:nonzero;stroke:none"
           transform="matrix(0.45314667,0,0,-0.45314667,420,521.904)"
           clip-path="url(#clipPath67)"
           id="path131" />
        <path
           d="M 0,0 H 355600 V 1371600 H 0 Z"
           style="fill:none;stroke:#000000;stroke-width:9525;stroke-linecap:butt;stroke-linejoin:round;stroke-miterlimit:10;stroke-dasharray:none;stroke-opacity:1"
           transform="matrix(3.5680841e-5,0,0,3.5680841e-5,474.15103,412.01593)"
           clip-path="url(#clipPath68)"
           id="path132" />
      </g>
      <g
         clip-path="url(#clipPath72)"
         id="g134">
        <path
           d="m 208.5,235.5 h 27 v -101 h -27 z"
           style="fill:#ff0000;fill-opacity:1;fill-rule:nonzero;stroke:none"
           transform="matrix(0.45314667,0,0,-0.45314667,420,521.904)"
           clip-path="url(#clipPath70)"
           id="path133" />
        <path
           d="M 0,0 H 342900 V 1282700 H 0 Z"
           style="fill:none;stroke:#000000;stroke-width:9525;stroke-linecap:butt;stroke-linejoin:round;stroke-miterlimit:10;stroke-dasharray:none;stroke-opacity:1"
           transform="matrix(3.5680841e-5,0,0,3.5680841e-5,514.48108,415.18796)"
           clip-path="url(#clipPath71)"
           id="path134" />
      </g>
      <g
         clip-path="url(#clipPath75)"
         id="g136">
        <path
           d="m 296.5,276.5 h 27 v -142 h -27 z"
           style="fill:#ffc000;fill-opacity:1;fill-rule:nonzero;stroke:none"
           transform="matrix(0.45314667,0,0,-0.45314667,420,521.904)"
           clip-path="url(#clipPath73)"
           id="path135" />
        <path
           d="M 0,0 H 342900 V 1803400 H 0 Z"
           style="fill:none;stroke:#000000;stroke-width:9525;stroke-linecap:butt;stroke-linejoin:round;stroke-miterlimit:10;stroke-dasharray:none;stroke-opacity:1"
           transform="matrix(3.5680841e-5,0,0,3.5680841e-5,554.35799,396.60895)"
           clip-path="url(#clipPath74)"
           id="path136" />
      </g>
      <g
         clip-path="url(#clipPath78)"
         id="g138">
        <path
           d="m 560.5,318.5 h 28 v -184 h -28 z"
           style="fill:#70ad47;fill-opacity:1;fill-rule:nonzero;stroke:none"
           transform="matrix(0.45314667,0,0,-0.45314667,420,521.904)"
           clip-path="url(#clipPath76)"
           id="path137" />
        <path
           d="M 0,0 H 355600 V 2336800 H 0 Z"
           style="fill:none;stroke:#000000;stroke-width:9525;stroke-linecap:butt;stroke-linejoin:round;stroke-miterlimit:10;stroke-dasharray:none;stroke-opacity:1"
           transform="matrix(3.5680841e-5,0,0,3.5680841e-5,673.98871,377.57679)"
           clip-path="url(#clipPath77)"
           id="path138" />
      </g>
      <g
         clip-path="url(#clipPath81)"
         id="g140">
        <path
           d="m 648.5,317.5 h 28 v -183 h -28 z"
           style="fill:#70ad47;fill-opacity:1;fill-rule:nonzero;stroke:none"
           transform="matrix(0.45314667,0,0,-0.45314667,420,521.904)"
           clip-path="url(#clipPath79)"
           id="path139" />
        <path
           d="M 0,0 H 355600 V 2324100 H 0 Z"
           style="fill:none;stroke:#000000;stroke-width:9525;stroke-linecap:butt;stroke-linejoin:round;stroke-miterlimit:10;stroke-dasharray:none;stroke-opacity:1"
           transform="matrix(3.5680841e-5,0,0,3.5680841e-5,713.86561,378.02993)"
           clip-path="url(#clipPath80)"
           id="path140" />
      </g>
      <g
         clip-path="url(#clipPath84)"
         id="g142">
        <path
           d="m 384.5,290.5 h 28 v -156 h -28 z m 88,0 h 28 v -156 h -28 z"
           style="fill:#4472c4;fill-opacity:1;fill-rule:nonzero;stroke:none"
           transform="matrix(0.45314667,0,0,-0.45314667,420,521.904)"
           clip-path="url(#clipPath82)"
           id="path141" />
        <path
           d="m 3746500,546100 h 355600 v 1981200 h -355600 z m 1117600,0 h 355600 v 1981200 h -355600 z"
           style="fill:none;stroke:#000000;stroke-width:9525;stroke-linecap:butt;stroke-linejoin:round;stroke-miterlimit:10;stroke-dasharray:none;stroke-opacity:1"
           transform="matrix(3.5680841e-5,0,0,3.5680841e-5,460.55663,370.77959)"
           clip-path="url(#clipPath83)"
           id="path142" />
      </g>
      <g
         clip-path="url(#clipPath86)"
         id="g143">
        <path
           d="M 0,0 7835900,1"
           style="fill:none;stroke:#d9d9d9;stroke-width:9525;stroke-linecap:butt;stroke-linejoin:round;stroke-miterlimit:10;stroke-dasharray:none;stroke-opacity:1"
           transform="matrix(3.5680841e-5,0,0,3.5680841e-5,460.55663,460.95577)"
           clip-path="url(#clipPath85)"
           id="path143" />
      </g>
      <g
         clip-path="url(#clipPath88)"
         id="g144">
        <text
           xml:space="preserve"
           transform="matrix(0.45314667,0,0,0.45314667,441.7586,463.44808)"
           clip-path="url(#clipPath87)"
           id="text143"><tspan
             style="font-variant:normal;font-weight:normal;font-size:19px;font-family:Carlito;writing-mode:lr-tb;fill:#595959;fill-opacity:1;fill-rule:nonzero;stroke:none"
             x="0"
             dx="0 0.36669999 -0.79229999"
             y="0"
             id="tspan143">0.0</tspan></text>
      </g>
      <g
         clip-path="url(#clipPath90)"
         id="g145">
        <text
           xml:space="preserve"
           transform="matrix(0.45314667,0,0,0.45314667,441.7586,440.79075)"
           clip-path="url(#clipPath89)"
           id="text144"><tspan
             style="font-variant:normal;font-weight:normal;font-size:19px;font-family:Carlito;writing-mode:lr-tb;fill:#595959;fill-opacity:1;fill-rule:nonzero;stroke:none"
             x="0"
             dx="0 0.36669999 -0.79229999"
             y="0"
             id="tspan144">0.5</tspan></text>
      </g>
      <g
         clip-path="url(#clipPath92)"
         id="g146">
        <text
           xml:space="preserve"
           transform="matrix(0.45314667,0,0,0.45314667,441.7586,418.58656)"
           clip-path="url(#clipPath91)"
           id="text145"><tspan
             style="font-variant:normal;font-weight:normal;font-size:19px;font-family:Carlito;writing-mode:lr-tb;fill:#595959;fill-opacity:1;fill-rule:nonzero;stroke:none"
             x="0"
             dx="0 0.36669999 -0.79229999"
             y="0"
             id="tspan145">1.0</tspan></text>
      </g>
      <g
         clip-path="url(#clipPath94)"
         id="g147">
        <text
           xml:space="preserve"
           transform="matrix(0.45314667,0,0,0.45314667,441.7586,395.92923)"
           clip-path="url(#clipPath93)"
           id="text146"><tspan
             style="font-variant:normal;font-weight:normal;font-size:19px;font-family:Carlito;writing-mode:lr-tb;fill:#595959;fill-opacity:1;fill-rule:nonzero;stroke:none"
             x="0"
             dx="0 0.36669999 -0.79229999"
             y="0"
             id="tspan146">1.5</tspan></text>
      </g>
      <g
         clip-path="url(#clipPath96)"
         id="g148">
        <text
           xml:space="preserve"
           transform="matrix(0.45314667,0,0,0.45314667,441.7586,373.27189)"
           clip-path="url(#clipPath95)"
           id="text147"><tspan
             style="font-variant:normal;font-weight:normal;font-size:19px;font-family:Carlito;writing-mode:lr-tb;fill:#595959;fill-opacity:1;fill-rule:nonzero;stroke:none"
             x="0"
             dx="0 0.36669999 -0.79229999"
             y="0"
             id="tspan147">2.0</tspan></text>
      </g>
      <g
         clip-path="url(#clipPath98)"
         id="g149">
        <text
           xml:space="preserve"
           transform="matrix(0.32042309,-0.32042309,0.32042309,0.32042309,445.00986,511.93479)"
           clip-path="url(#clipPath97)"
           id="text148"><tspan
             style="font-variant:normal;font-weight:normal;font-size:22px;font-family:Carlito;writing-mode:lr-tb;fill:#595959;fill-opacity:1;fill-rule:nonzero;stroke:none"
             x="0"
             dx="0 0 0.45100001 -0.583 0 0.34099999 -0.16500001 -0.16500001 -0.16500001 -0.16500001 0.45100001 -0.16500001"
             y="0"
             id="tspan148">yum (2018.8)</tspan></text>
      </g>
      <g
         clip-path="url(#clipPath100)"
         id="g150">
        <text
           xml:space="preserve"
           transform="matrix(0.32042309,-0.32042309,0.32042309,0.32042309,482.54508,514.65367)"
           clip-path="url(#clipPath99)"
           id="text149"><tspan
             style="font-variant:normal;font-weight:normal;font-size:22px;font-family:Carlito;writing-mode:lr-tb;fill:#595959;fill-opacity:1;fill-rule:nonzero;stroke:none"
             x="0"
             dx="0 -0.36300001 0 0.45100001 0 -0.671 0.95700002 -0.29699999 0 -0.671 0.91299999 0 -0.73699999 0.847"
             y="0"
             id="tspan149">generic (SSE2)</tspan></text>
      </g>
      <g
         clip-path="url(#clipPath102)"
         id="g151">
        <text
           xml:space="preserve"
           transform="matrix(0.32042309,-0.32042309,0.32042309,0.32042309,536.64934,500.15297)"
           clip-path="url(#clipPath101)"
           id="text150"><tspan
             style="font-variant:normal;font-weight:normal;font-size:22px;font-family:Carlito;writing-mode:lr-tb;fill:#595959;fill-opacity:1;fill-rule:nonzero;stroke:none"
             x="0"
             dx="0 0 0 0 0.44659999 -0.67540002 0 0.44659999 -0.36739999"
             y="0"
             id="tspan150">ivybridge</tspan></text>
      </g>
      <g
         clip-path="url(#clipPath104)"
         id="g152">
        <text
           xml:space="preserve"
           transform="matrix(0.32042309,-0.32042309,0.32042309,0.32042309,581.28198,495.62151)"
           clip-path="url(#clipPath103)"
           id="text151"><tspan
             style="font-variant:normal;font-weight:normal;font-size:22px;font-family:Carlito;writing-mode:lr-tb;fill:#595959;fill-opacity:1;fill-rule:nonzero;stroke:none"
             x="0"
             dx="0 0.45100001 -0.53899997 0.40700001 -0.73699999"
             y="0"
             id="tspan151">haswell</tspan></text>
      </g>
      <g
         clip-path="url(#clipPath106)"
         id="g153">
        <text
           xml:space="preserve"
           transform="matrix(0.32042309,-0.32042309,0.32042309,0.32042309,614.11178,502.87185)"
           clip-path="url(#clipPath105)"
           id="text152"><tspan
             style="font-variant:normal;font-weight:normal;font-size:22px;font-family:Carlito;writing-mode:lr-tb;fill:#595959;fill-opacity:1;fill-rule:nonzero;stroke:none"
             x="0"
             dx="0 0.45100001 -0.671 0.40700001 -0.53899997 0.45100001 0.27500001"
             y="0"
             id="tspan152">broadwell</tspan></text>
      </g>
      <g
         clip-path="url(#clipPath108)"
         id="g154">
        <text
           xml:space="preserve"
           transform="matrix(0.32042309,-0.32042309,0.32042309,0.32042309,638.10267,518.73199)"
           clip-path="url(#clipPath107)"
           id="text153"><tspan
             style="font-variant:normal;font-weight:normal;font-size:22px;font-family:Carlito;writing-mode:lr-tb;fill:#595959;fill-opacity:1;fill-rule:nonzero;stroke:none"
             x="0"
             dx="0 0.39820001 0 0 0 -0.5478 0 0 0 0.46419999 0 -0.52579999 -0.15180001 -0.15180001"
             y="0"
             id="tspan153">skylake_avx512</tspan></text>
      </g>
      <g
         clip-path="url(#clipPath110)"
         id="g155">
        <text
           xml:space="preserve"
           transform="matrix(0.32042309,-0.32042309,0.32042309,0.32042309,688.36353,508.30961)"
           clip-path="url(#clipPath109)"
           id="text154"><tspan
             style="font-variant:normal;font-weight:normal;font-size:22px;font-family:Carlito;writing-mode:lr-tb;fill:#595959;fill-opacity:1;fill-rule:nonzero;stroke:none"
             x="0"
             dx="0 -0.30579999 0.46419999 -0.59179997 0.68419999 -0.5478 0.44220001 0 0 -0.5478"
             y="0"
             id="tspan154">cascadelake</tspan></text>
      </g>
      <g
         clip-path="url(#clipPath112)"
         id="g156">
        <text
           xml:space="preserve"
           transform="matrix(0,-0.45314667,0.45314667,0,432.49955,462.08864)"
           clip-path="url(#clipPath111)"
           id="text155"><tspan
             style="font-variant:normal;font-weight:normal;font-size:22px;font-family:Carlito;writing-mode:lr-tb;fill:#595959;fill-opacity:1;fill-rule:nonzero;stroke:none"
             x="0"
             dx="0 0 0 0 -0.45539999 0 0 0 0 0 0 0 0 0 0 0 0 0 -0.40700001"
             y="0"
             id="tspan155">performance (ns/day)</tspan></text>
      </g>
      <g
         clip-path="url(#clipPath114)"
         id="g157">
        <path
           d="m 262,192.1666 c 0,2.6694 2.164,4.8334 4.8334,4.8334 h 83.3332 C 352.836,197 355,194.836 355,192.1666 V 172.8334 C 355,170.164 352.836,168 350.1666,168 H 266.8334 C 264.164,168 262,170.164 262,172.8334 Z"
           style="fill:#d9d9d9;fill-opacity:1;fill-rule:nonzero;stroke:none"
           transform="matrix(0.45314667,0,0,-0.45314667,420,521.904)"
           clip-path="url(#clipPath113)"
           id="path156" />
      </g>
      <g
         clip-path="url(#clipPath116)"
         id="g158">
        <path
           d="m 132,193.1666 c 0,2.6694 2.164,4.8334 4.8334,4.8334 h 83.3332 C 222.836,198 225,195.836 225,193.1666 V 173.8334 C 225,171.164 222.836,169 220.1666,169 H 136.8334 C 134.164,169 132,171.164 132,173.8334 Z"
           style="fill:#d9d9d9;fill-opacity:1;fill-rule:nonzero;stroke:none"
           transform="matrix(0.45314667,0,0,-0.45314667,420,521.904)"
           clip-path="url(#clipPath115)"
           id="path157" />
      </g>
      <g
         clip-path="url(#clipPath118)"
         id="g159">
        <path
           d="m 396,192.1666 c 0,2.6694 2.164,4.8334 4.8334,4.8334 h 83.3332 C 486.836,197 489,194.836 489,192.1666 V 172.8334 C 489,170.164 486.836,168 484.1666,168 H 400.8334 C 398.164,168 396,170.164 396,172.8334 Z"
           style="fill:#d9d9d9;fill-opacity:1;fill-rule:nonzero;stroke:none"
           transform="matrix(0.45314667,0,0,-0.45314667,420,521.904)"
           clip-path="url(#clipPath117)"
           id="path158" />
      </g>
      <g
         clip-path="url(#clipPath120)"
         id="g160">
        <path
           d="m 569,194.1666 c 0,2.6694 2.164,4.8334 4.8334,4.8334 h 83.3332 C 659.836,199 662,196.836 662,194.1666 V 174.8334 C 662,172.164 659.836,170 657.1666,170 H 573.8334 C 571.164,170 569,172.164 569,174.8334 Z"
           style="fill:#d9d9d9;fill-opacity:1;fill-rule:nonzero;stroke:none"
           transform="matrix(0.45314667,0,0,-0.45314667,420,521.904)"
           clip-path="url(#clipPath119)"
           id="path159" />
      </g>
      <g
         clip-path="url(#clipPath122)"
         id="g161">
        <text
           xml:space="preserve"
           transform="matrix(0.45314667,0,0,0.45314667,494.3997,440.79075)"
           clip-path="url(#clipPath121)"
           id="text160"><tspan
             style="font-variant:normal;font-weight:normal;font-size:16px;font-family:Carlito;writing-mode:lr-tb;fill:#000000;fill-opacity:1;fill-rule:nonzero;stroke:none"
             x="0"
             y="0"
             id="tspan160">SSE2</tspan></text>
      </g>
      <g
         clip-path="url(#clipPath124)"
         id="g162">
        <text
           xml:space="preserve"
           transform="matrix(0.45314667,0,0,0.45314667,553.75757,441.69704)"
           clip-path="url(#clipPath123)"
           id="text161"><tspan
             style="font-variant:normal;font-weight:normal;font-size:16px;font-family:Carlito;writing-mode:lr-tb;fill:#000000;fill-opacity:1;fill-rule:nonzero;stroke:none"
             x="0"
             y="0"
             id="tspan161">AVX</tspan></text>
      </g>
      <g
         clip-path="url(#clipPath126)"
         id="g163">
        <text
           xml:space="preserve"
           transform="matrix(0.45314667,0,0,0.45314667,612.19047,441.69704)"
           clip-path="url(#clipPath125)"
           id="text162"><tspan
             style="font-variant:normal;font-weight:normal;font-size:16px;font-family:Carlito;writing-mode:lr-tb;fill:#000000;fill-opacity:1;fill-rule:nonzero;stroke:none"
             x="0"
             y="0"
             id="tspan162">AVX2</tspan></text>
      </g>
      <g
         clip-path="url(#clipPath128)"
         id="g164">
        <text
           xml:space="preserve"
           transform="matrix(0.45314667,0,0,0.45314667,687.81444,440.79075)"
           clip-path="url(#clipPath127)"
           id="text163"><tspan
             style="font-variant:normal;font-weight:normal;font-size:16px;font-family:Carlito;writing-mode:lr-tb;fill:#000000;fill-opacity:1;fill-rule:nonzero;stroke:none"
             x="0"
             y="0"
             id="tspan163">AVX512</tspan></text>
      </g>
    </g>
  </g>
</svg>
