<?xml version="1.0" encoding="UTF-8"?>
<svg width="1667" height="1639" version="1.1" xmlns="http://www.w3.org/2000/svg" xmlns:lucid="lucid" xmlns:xlink="http://www.w3.org/1999/xlink"><g transform="translate(-266 -431)" lucid:page-tab-id="0_0"><path d="m307.5 536.3a16 16 0 0 1 16-16h304v42.73h-320zm320-16h838.9v42.73h-838.9zm838.9 0h409.7a16 16 0 0 1 16 16v26.73h-425.7z" fill="light-dark(#ced4db, #505e6d)" stroke="#979ea8" stroke-width="2"/><path d="m307.5 563.1h320v1471h-304a16 16 0 0 1-16-16zm320 0h838.9v1471h-838.9zm838.9 0h425.7v1455a16 16 0 0 1-16 16h-409.7z" fill="none" stroke="#979ea8" stroke-width="2"/><use transform="matrix(1 0 0 1 307.5 520.3) translate(102.8 29.84)" xlink:href="#gc"/><use transform="matrix(1 0 0 1 627.5 520.3) translate(374.1 29.84)" xlink:href="#gb"/><use transform="matrix(1 0 0 1 1466 520.3) translate(92.92 29.84)" xlink:href="#ga"/><use transform="matrix(1 0 0 1 1466 520.3) translate(226 29.84)" xlink:href="#fz"/><path d="m481 596.8c0 9.1-7.7 16.48-17.2 16.48s-17.22-7.38-17.22-16.48 7.7-16.48 17.2-16.48c9.52 0 17.22 7.38 17.22 16.48z" stroke="var(--line)"/><path d="m395.3 665.4c-6.35 0-11.5 5.16-11.5 11.52v34.55c0 6.37 5.15 11.52 11.5 11.52h137c6.37 0 11.52-5.15 11.52-11.52v-34.55c0-6.36-5.16-11.52-11.52-11.52z" fill="light-dark(#6db1ff, #0057bb)" stroke="var(--line)"/><use transform="matrix(1 0 0 1 391.8 673.4) translate(1.514 18.27)" xlink:href="#fy"/><use transform="matrix(1 0 0 1 391.8 673.4) translate(65.9 18.27)" xlink:href="#fx"/><use transform="matrix(1 0 0 1 391.8 673.4) translate(46.18 41.09)" xlink:href="#fw"/><path d="m687.4 781.9c-6.07 0-11 4.9-11 10.97v32.92c0 6.06 4.93 10.98 11 10.98h190.4c6.06 0 10.98-4.92 10.98-10.98v-32.92c0-6.06-4.92-10.97-10.98-10.97z" fill="light-dark(#dedeff, #0000ca)" stroke="var(--line)"/><use transform="matrix(1 0 0 1 684.4 789.9) translate(8.793 18.27)" xlink:href="#fv"/><use transform="matrix(1 0 0 1 684.4 789.9) translate(106.3 18.27)" xlink:href="#fu"/><use transform="matrix(1 0 0 1 684.4 789.9) translate(123.1 18.27)" xlink:href="#ft"/><use transform="matrix(1 0 0 1 684.4 789.9) translate(15.33 41.09)" xlink:href="#fs"/><use transform="matrix(1 0 0 1 684.4 789.9) translate(52.32 41.09)" xlink:href="#fh"/><use transform="matrix(1 0 0 1 684.4 789.9) translate(118.6 41.09)" xlink:href="#fr"/><g stroke="var(--line)"><path d="m463.8 614.3v34.25" fill="none"/><path d="M463.8 613.8l.47-.06v.57h-.95v-.56z" stroke-width=".05"/><path d="m463.8 663.3-4.64-14.27h9.27z"/><path d="m1006 1396c-6.18 0-11.2 5-11.2 11.2v33.6c0 6.2 5.02 11.2 11.2 11.2h190.5c6.2 0 11.2-5 11.2-11.2v-33.6c0-6.2-5-11.2-11.2-11.2z" fill="light-dark(#f2f2ff, #000069)"/></g><use transform="matrix(1 0 0 1 1003 1404) translate(7.384 18.27)" xlink:href="#fq"/><use transform="matrix(1 0 0 1 1003 1404) translate(24.73 18.27)" xlink:href="#fp"/><use transform="matrix(1 0 0 1 1003 1404) translate(58.65 18.27)" xlink:href="#fo"/><use transform="matrix(1 0 0 1 1003 1404) translate(131.5 18.27)" xlink:href="#fn"/><use transform="matrix(1 0 0 1 1003 1404) translate(152.6 18.27)" xlink:href="#fm"/><use transform="matrix(1 0 0 1 1003 1404) translate(28.01 41.09)" xlink:href="#fl"/><use transform="matrix(1 0 0 1 1003 1404) translate(84.96 41.09)" xlink:href="#fg"/><path d="m1610 1412c-6.36 0-11.52 5.16-11.52 11.52v34.55c0 6.37 5.16 11.53 11.52 11.53h215c6.36 0 11.5-5.16 11.5-11.52v-34.54c0-6.36-5.14-11.52-11.5-11.52z" fill="light-dark(#f2f2ff, #000069)" stroke="var(--line)"/><use transform="matrix(1 0 0 1 1606 1420) translate(5.582 18.27)" xlink:href="#ff"/><use transform="matrix(1 0 0 1 1606 1420) translate(55.51 18.27)" xlink:href="#fe"/><use transform="matrix(1 0 0 1 1606 1420) translate(72.96 18.27)" xlink:href="#fd"/><use transform="matrix(1 0 0 1 1606 1420) translate(126 18.27)" xlink:href="#fc"/><use transform="matrix(1 0 0 1 1606 1420) translate(9.551 41.09)" xlink:href="#fb"/><use transform="matrix(1 0 0 1 1606 1420) translate(81.14 41.09)" xlink:href="#fa"/><use transform="matrix(1 0 0 1 1606 1420) translate(111.3 41.09)" xlink:href="#fk"/><use transform="matrix(1 0 0 1 1606 1420) translate(181 41.09)" xlink:href="#fj"/><g stroke="var(--line)"><path d="m779.1 899.2a4.84 4.84 0 0 1 6.96 0l15.75 16.26a5.16 5.16 0 0 1 0 7.18l-15.74 16.27a4.84 4.84 0 0 1-6.95 0l-15.74-16.26a5.16 5.16 0 0 1 0-7.17z" fill="light-dark(#fff, #000)" stroke-width="4"/><path d="m695.8 1765h-20.5a12 12 0 0 1-12-12v-758.3a12 12 0 0 1 12-12h95.3a12 12 0 0 0 12-12v-27.5" fill="none"/><path d="m710.6 1765-14.27 4.64v-9.26z"/><path d="M782.6 942.35l.46-.03v.55h-.95v-.55z" stroke-width=".05"/></g><use transform="matrix(1 0 0 1 668.6 937) translate(0 16.57)" xlink:href="#gz"/><use transform="matrix(1 0 0 1 668.6 937) translate(25.18 16.57)" xlink:href="#gy"/><use transform="matrix(1 0 0 1 668.6 937) translate(0 37.27)" xlink:href="#gx"/><path d="m724.2 1736c-6.35 0-11.5 5.16-11.5 11.52v34.55c0 6.36 5.15 11.52 11.5 11.52h137c6.36 0 11.52-5.16 11.52-11.52v-34.55c0-6.36-5.16-11.52-11.52-11.52z" fill="light-dark(#cfe4ff, #0052bb)" stroke="var(--line)"/><use transform="matrix(1 0 0 1 720.7 1744) translate(4.981 27.86)" xlink:href="#gw"/><use transform="matrix(1 0 0 1 720.7 1744) translate(62.43 27.86)" xlink:href="#gv"/><g stroke="var(--line)"><path d="m1540 1581a2.95 2.95 0 0 1-2.94-2.95v-154.1a2.95 2.95 0 0 1 2.95-2.95 2.95 2.95 0 0 1 2.96 2.96v154.1a2.95 2.95 0 0 1-2.95 2.94z"/><path d="m799.5 1988c0 8.8-7.7 15.9-17.2 15.9-9.52 0-17.22-7.1-17.22-15.9 0-8.78 7.7-15.9 17.2-15.9s17.22 7.12 17.22 15.9z" fill-opacity="0"/><path d="m792.6 1988c0 5.28-4.62 9.55-10.32 9.55s-10.33-4.27-10.33-9.54 4.63-9.54 10.33-9.54 10.32 4.27 10.32 9.55z"/><path d="m949.1 1613c-7.18 0-13 5.82-13 13v39.04c0 7.18 5.82 13 13 13h125.9c7.18 0 13-5.82 13-13v-39.03c0-7.18-5.82-13-13-13z" fill="light-dark(#edf5ff, #001b3c)"/></g><use transform="matrix(1 0 0 1 944.1 1621) translate(21.9 20.45)" xlink:href="#gu"/><use transform="matrix(1 0 0 1 944.1 1621) translate(2.238 43.27)" xlink:href="#gt"/><use transform="matrix(1 0 0 1 944.1 1621) translate(72.81 43.27)" xlink:href="#gs"/><path d="m713.8 1853c-6.36 0-11.5 5.14-11.5 11.5v34.56c0 6.36 5.14 11.52 11.5 11.52h137c6.36 0 11.52-5.16 11.52-11.52v-34.55c0-6.36-5.16-11.5-11.52-11.5z" fill="light-dark(#ff80df, #800060)" stroke="var(--line)"/><use transform="matrix(1 0 0 1 710.2 1861) translate(2.937 27.86)" xlink:href="#gr"/><use transform="matrix(1 0 0 1 710.2 1861) translate(67.51 27.86)" xlink:href="#gq"/><g stroke="var(--line)"><path d="m782.2 1912v43.63" fill="none"/><path d="m782.7 1912h-0.95v-0.52h0.95z" stroke-width=".05"/><path d="m782.2 1970-4.65-14.28h9.28z"/><path d="m591.3 433.7a8 8 0 0 1 8-8h1072a8 8 0 0 1 8 8v78.6a8 8 0 0 1-8 8h-1072a8 8 0 0 1-8-8z" fill="light-dark(#fff, #000)" fill-opacity="0" stroke-opacity="0" stroke-width="2"/></g><use transform="matrix(1 0 0 1 595.3 429.7) translate(204.7 52.55)" xlink:href="#gp"/><use transform="matrix(1 0 0 1 595.3 429.7) translate(328.5 52.55)" xlink:href="#go"/><use transform="matrix(1 0 0 1 595.3 429.7) translate(349.9 52.55)" xlink:href="#gn"/><use transform="matrix(1 0 0 1 595.3 429.7) translate(466.2 52.55)" xlink:href="#gm"/><use transform="matrix(1 0 0 1 595.3 429.7) translate(591.2 52.55)" xlink:href="#gl"/><use transform="matrix(1 0 0 1 595.3 429.7) translate(687.2 52.55)" xlink:href="#gk"/><use transform="matrix(1 0 0 1 595.3 429.7) translate(770.4 52.55)" xlink:href="#gj"/><g stroke="var(--line)"><path d="m792.7 1794v41.93" fill="none"/><path d="m793.2 1794h-0.95v-0.5h0.95z" stroke-width=".05"/><path d="m792.7 1851-4.64-14.27h9.27z"/><path d="m1265 1473c-6.18 0-11.2 5-11.2 11.2v33.6c0 6.2 5.02 11.2 11.2 11.2h165.7c6.2 0 11.2-5 11.2-11.2v-33.6c0-6.2-5-11.2-11.2-11.2z" fill="light-dark(#f2f2ff, #000069)"/></g><use transform="matrix(1 0 0 1 1262 1481) translate(7.285 18.27)" xlink:href="#gi"/><use transform="matrix(1 0 0 1 1262 1481) translate(67.15 18.27)" xlink:href="#gh"/><use transform="matrix(1 0 0 1 1262 1481) translate(44.48 41.09)" xlink:href="#fg"/><path d="m1610 1526c-6.36 0-11.52 5.15-11.52 11.52v34.55c0 6.36 5.16 11.52 11.52 11.52h215c6.36 0 11.5-5.17 11.5-11.53v-34.55c0-6.37-5.14-11.52-11.5-11.52z" fill="light-dark(#f2f2ff, #000069)" stroke="var(--line)"/><use transform="matrix(1 0 0 1 1606 1534) translate(5.582 18.27)" xlink:href="#ff"/><use transform="matrix(1 0 0 1 1606 1534) translate(55.51 18.27)" xlink:href="#fe"/><use transform="matrix(1 0 0 1 1606 1534) translate(72.96 18.27)" xlink:href="#fd"/><use transform="matrix(1 0 0 1 1606 1534) translate(126 18.27)" xlink:href="#fc"/><use transform="matrix(1 0 0 1 1606 1534) translate(9.551 41.09)" xlink:href="#fb"/><use transform="matrix(1 0 0 1 1606 1534) translate(81.14 41.09)" xlink:href="#fa"/><use transform="matrix(1 0 0 1 1606 1534) translate(111.3 41.09)" xlink:href="#fk"/><use transform="matrix(1 0 0 1 1606 1534) translate(181 41.09)" xlink:href="#fj"/><g stroke="var(--line)"><path d="m1581 1441h-36.92" fill="none"/><path d="m1596 1441-14.26 4.63v-9.27z"/><path d="m1544 1441h-0.5v-0.94h0.5z" stroke-width=".05"/><path d="m1581 1555h-36.92" fill="none"/><path d="m1596 1555-14.26 4.63v-9.27z"/><path d="m1544 1556h-0.5v-0.95h0.5z" stroke-width=".05"/></g><path d="m1598 1380a8 8 0 0 1 8-8h153a8 8 0 0 1 8 8v14.7a8 8 0 0 1-8 8h-153a8 8 0 0 1-8-8z" fill="none"/><use transform="matrix(1 0 0 1 1598 1372) translate(42.34 22.19)" xlink:href="#fi"/><use transform="matrix(1 0 0 1 1598 1372) translate(120.2 22.19)" xlink:href="#gg"/><path d="m1598 1503a8 8 0 0 1 8-8h153a8 8 0 0 1 8 8v14.72a8 8 0 0 1-8 8h-153a8 8 0 0 1-8-8z" fill="none"/><use transform="matrix(1 0 0 1 1598 1495) translate(40.47 22.19)" xlink:href="#fi"/><use transform="matrix(1 0 0 1 1598 1495) translate(118.3 22.19)" xlink:href="#gf"/><g stroke="var(--line)"><path d="m782.6 837.7v41.57" fill="none"/><path d="M783.06 837.75h-.95v-.5h.96z" stroke-width=".05"/><path d="m782.6 894.1-4.65-14.26h9.27z"/><path d="m709.7 665.4c-6.35 0-11.5 5.16-11.5 11.52v34.55c0 6.37 5.15 11.52 11.5 11.52h155.5c6.36 0 11.52-5.15 11.52-11.52v-34.55c0-6.36-5.16-11.52-11.52-11.52z" fill="light-dark(#9391ff, #0300a5)"/></g><use transform="matrix(1 0 0 1 706.2 673.4) translate(8.689 18.27)" xlink:href="#ge"/><use transform="matrix(1 0 0 1 706.2 673.4) translate(91.09 18.27)" xlink:href="#gd"/><use transform="matrix(1 0 0 1 706.2 673.4) translate(7.906 41.09)" xlink:href="#aa"/><use transform="matrix(1 0 0 1 706.2 673.4) translate(89.8 41.09)" xlink:href="#ab"/><g stroke="var(--line)"><path d="m544.8 694.2h136.5" fill="none"/><path d="M544.8 694.7h-.5v-.95h.5z" stroke-width=".05"/><path d="m696.1 694.2-14.27 4.63v-9.27z"/><path d="m787.5 724v40.96" fill="none"/><path d="m788 724h-0.95v-0.5h0.95z" stroke-width=".05"/><path d="m787.5 779.8-4.63-14.27h9.27z"/><path d="m1070 1159c-6.36 0-11.52 5.16-11.52 11.52v34.55c0 6.37 5.16 11.52 11.52 11.52h195.4c6.36 0 11.5-5.15 11.5-11.52v-34.55c0-6.36-5.14-11.52-11.5-11.52z" fill="light-dark(#dedeff, #0000ca)"/></g><use transform="matrix(1 0 0 1 1067 1167) translate(36.97 18.27)" xlink:href="#ac"/><use transform="matrix(1 0 0 1 1067 1167) translate(105.1 18.27)" xlink:href="#ad"/><use transform="matrix(1 0 0 1 1067 1167) translate(2.631 41.09)" xlink:href="#ae"/><use transform="matrix(1 0 0 1 1067 1167) translate(82.01 41.09)" xlink:href="#af"/><path d="m1062 1041c-7.76 0-14.04 6.3-14.04 14.04v42.12c0 7.76 6.28 14.04 14.04 14.04h211.2c7.74 0 14.03-6.28 14.03-14.04v-42.1c0-7.76-6.3-14.05-14.04-14.05z" fill="light-dark(#dedeff, #0000ca)" stroke="var(--line)"/><use transform="matrix(1 0 0 1 1056 1049) translate(74.65 15.28)" xlink:href="#ag"/><use transform="matrix(1 0 0 1 1056 1049) translate(-3.787 34.35)" xlink:href="#ah"/><use transform="matrix(1 0 0 1 1056 1049) translate(72.28 53.43)" xlink:href="#ai"/><use transform="matrix(1 0 0 1 1056 1049) translate(111.5 53.43)" xlink:href="#aj"/><path d="M962 918.6l.82.2.8.34.73.45.65.55.56.65.45.74.34.8.2.83.07.83v28.84h-.94v-28.8l-.06-.72-.17-.7-.27-.65-.37-.6-.47-.55-.54-.46-.62-.37-.65-.28-.7-.17-.72-.05h-24.9v-.95h24.95zm-156.23.9v-.95h22.28v.95z" stroke="var(--line)" stroke-width=".05"/><path d="M805.78 919.5h-.55l.04-.48-.04-.47h.55z"/><path d="m966.1 967.6-4.63-14.26h9.27z"/><path d="m966.1 969.1-5.3-16.28h10.6zm-3.98-15.33 3.98 12.26 3.98-12.25z" stroke="var(--line)" stroke-width=".05"/><use transform="matrix(1 0 0 1 828.1 899.9) translate(10.56 15.28)" xlink:href="#ak"/><use transform="matrix(1 0 0 1 828.1 899.9) translate(71.11 15.28)" xlink:href="#al"/><use transform="matrix(1 0 0 1 828.1 899.9) translate(.005 34.35)" xlink:href="#am"/><use transform="matrix(1 0 0 1 828.1 899.9) translate(55.41 34.35)" xlink:href="#an"/><g stroke="var(--line)"><path d="m1168 1112v30.2" fill="none"/><path d="m1168 1112h-0.95v-0.5h0.95z" stroke-width=".05"/><path d="m1168 1157-4.64-14.27h9.27z"/><path d="m1164 1243a4.84 4.84 0 0 1 6.96 0l15.74 16.25a5.16 5.16 0 0 1 0 7.18l-15.74 16.26a4.84 4.84 0 0 1-6.96 0l-15.75-16.27a5.16 5.16 0 0 1 0-7.18z" fill="light-dark(#fff, #000)" stroke-width="4"/><path d="m1168 1218v5.4" fill="none"/><path d="m1168 1218h-0.95v-0.52h0.95z" stroke-width=".05"/><path d="m1168 1238-4.64-14.28h9.27z"/><path d="M1102.6 1349.9l-.32.38-.38.6-.27.66-.16.7-.06.72v26.3h-.94v-26.34l.07-.84.2-.83.33-.8.45-.73.56-.65.54-.46zm221.8-1.5h-48.88v-.94h48.88z" stroke-width=".05"/></g><path d="M1324.9 1347.94l.03.47h-.55v-.94h.55z"/><path d="m1101 1394-4.63-14.27h9.27z"/><path d="m1101 1396-5.28-16.28h10.57zm-3.98-15.33 3.98 12.25 4-12.25z" stroke="var(--line)" stroke-width=".05"/><use transform="matrix(1 0 0 1 1103 1329) translate(.005 15.28)" xlink:href="#ao"/><use transform="matrix(1 0 0 1 1103 1329) translate(66.89 15.28)" xlink:href="#ap"/><use transform="matrix(1 0 0 1 1103 1329) translate(51.34 34.35)" xlink:href="#aq"/><path d="m993.4 1460a8 8 0 0 1 8-8h178.8a8 8 0 0 1 8 8v34.45a8 8 0 0 1-8 8h-178.8a8 8 0 0 1-8-8z" fill="none"/><use transform="matrix(1 0 0 1 993.4 1452) translate(30.38 21.7)" xlink:href="#ar"/><use transform="matrix(1 0 0 1 993.4 1452) translate(83.06 21.7)" xlink:href="#as"/><use transform="matrix(1 0 0 1 993.4 1452) translate(120.3 21.7)" xlink:href="#at"/><use transform="matrix(1 0 0 1 993.4 1452) translate(9.83 40.78)" xlink:href="#au"/><use transform="matrix(1 0 0 1 993.4 1452) translate(41.55 40.78)" xlink:href="#av"/><use transform="matrix(1 0 0 1 993.4 1452) translate(75.2 40.78)" xlink:href="#aw"/><use transform="matrix(1 0 0 1 993.4 1452) translate(120 40.78)" xlink:href="#ax"/><use transform="matrix(1 0 0 1 993.4 1452) translate(151.7 40.78)" xlink:href="#ay"/><path d="m1348 1456h-0.95v-22.9h0.96zm0-61.05h-0.95v-23.4h0.96z" stroke="var(--line)" stroke-width=".05"/><path d="m1348 1371 0.48-0.04v0.55h-0.95v-0.55z"/><path d="m1348 1471-4.63-14.27h9.27z"/><path d="m1348 1473-5.3-16.27h10.6zm-3.98-15.32 3.98 12.26 3.98-12.25z" stroke="var(--line)" stroke-width=".05"/><use transform="matrix(1 0 0 1 1275 1395) translate(56.94 15.28)" xlink:href="#az"/><use transform="matrix(1 0 0 1 1275 1395) translate(.005 34.35)" xlink:href="#aA"/><use transform="matrix(1 0 0 1 1275 1395) translate(75.13 34.35)" xlink:href="#aq"/><path d="M1343.44 1262.23l.83.2.8.33.73.45.65.57.56.65.46.73.33.8.2.83.06.84v40.6h-.95v-40.56l-.05-.73-.17-.7-.27-.64-.36-.62-.46-.54-.54-.46-.6-.37-.66-.26-.7-.17-.72-.06h-17.52v-.94h17.56zm-152.28.88v-.94h51.46v.95z" stroke="var(--line)" stroke-width=".05"/><path d="M1191.18 1263.1h-.55l.03-.46-.03-.48h.55z"/><path d="m1348 1323-4.63-14.28h9.27z"/><path d="m1348 1325-5.3-16.28h10.6zm-3.98-15.33 3.98 12.25 3.98-12.25z" stroke="var(--line)" stroke-width=".05"/><use transform="matrix(1 0 0 1 1243 1234) translate(8.667 15.28)" xlink:href="#aB"/><use transform="matrix(1 0 0 1 1243 1234) translate(.005 34.35)" xlink:href="#aC"/><use transform="matrix(1 0 0 1 1243 1234) translate(6.083 53.43)" xlink:href="#aq"/><g stroke="var(--line)"><path d="M1446.4 1492.7v-.03l.34-.46.4-.47.45-.5.53-.54.65-.58.78-.6.95-.66 1.16-.7 1.43-.76 1.8-.82 2.26-.9 2.9-.93 3.74-.98 4.78-.97 6-.86 7.2-.6 7.92-.22 7.9.24 7.13.62 5.94.87 4.73.97 3.7.98h.03m13.46 24.75l-.02.02-.34.47-.4.48-.45.5-.55.54-.65.57-.78.6-.94.65-1.16.7-1.43.77-1.8.82-2.27.88-2.9.95-3.75.98-4.78.96-6 .86-7.18.6-7.93.22-7.92-.23-7.13-.64-5.94-.86-4.72-.97-3.68-.98-.05-.02" fill="none"/><path d="M1446.8 1492.94l-.28.44-.8-.5.27-.45z" stroke-width=".05"/><path d="m1531 1492-14.6-3.44 4.8-7.93z"/><path d="M1533.26 1509.38l-.27.43-.82-.5.28-.43z" stroke-width=".05"/><path d="m1448 1510 14.6 3.42-4.8 7.93z"/><path d="M1038.24 1263.1h-75.77l-.73.07-.7.17-.65.27-.6.38-.55.46-.46.54-.38.6-.28.66-.16.7-.06.72v299.52l.06.72.16.7.27.65.4.6.45.55.54.46.6.37.65.27.7.16.72.06h44.6l.82.07.83.2.8.32.73.45.65.55.57.66.45.73.33.8.2.84.06.84v18.63h-.94v-18.6l-.05-.7-.16-.7-.27-.66-.37-.6-.46-.54-.54-.46-.6-.37-.66-.28-.7-.17-.72-.06h-44.6l-.83-.07-.85-.2-.8-.32-.72-.45-.66-.56-.56-.65-.43-.74-.33-.8-.2-.83-.07-.84v-299.58l.07-.84.2-.83.33-.8.44-.73.57-.65.66-.56.73-.44.8-.33.83-.2.83-.07h75.8zm106.55 0h-.34v-.94h.33z" stroke-width=".05"/></g><path d="M1145.3 1262.64l.03.47h-.55v-.94h.55z"/><path d="m1012 1611-4.64-14.27h9.27z"/><path d="m1012 1612-5.3-16.28h10.6zm-3.98-15.33 3.98 12.24 3.98-12.25z" stroke="var(--line)" stroke-width=".05"/><use transform="matrix(1 0 0 1 1038 1244) translate(17.47 15.28)" xlink:href="#aD"/><use transform="matrix(1 0 0 1 1038 1244) translate(59.48 15.28)" xlink:href="#aE"/><use transform="matrix(1 0 0 1 1038 1244) translate(.005 34.35)" xlink:href="#aF"/><use transform="matrix(1 0 0 1 1038 1244) translate(74.7 34.35)" xlink:href="#aG"/><path d="m717 1490c-7.2 0-13 5.82-13 13v39.04c0 7.18 5.8 13 13 13h168.8c7.2 0 13-5.82 13-13v-39.03c0-7.2-5.8-13-13-13z" fill="light-dark(#edf5ff, #001b3c)" stroke="var(--line)"/><use transform="matrix(1 0 0 1 712 1498) translate(30.92 20.45)" xlink:href="#aH"/><use transform="matrix(1 0 0 1 712 1498) translate(93.27 20.45)" xlink:href="#aI"/><use transform="matrix(1 0 0 1 712 1498) translate(2.675 43.27)" xlink:href="#fh"/><use transform="matrix(1 0 0 1 712 1498) translate(68.93 43.27)" xlink:href="#aJ"/><g stroke="var(--line)"><path d="m899.8 1523h12.67a5 5 0 0 1 5 5v115.9a1.78 1.78 0 0 0 1.78 1.78" fill="none"/><path d="m899.8 1523h-0.52v-0.95h0.52z" stroke-width=".05"/><path d="m934 1645-14.27 4.64v-9.27z"/><path d="m1348 1530v110.1a5 5 0 0 1-5 5h-237.7" fill="none"/><path d="m1348 1530h-0.95v-0.5h0.96z" stroke-width=".05"/><path d="m1090 1645 14.26-4.63v9.26z"/><path d="m1012 1679v80.92a5 5 0 0 1-5 5h-117.5" fill="none"/><path d="m1012 1679h-0.94v-0.5h0.95z" stroke-width=".05"/><path d="m874.8 1765 14.26-4.63v9.27zm47.6-792a2.95 2.95 0 0 1 2.95-2.95h81.52a2.95 2.95 0 0 1 2.95 2.95 2.95 2.95 0 0 1-2.96 2.95h-81.53a2.95 2.95 0 0 1-2.95-2.95z"/><path d="m1168 1024v-10.9a5 5 0 0 0-5-5h-170a5 5 0 0 1-5-5v-26.78" fill="none"/><path d="m1168 1039-4.64-14.27h9.27z"/><path d="M988.46 976.14h-.95v-.02h.96z" stroke-width=".05"/><path d="m801.4 1473v-452.6a5 5 0 0 1 5-5h132.9a5 5 0 0 0 5-5v-34.5" fill="none"/><path d="m801.4 1488-4.64-14.27h9.26z"/><path d="M944.75 976.14h-.95v-.02h.95z" stroke-width=".05"/></g><path d="m672.2 1563a8 8 0 0 1 8-8h190a8 8 0 0 1 8 8v41.6a8 8 0 0 1-8 8h-190a8 8 0 0 1-8-8z" fill="none"/><use transform="matrix(1 0 0 1 672.2 1555) translate(19.28 15.66)" xlink:href="#aK"/><use transform="matrix(1 0 0 1 672.2 1555) translate(74.33 15.66)" xlink:href="#aL"/><use transform="matrix(1 0 0 1 672.2 1555) translate(102.5 15.66)" xlink:href="#aM"/><use transform="matrix(1 0 0 1 672.2 1555) translate(165.2 15.66)" xlink:href="#aN"/><use transform="matrix(1 0 0 1 672.2 1555) translate(20.26 34.74)" xlink:href="#aO"/><use transform="matrix(1 0 0 1 672.2 1555) translate(61.74 34.74)" xlink:href="#aP"/><use transform="matrix(1 0 0 1 672.2 1555) translate(85.02 34.74)" xlink:href="#aQ"/><use transform="matrix(1 0 0 1 672.2 1555) translate(114.1 34.74)" xlink:href="#aR"/><use transform="matrix(1 0 0 1 672.2 1555) translate(159.6 34.74)" xlink:href="#aS"/><use transform="matrix(1 0 0 1 672.2 1555) translate(2.307 53.81)" xlink:href="#aT"/><use transform="matrix(1 0 0 1 672.2 1555) translate(43.18 53.81)" xlink:href="#aw"/><use transform="matrix(1 0 0 1 672.2 1555) translate(88.01 53.81)" xlink:href="#aU"/><use transform="matrix(1 0 0 1 672.2 1555) translate(139.6 53.81)" xlink:href="#ax"/><use transform="matrix(1 0 0 1 672.2 1555) translate(171.2 53.81)" xlink:href="#ay"/><path d="m827.8 562.6a8 8 0 0 1 8-8h609.6a8 8 0 0 1 8 8v94.83a8 8 0 0 1-8 8h-609.6a8 8 0 0 1-8-8z" fill="none"/><use transform="matrix(1 0 0 1 827.8 554.6) translate(93.73 39.93)" xlink:href="#aV"/><use transform="matrix(1 0 0 1 827.8 554.6) translate(140.2 39.93)" xlink:href="#aW"/><use transform="matrix(1 0 0 1 827.8 554.6) translate(179.7 39.93)" xlink:href="#aX"/><use transform="matrix(1 0 0 1 827.8 554.6) translate(205 39.93)" xlink:href="#aY"/><use transform="matrix(1 0 0 1 827.8 554.6) translate(252.6 39.93)" xlink:href="#aZ"/><use transform="matrix(1 0 0 1 827.8 554.6) translate(307 39.93)" xlink:href="#ba"/><use transform="matrix(1 0 0 1 827.8 554.6) translate(354.6 39.93)" xlink:href="#bb"/><use transform="matrix(1 0 0 1 827.8 554.6) translate(403.1 39.93)" xlink:href="#bc"/><use transform="matrix(1 0 0 1 827.8 554.6) translate(435.6 39.93)" xlink:href="#bd"/><use transform="matrix(1 0 0 1 827.8 554.6) translate(474 39.93)" xlink:href="#be"/><use transform="matrix(1 0 0 1 827.8 554.6) translate(546.3 39.93)" xlink:href="#bf"/><use transform="matrix(1 0 0 1 827.8 554.6) translate(569.5 39.93)" xlink:href="#bg"/><use transform="matrix(1 0 0 1 827.8 554.6) translate(10.01 62.19)" xlink:href="#bh"/><use transform="matrix(1 0 0 1 827.8 554.6) translate(104 62.19)" xlink:href="#bi"/><use transform="matrix(1 0 0 1 827.8 554.6) translate(147.3 62.19)" xlink:href="#bj"/><use transform="matrix(1 0 0 1 827.8 554.6) translate(180.5 62.19)" xlink:href="#bk"/><use transform="matrix(1 0 0 1 827.8 554.6) translate(240.6 62.19)" xlink:href="#bl"/><use transform="matrix(1 0 0 1 827.8 554.6) translate(266.4 62.19)" xlink:href="#bm"/><use transform="matrix(1 0 0 1 827.8 554.6) translate(293.5 62.19)" xlink:href="#bn"/><use transform="matrix(1 0 0 1 827.8 554.6) translate(340.1 62.19)" xlink:href="#bo"/><use transform="matrix(1 0 0 1 827.8 554.6) translate(406.6 62.19)" xlink:href="#bp"/><use transform="matrix(1 0 0 1 827.8 554.6) translate(495.9 62.19)" xlink:href="#bq"/><use transform="matrix(1 0 0 1 827.8 554.6) translate(534.5 62.19)" xlink:href="#br"/><use transform="matrix(1 0 0 1 827.8 554.6) translate(584 62.19)" xlink:href="#bs"/><use transform="matrix(1 0 0 1 827.8 554.6) translate(174 84.45)" xlink:href="#bt"/><use transform="matrix(1 0 0 1 827.8 554.6) translate(269.5 84.45)" xlink:href="#bu"/><use transform="matrix(1 0 0 1 827.8 554.6) translate(312.1 84.45)" xlink:href="#aX"/><use transform="matrix(1 0 0 1 827.8 554.6) translate(337.5 84.45)" xlink:href="#bv"/><use transform="matrix(1 0 0 1 827.8 554.6) translate(391.3 84.45)" xlink:href="#bw"/><use transform="matrix(1 0 0 1 827.8 554.6) translate(411.8 84.45)" xlink:href="#bx"/><use transform="matrix(1 0 0 1 827.8 554.6) translate(444.4 84.45)" xlink:href="#by"/><use transform="matrix(1 0 0 1 827.8 554.6) translate(518.2 84.45)" xlink:href="#bz"/><use transform="matrix(1 0 0 1 827.8 554.6) translate(592.7 84.45)" xlink:href="#bA"/><g stroke="var(--line)"><path d="m1344 1328a4.84 4.84 0 0 1 6.96 0l15.75 16.25a5.16 5.16 0 0 1 0 7.18l-15.74 16.26a4.84 4.84 0 0 1-6.96 0l-15.74-16.27a5.16 5.16 0 0 1 0-7.18z" fill="light-dark(#fff, #000)" stroke-width="4"/><path d="m1208 1424h17.08a5 5 0 0 1 5 5v66.96a5 5 0 0 0 5 5h1.2" fill="none"/><path d="m1208 1425h-0.5v-0.95h0.5z" stroke-width=".05"/><path d="m1251 1501-14.26 4.64v-9.27z"/></g><defs><style>svg { color-scheme: light dark; stroke: light-dark(#000, #fff); fill: light-dark(#000, #fff); --line: light-dark(#000, #fff); --gray-line: light-dark(#3a414a, #dbdee3); }</style><path id="bB" d="M659 0H135v-1490h529c448 0 721 280 721 744 0 466-273 746-726 746zM440-263h204c287 0 437-148 437-483 0-333-150-481-435-481H440v964"/><path id="bC" d="M633 22C291 22 81-200 81-553c0-345 210-579 537-579 292 0 525 185 525 567v84H378c7 183 109 277 260 277 105 0 184-46 216-132l272 51C1071-99 893 22 633 22zM380-669h474c-15-146-94-237-233-237-143 0-229 99-241 237"/><path id="bD" d="M443 0L31-1118h319c90 293 199 572 268 885 66-313 175-593 264-885h315L784 0H443"/><path id="bE" d="M428-1490V0H128v-1490h300"/><path id="bF" d="M628 22C291 22 81-210 81-554c0-346 210-578 547-578 336 0 547 232 547 578 0 344-211 576-547 576zm0-236c160 0 242-146 242-341 0-197-82-341-242-341S387-753 387-555c0 195 81 341 241 341"/><path id="bG" d="M128 418v-1536h295v188h14c41-89 129-202 319-202 248 0 453 193 453 575 0 372-197 576-455 576-183 0-275-108-317-198h-9v597H128zm534-640c156 0 240-139 240-336 0-196-83-334-240-334-154 0-241 131-241 334 0 202 88 336 241 336"/><path id="bH" d="M128 0v-1118h290v195h12c54-169 184-238 367-200v268c-27-8-86-15-130-15-138 0-239 95-239 234V0H128"/><g id="gc"><use transform="scale(.01119)" xlink:href="#bB"/><use transform="matrix(.01119 0 0 .01119 16.55 0)" xlink:href="#bC"/><use transform="matrix(.01119 0 0 .01119 29.79 0)" xlink:href="#bD"/><use transform="matrix(.01119 0 0 .01119 43.12 0)" xlink:href="#bC"/><use transform="matrix(.01119 0 0 .01119 56.77 0)" xlink:href="#bE"/><use transform="matrix(.01119 0 0 .01119 62.98 0)" xlink:href="#bF"/><use transform="matrix(.01119 0 0 .01119 77.03 0)" xlink:href="#bG"/><use transform="matrix(.01119 0 0 .01119 91.48 0)" xlink:href="#bC"/><use transform="matrix(.01119 0 0 .01119 105.1 0)" xlink:href="#bH"/></g><path id="bI" d="M440-1490V0H135v-1490h305"/><path id="bJ" d="M428-647V0H128v-1118h283l4 231c63-156 176-245 348-245 232 0 384 159 384 421V0H847v-659c0-139-76-222-202-222-128 0-217 86-217 234"/><path id="bK" d="M572 22C302 22 117-98 78-306l279-48c29 105 101 156 224 156 114 0 185-48 185-115 0-118-228-130-337-155-215-49-322-150-322-317 0-215 187-347 470-347 265 0 424 116 466 298l-266 47c-24-76-87-130-196-130-98 0-174 46-174 113 0 56 38 95 144 117l201 40c216 44 320 143 320 302 0 220-207 367-500 367"/><path id="bL" d="M683-1118v229H474v562c0 71 29 104 102 104 23 0 73-7 95-13l43 225C647 9 580 16 520 16 296 16 174-96 174-301v-588H20v-229h154v-266h300v266h209"/><path id="bM" d="M440 22C227 22 68-92 68-313c0-250 202-322 422-343 195-21 271-24 271-105 0-95-63-149-175-149-116 0-187 57-211 129l-275-46c57-194 237-305 487-305 240 0 474 108 474 379V0H777v-155h-10C713-51 605 22 440 22zm85-211c140 0 238-93 238-211v-121c-37 26-156 42-222 51-111 16-185 59-185 149 0 87 70 132 169 132"/><g id="gb"><use transform="scale(.01119)" xlink:href="#bI"/><use transform="matrix(.01119 0 0 .01119 6.434 0)" xlink:href="#bJ"/><use transform="matrix(.01119 0 0 .01119 20.7 0)" xlink:href="#bK"/><use transform="matrix(.01119 0 0 .01119 33.54 0)" xlink:href="#bL"/><use transform="matrix(.01119 0 0 .01119 42.04 0)" xlink:href="#bM"/><use transform="matrix(.01119 0 0 .01119 55.35 0)" xlink:href="#bE"/><use transform="matrix(.01119 0 0 .01119 61.56 0)" xlink:href="#bE"/><use transform="matrix(.01119 0 0 .01119 67.77 0)" xlink:href="#bC"/><use transform="matrix(.01119 0 0 .01119 81.42 0)" xlink:href="#bH"/></g><path id="bN" d="M818-733v240H140v-240h678"/><path id="bO" d="M128 0v-1118h300V0H128zm150-1264c-91 0-165-68-165-154 0-85 74-154 165-154 90 0 165 69 165 154 0 86-75 154-165 154"/><path id="bP" d="M128 0v-1118h278l12 217c60-163 185-234 319-234 143 0 236 81 288 251 63-172 205-251 359-251 205 0 357 138 357 381V0h-301v-697c0-126-76-187-177-187-114 0-184 79-184 196V0H789v-705c0-109-72-179-174-179-106 0-187 74-187 208V0H128"/><g id="ga"><use transform="scale(.01119)" xlink:href="#bI"/><use transform="matrix(.01119 0 0 .01119 6.434 0)" xlink:href="#bJ"/><use transform="matrix(.01119 0 0 .01119 20.7 0)" xlink:href="#bK"/><use transform="matrix(.01119 0 0 .01119 33.54 0)" xlink:href="#bL"/><use transform="matrix(.01119 0 0 .01119 42.04 0)" xlink:href="#bM"/><use transform="matrix(.01119 0 0 .01119 55.35 0)" xlink:href="#bE"/><use transform="matrix(.01119 0 0 .01119 61.56 0)" xlink:href="#bE"/><use transform="matrix(.01119 0 0 .01119 67.77 0)" xlink:href="#bN"/><use transform="matrix(.01119 0 0 .01119 78.49 0)" xlink:href="#bL"/><use transform="matrix(.01119 0 0 .01119 86.88 0)" xlink:href="#bO"/><use transform="matrix(.01119 0 0 .01119 93.09 0)" xlink:href="#bP"/><use transform="matrix(.01119 0 0 .01119 114 0)" xlink:href="#bC"/></g><path id="bQ" d="M537 19C279 19 81-185 81-557c0-382 206-575 454-575 190 0 278 113 318 202h10v-560h300V0H868v-179h-15C812-89 719 19 537 19zm92-241c153 0 240-134 240-336 0-203-86-334-240-334-158 0-240 138-240 334 0 197 84 336 240 336"/><g id="fz"><use transform="scale(.01119)" xlink:href="#bG"/><use transform="matrix(.01119 0 0 .01119 14.45 0)" xlink:href="#bH"/><use transform="matrix(.01119 0 0 .01119 23.22 0)" xlink:href="#bF"/><use transform="matrix(.01119 0 0 .01119 36.86 0)" xlink:href="#bD"/><use transform="matrix(.01119 0 0 .01119 50.6 0)" xlink:href="#bO"/><use transform="matrix(.01119 0 0 .01119 56.81 0)" xlink:href="#bQ"/><use transform="matrix(.01119 0 0 .01119 71.26 0)" xlink:href="#bC"/><use transform="matrix(.01119 0 0 .01119 84.91 0)" xlink:href="#bH"/><use transform="matrix(.01119 0 0 .01119 94.24 0)" xlink:href="#bK"/></g><path id="bR" d="M370-1490V0H180v-1490h190"/><path id="ec" d="M338-670V0H158v-1118h173l1 207c72-158 192-221 342-221 226 0 378 139 378 422V0H872v-695c0-172-96-275-252-275-161 0-282 109-282 300"/><path id="ef" d="M158 0v-1118h180V0H158zm91-1301c-68 0-125-53-125-119s57-119 125-119c69 0 126 53 126 119s-57 119-126 119"/><path id="eg" d="M598-1118v154H368v674c0 100 37 144 132 144 23 0 62-6 92-12L629-6c-37 13-88 20-134 20-193 0-307-107-307-290v-688H20v-154h168v-266h180v266h230"/><path id="ee" d="M471 26C259 26 90-98 90-318c0-256 228-303 435-329 202-27 287-16 287-108 0-139-79-219-234-219-161 0-248 86-283 164l-173-57c86-203 278-265 451-265 150 0 419 46 419 395V0H815v-152h-12C765-73 660 26 471 26zm31-159c199 0 310-134 310-271v-155c-30 35-226 55-295 64-131 17-246 59-246 186 0 116 97 176 231 176"/><path id="ea" d="M628 24c-324 0-524-230-524-574 0-343 198-582 503-582 237 0 487 146 487 559v75H286c9 234 145 362 343 362 132 0 231-58 273-172l174 48C1024-91 857 24 628 24zM287-650h624c-17-190-120-322-304-322-192 0-309 151-320 322"/><g id="fy"><use transform="scale(.009208)" xlink:href="#bR"/><use transform="matrix(.009208 0 0 .009208 5.064 0)" xlink:href="#ec"/><use transform="matrix(.009208 0 0 .009208 16.21 0)" xlink:href="#ef"/><use transform="matrix(.009208 0 0 .009208 20.77 0)" xlink:href="#eg"/><use transform="matrix(.009208 0 0 .009208 26.94 0)" xlink:href="#ef"/><use transform="matrix(.009208 0 0 .009208 31.51 0)" xlink:href="#ee"/><use transform="matrix(.009208 0 0 .009208 42.1 0)" xlink:href="#eg"/><use transform="matrix(.009208 0 0 .009208 48.08 0)" xlink:href="#ea"/></g><path id="eq" d="M158 418v-1536h174v179h20c37-59 106-193 324-193 279 0 474 222 474 576 0 356-194 580-473 580-213 0-288-135-325-197h-14v591H158zm492-555c209 0 317-186 317-421 0-232-105-413-317-413-206 0-314 166-314 413 0 249 111 421 314 421"/><path id="el" d="M613 24c-304 0-509-231-509-576 0-350 205-580 509-580 216 0 392 114 453 309l-173 49c-33-115-133-197-280-197-223 0-326 196-326 419 0 220 103 415 326 415 150 0 252-85 285-206l172 49C1010-95 832 24 613 24"/><path id="bZ" d="M158 0v-1490h180v865h22l478-493h223L593-638 1096 0H865L456-523 338-412V0H158"/><path id="ca" d="M611 442c-248 0-391-105-460-228l146-94c47 65 117 165 314 165 178 0 307-82 307-266v-224h-17C863-141 792-18 576-18c-268 0-472-195-472-546 0-346 197-568 476-568 216 0 288 133 326 193h17v-179h175V29c0 289-215 413-487 413zm-5-620c203 0 314-146 314-390 0-237-108-403-314-403-213 0-319 180-319 403 0 230 109 390 319 390"/><g id="fx"><use transform="scale(.009208)" xlink:href="#eq"/><use transform="matrix(.009208 0 0 .009208 11.73 0)" xlink:href="#ee"/><use transform="matrix(.009208 0 0 .009208 22.32 0)" xlink:href="#el"/><use transform="matrix(.009208 0 0 .009208 33.09 0)" xlink:href="#bZ"/><use transform="matrix(.009208 0 0 .009208 43.44 0)" xlink:href="#ee"/><use transform="matrix(.009208 0 0 .009208 54.03 0)" xlink:href="#ca"/><use transform="matrix(.009208 0 0 .009208 65.6 0)" xlink:href="#ea"/></g><path id="ed" d="M538 24C308 24 148-78 108-271l171-41c32 123 123 178 257 178 156 0 256-77 256-169 0-77-54-128-164-154l-186-44c-203-48-300-148-300-305 0-192 176-326 414-326 230 0 351 112 402 269l-163 42c-31-80-94-158-238-158-133 0-233 69-233 162 0 83 57 129 188 160l169 40c203 48 298 149 298 302 0 196-179 339-441 339"/><path id="ei" d="M338-1490V0H158v-1490h180"/><g id="fw"><use transform="scale(.009208)" xlink:href="#ef"/><use transform="matrix(.009208 0 0 .009208 4.567 0)" xlink:href="#ec"/><use transform="matrix(.009208 0 0 .009208 15.71 0)" xlink:href="#ed"/><use transform="matrix(.009208 0 0 .009208 25.66 0)" xlink:href="#eg"/><use transform="matrix(.009208 0 0 .009208 31.92 0)" xlink:href="#ee"/><use transform="matrix(.009208 0 0 .009208 42.51 0)" xlink:href="#ei"/><use transform="matrix(.009208 0 0 .009208 47.08 0)" xlink:href="#ei"/></g><path id="cd" d="M645 0H180v-1490h484c435 0 692 280 692 742 0 466-257 748-711 748zM370-168h263c363 0 539-218 539-580 0-358-176-574-521-574H370v1154"/><path id="eb" d="M158 0v-1118h174v172h12c41-113 157-188 290-188 26 0 70 2 91 3v181c-11-2-60-10-108-10-161 0-279 109-279 260V0H158"/><path id="ey" d="M158 0v-1118h175l1 205c55-151 181-225 313-225 147 0 245 90 285 228 53-141 190-228 352-228 194 0 352 125 352 384V0h-181v-749c0-161-105-225-225-225-151 0-243 103-243 244V0H807v-767c0-124-93-207-219-207-131 0-250 92-250 270V0H158"/><g id="fv"><use transform="scale(.009208)" xlink:href="#cd"/><use transform="matrix(.009208 0 0 .009208 13.61 0)" xlink:href="#ea"/><use transform="matrix(.009208 0 0 .009208 24.6 0)" xlink:href="#eg"/><use transform="matrix(.009208 0 0 .009208 30.59 0)" xlink:href="#ea"/><use transform="matrix(.009208 0 0 .009208 41.58 0)" xlink:href="#eb"/><use transform="matrix(.009208 0 0 .009208 48.98 0)" xlink:href="#ey"/><use transform="matrix(.009208 0 0 .009208 65.5 0)" xlink:href="#ef"/><use transform="matrix(.009208 0 0 .009208 70.06 0)" xlink:href="#ec"/><use transform="matrix(.009208 0 0 .009208 81.2 0)" xlink:href="#ea"/></g><path id="ev" d="M678-1118v154H420V0H240v-964H20v-154h220v-149c0-194 155-293 318-293 85 0 141 18 168 30l-50 154c-19-6-47-17-97-17-111 0-159 58-159 166v109h258"/><g id="fu"><use transform="scale(.009208)" xlink:href="#ef"/><use transform="matrix(.009208 0 0 .009208 4.567 0)" xlink:href="#ev"/></g><g id="ft"><use transform="scale(.009208)" xlink:href="#eb"/><use transform="matrix(.009208 0 0 .009208 6.786 0)" xlink:href="#ea"/><use transform="matrix(.009208 0 0 .009208 17.78 0)" xlink:href="#ei"/><use transform="matrix(.009208 0 0 .009208 22.35 0)" xlink:href="#ea"/><use transform="matrix(.009208 0 0 .009208 33.53 0)" xlink:href="#ee"/><use transform="matrix(.009208 0 0 .009208 44.11 0)" xlink:href="#ed"/><use transform="matrix(.009208 0 0 .009208 54.07 0)" xlink:href="#ea"/></g><path id="ch" d="M338-670V0H158v-1490h180v566c73-149 190-208 336-208 226 0 379 139 379 422V0H872v-695c0-172-96-275-252-275-161 0-282 109-282 300"/><g id="fs"><use transform="scale(.009208)" xlink:href="#ch"/><use transform="matrix(.009208 0 0 .009208 11.15 0)" xlink:href="#ee"/><use transform="matrix(.009208 0 0 .009208 21.74 0)" xlink:href="#ed"/></g><path id="ej" d="M481 0L54-1118h197c107 314 236 620 325 951 87-331 217-637 324-951h197L670 0H481"/><g id="fh"><use transform="scale(.009208)" xlink:href="#ej"/><use transform="matrix(.009208 0 0 .009208 10.51 0)" xlink:href="#ee"/><use transform="matrix(.009208 0 0 .009208 21.1 0)" xlink:href="#eb"/><use transform="matrix(.009208 0 0 .009208 28.49 0)" xlink:href="#ef"/><use transform="matrix(.009208 0 0 .009208 33.06 0)" xlink:href="#ee"/><use transform="matrix(.009208 0 0 .009208 43.65 0)" xlink:href="#ec"/><use transform="matrix(.009208 0 0 .009208 54.79 0)" xlink:href="#eg"/></g><path id="cj" d="M409 0L70-1118h191c89 329 165 560 243 925 75-353 154-601 240-925h192c85 325 161 564 235 922 77-354 157-598 244-922h191L1267 0h-179c-86-307-176-590-250-913C763-588 675-308 588 0H409"/><g id="fr"><use transform="scale(.009208)" xlink:href="#cj"/><use transform="matrix(.009208 0 0 .009208 15.43 0)" xlink:href="#ch"/><use transform="matrix(.009208 0 0 .009208 26.58 0)" xlink:href="#ea"/><use transform="matrix(.009208 0 0 .009208 37.58 0)" xlink:href="#ea"/><use transform="matrix(.009208 0 0 .009208 48.57 0)" xlink:href="#ei"/><use transform="matrix(.009208 0 0 .009208 53.14 0)" xlink:href="#ed"/></g><g id="fq"><use transform="scale(.009208)" xlink:href="#bR"/><use transform="matrix(.009208 0 0 .009208 5.064 0)" xlink:href="#ev"/></g><path id="eh" d="m613 24c-304 0-509-231-509-576 0-350 205-580 509-580 305 0 511 230 511 580 0 345-206 576-511 576zm0-161c226 0 329-195 329-415 0-222-103-419-329-419-223 0-326 196-326 419 0 220 103 415 326 415"/><g id="fp"><use transform="scale(.009208)" xlink:href="#ec"/><use transform="matrix(.009208 0 0 .009208 11.14 0)" xlink:href="#eh"/><use transform="matrix(.009208 0 0 .009208 22.45 0)" xlink:href="#eg"/></g><g id="fo"><use transform="scale(.009208)" xlink:href="#eq"/><use transform="matrix(.009208 0 0 .009208 11.55 0)" xlink:href="#eb"/><use transform="matrix(.009208 0 0 .009208 18.33 0)" xlink:href="#ea"/><use transform="matrix(.009208 0 0 .009208 29.33 0)" xlink:href="#ed"/><use transform="matrix(.009208 0 0 .009208 39.28 0)" xlink:href="#ea"/><use transform="matrix(.009208 0 0 .009208 50.27 0)" xlink:href="#ec"/><use transform="matrix(.009208 0 0 .009208 61.42 0)" xlink:href="#eg"/></g><g id="fn"><use transform="scale(.009208)" xlink:href="#ef"/><use transform="matrix(.009208 0 0 .009208 4.567 0)" xlink:href="#ec"/></g><path id="cl" d="M128 359l88-567h206L266 359H128"/><g id="fm"><use transform="scale(.009208)" xlink:href="#ea"/><use transform="matrix(.009208 0 0 .009208 10.99 0)" xlink:href="#ec"/><use transform="matrix(.009208 0 0 .009208 21.86 0)" xlink:href="#ej"/><use transform="matrix(.009208 0 0 .009208 31.63 0)" xlink:href="#cl"/></g><g id="fl"><use transform="scale(.009208)" xlink:href="#ef"/><use transform="matrix(.009208 0 0 .009208 4.567 0)" xlink:href="#ec"/><use transform="matrix(.009208 0 0 .009208 15.71 0)" xlink:href="#ed"/><use transform="matrix(.009208 0 0 .009208 25.66 0)" xlink:href="#eg"/><use transform="matrix(.009208 0 0 .009208 31.92 0)" xlink:href="#ee"/><use transform="matrix(.009208 0 0 .009208 42.51 0)" xlink:href="#ei"/><use transform="matrix(.009208 0 0 .009208 47.08 0)" xlink:href="#ei"/></g><path id="eo" d="M577 24c-279 0-473-224-473-580 0-354 195-576 474-576 218 0 287 134 324 193h14v-551h180V0H922v-173h-20C865-111 790 24 577 24zm27-161c203 0 314-172 314-421 0-247-108-413-314-413-212 0-317 181-317 413 0 235 108 421 317 421"/><g id="fg"><use transform="scale(.009208)" xlink:href="#eq"/><use transform="matrix(.009208 0 0 .009208 11.55 0)" xlink:href="#eb"/><use transform="matrix(.009208 0 0 .009208 18.33 0)" xlink:href="#eh"/><use transform="matrix(.009208 0 0 .009208 29.27 0)" xlink:href="#ej"/><use transform="matrix(.009208 0 0 .009208 39.87 0)" xlink:href="#ef"/><use transform="matrix(.009208 0 0 .009208 44.44 0)" xlink:href="#eo"/><use transform="matrix(.009208 0 0 .009208 55.98 0)" xlink:href="#ea"/><use transform="matrix(.009208 0 0 .009208 66.98 0)" xlink:href="#eb"/><use transform="matrix(.009208 0 0 .009208 74.08 0)" xlink:href="#ed"/></g><path id="cn" d="M180 0v-1490h901v168H370v510h643v168H370V0H180"/><g id="ff"><use transform="scale(.009208)" xlink:href="#cn"/><use transform="matrix(.009208 0 0 .009208 11.13 0)" xlink:href="#ef"/><use transform="matrix(.009208 0 0 .009208 15.7 0)" xlink:href="#ei"/><use transform="matrix(.009208 0 0 .009208 20.54 0)" xlink:href="#eg"/><use transform="matrix(.009208 0 0 .009208 26.53 0)" xlink:href="#ea"/><use transform="matrix(.009208 0 0 .009208 37.52 0)" xlink:href="#eb"/></g><path id="co" d="M580 20c-295 0-476-179-476-409 0-189 123-290 294-416-104-125-173-226-173-362 0-197 144-337 365-337 224 0 362 144 362 321 0 185-174 312-306 405l319 387c38-75 61-165 61-267h173c0 208-62 332-120 406L1287 0h-217L967-124C868-27 716 20 580 20zm279-273L507-675l-51 38c-123 91-167 162-167 254 0 147 113 246 278 246 107 0 210-41 292-116zM538-908l97-72c54-40 136-101 136-206 0-95-68-163-176-163-113 0-189 74-189 181 0 90 53 164 132 260"/><use id="fe" transform="scale(.009208)" xlink:href="#co"/><g id="fd"><use transform="scale(.009208)" xlink:href="#eh"/><use transform="matrix(.009208 0 0 .009208 11.31 0)" xlink:href="#eb"/><use transform="matrix(.009208 0 0 .009208 18.09 0)" xlink:href="#eo"/><use transform="matrix(.009208 0 0 .009208 29.64 0)" xlink:href="#ea"/><use transform="matrix(.009208 0 0 .009208 40.63 0)" xlink:href="#eb"/></g><path id="ex" d="M537 14c-226 0-379-139-379-422v-710h180v695c0 172 97 275 253 275 160 0 281-109 281-300v-670h181V0H879v-209C806-46 684 14 537 14"/><g id="fc"><use transform="scale(.009208)" xlink:href="#ed"/><use transform="matrix(.009208 0 0 .009208 9.954 0)" xlink:href="#ex"/><use transform="matrix(.009208 0 0 .009208 21.1 0)" xlink:href="#eq"/><use transform="matrix(.009208 0 0 .009208 32.65 0)" xlink:href="#eq"/><use transform="matrix(.009208 0 0 .009208 44.2 0)" xlink:href="#eh"/><use transform="matrix(.009208 0 0 .009208 55.5 0)" xlink:href="#eb"/><use transform="matrix(.009208 0 0 .009208 62.9 0)" xlink:href="#eg"/><use transform="matrix(.009208 0 0 .009208 68.88 0)" xlink:href="#ea"/><use transform="matrix(.009208 0 0 .009208 79.88 0)" xlink:href="#eo"/></g><g id="fb"><use transform="scale(.009208)" xlink:href="#el"/><use transform="matrix(.009208 0 0 .009208 10.77 0)" xlink:href="#eh"/><use transform="matrix(.009208 0 0 .009208 22.08 0)" xlink:href="#ec"/><use transform="matrix(.009208 0 0 .009208 33.22 0)" xlink:href="#ev"/><use transform="matrix(.009208 0 0 .009208 40.2 0)" xlink:href="#ef"/><use transform="matrix(.009208 0 0 .009208 44.77 0)" xlink:href="#ca"/><use transform="matrix(.009208 0 0 .009208 56.33 0)" xlink:href="#ed"/></g><g id="fa"><use transform="scale(.009208)" xlink:href="#ev"/><use transform="matrix(.009208 0 0 .009208 6.427 0)" xlink:href="#eh"/><use transform="matrix(.009208 0 0 .009208 17.73 0)" xlink:href="#eb"/></g><g id="fk"><use transform="scale(.009208)" xlink:href="#el"/><use transform="matrix(.009208 0 0 .009208 10.77 0)" xlink:href="#ex"/><use transform="matrix(.009208 0 0 .009208 21.92 0)" xlink:href="#eb"/><use transform="matrix(.009208 0 0 .009208 29.32 0)" xlink:href="#eb"/><use transform="matrix(.009208 0 0 .009208 36.1 0)" xlink:href="#ea"/><use transform="matrix(.009208 0 0 .009208 47.1 0)" xlink:href="#ec"/><use transform="matrix(.009208 0 0 .009208 58.24 0)" xlink:href="#eg"/></g><g id="fj"><use transform="scale(.009208)" xlink:href="#ea"/><use transform="matrix(.009208 0 0 .009208 10.99 0)" xlink:href="#ec"/><use transform="matrix(.009208 0 0 .009208 21.86 0)" xlink:href="#ej"/></g><g id="gz"><use transform="scale(.008354)" xlink:href="#ec"/><use transform="matrix(.008354 0 0 .008354 10.11 0)" xlink:href="#eh"/></g><g id="gy"><use transform="scale(.008354)" xlink:href="#ej"/><use transform="matrix(.008354 0 0 .008354 9.531 0)" xlink:href="#ee"/><use transform="matrix(.008354 0 0 .008354 19.14 0)" xlink:href="#eb"/><use transform="matrix(.008354 0 0 .008354 25.85 0)" xlink:href="#ef"/><use transform="matrix(.008354 0 0 .008354 29.99 0)" xlink:href="#ee"/><use transform="matrix(.008354 0 0 .008354 39.6 0)" xlink:href="#ec"/><use transform="matrix(.008354 0 0 .008354 49.7 0)" xlink:href="#eg"/></g><g id="gx"><use transform="scale(.008354)" xlink:href="#cj"/><use transform="matrix(.008354 0 0 .008354 14 0)" xlink:href="#ch"/><use transform="matrix(.008354 0 0 .008354 24.12 0)" xlink:href="#ea"/><use transform="matrix(.008354 0 0 .008354 34.09 0)" xlink:href="#ea"/><use transform="matrix(.008354 0 0 .008354 44.06 0)" xlink:href="#ei"/><use transform="matrix(.008354 0 0 .008354 48.21 0)" xlink:href="#ed"/></g><g id="gw"><use transform="scale(.009208)" xlink:href="#bR"/><use transform="matrix(.009208 0 0 .009208 5.064 0)" xlink:href="#ec"/><use transform="matrix(.009208 0 0 .009208 16.21 0)" xlink:href="#ed"/><use transform="matrix(.009208 0 0 .009208 26.16 0)" xlink:href="#eg"/><use transform="matrix(.009208 0 0 .009208 32.42 0)" xlink:href="#ee"/><use transform="matrix(.009208 0 0 .009208 43.01 0)" xlink:href="#ei"/><use transform="matrix(.009208 0 0 .009208 47.58 0)" xlink:href="#ei"/></g><g id="gv"><use transform="scale(.009208)" xlink:href="#eq"/><use transform="matrix(.009208 0 0 .009208 11.73 0)" xlink:href="#ee"/><use transform="matrix(.009208 0 0 .009208 22.32 0)" xlink:href="#el"/><use transform="matrix(.009208 0 0 .009208 33.09 0)" xlink:href="#bZ"/><use transform="matrix(.009208 0 0 .009208 43.44 0)" xlink:href="#ee"/><use transform="matrix(.009208 0 0 .009208 54.03 0)" xlink:href="#ca"/><use transform="matrix(.009208 0 0 .009208 65.6 0)" xlink:href="#ea"/></g><g id="gu"><use transform="scale(.009208)" xlink:href="#cd"/><use transform="matrix(.009208 0 0 .009208 13.61 0)" xlink:href="#ea"/><use transform="matrix(.009208 0 0 .009208 24.6 0)" xlink:href="#eg"/><use transform="matrix(.009208 0 0 .009208 30.59 0)" xlink:href="#ea"/><use transform="matrix(.009208 0 0 .009208 41.58 0)" xlink:href="#eb"/><use transform="matrix(.009208 0 0 .009208 48.98 0)" xlink:href="#ey"/><use transform="matrix(.009208 0 0 .009208 65.5 0)" xlink:href="#ef"/><use transform="matrix(.009208 0 0 .009208 70.06 0)" xlink:href="#ec"/><use transform="matrix(.009208 0 0 .009208 81.2 0)" xlink:href="#ea"/></g><g id="gt"><use transform="scale(.009208)" xlink:href="#eh"/><use transform="matrix(.009208 0 0 .009208 11.31 0)" xlink:href="#eq"/><use transform="matrix(.009208 0 0 .009208 22.85 0)" xlink:href="#eg"/><use transform="matrix(.009208 0 0 .009208 29.02 0)" xlink:href="#ef"/><use transform="matrix(.009208 0 0 .009208 33.59 0)" xlink:href="#ey"/><use transform="matrix(.009208 0 0 .009208 50.11 0)" xlink:href="#ee"/><use transform="matrix(.009208 0 0 .009208 60.7 0)" xlink:href="#ei"/></g><g id="gs"><use transform="scale(.009208)" xlink:href="#ej"/><use transform="matrix(.009208 0 0 .009208 10.51 0)" xlink:href="#ee"/><use transform="matrix(.009208 0 0 .009208 21.1 0)" xlink:href="#eb"/><use transform="matrix(.009208 0 0 .009208 28.49 0)" xlink:href="#ef"/><use transform="matrix(.009208 0 0 .009208 33.06 0)" xlink:href="#ee"/><use transform="matrix(.009208 0 0 .009208 43.65 0)" xlink:href="#ec"/><use transform="matrix(.009208 0 0 .009208 54.79 0)" xlink:href="#eg"/></g><path id="cq" d="M180 0v-1490h510c348 0 508 194 508 460 0 198-88 351-276 417L1256 0h-220L726-579c-117 2-238 0-356 1V0H180zm190-747h312c235 0 327-108 327-283 0-177-92-293-329-293H370v576"/><g id="gr"><use transform="scale(.009208)" xlink:href="#cq"/><use transform="matrix(.009208 0 0 .009208 11.86 0)" xlink:href="#ea"/><use transform="matrix(.009208 0 0 .009208 22.85 0)" xlink:href="#eq"/><use transform="matrix(.009208 0 0 .009208 34.4 0)" xlink:href="#eh"/><use transform="matrix(.009208 0 0 .009208 45.71 0)" xlink:href="#eb"/><use transform="matrix(.009208 0 0 .009208 53.1 0)" xlink:href="#eg"/></g><g id="gq"><use transform="scale(.009208)" xlink:href="#ed"/><use transform="matrix(.009208 0 0 .009208 9.954 0)" xlink:href="#ex"/><use transform="matrix(.009208 0 0 .009208 21.1 0)" xlink:href="#el"/><use transform="matrix(.009208 0 0 .009208 31.88 0)" xlink:href="#el"/><use transform="matrix(.009208 0 0 .009208 42.65 0)" xlink:href="#ea"/><use transform="matrix(.009208 0 0 .009208 53.64 0)" xlink:href="#ed"/><use transform="matrix(.009208 0 0 .009208 63.6 0)" xlink:href="#ed"/></g><path id="cr" d="M440-1490V0H135v-1490h305" fill="var(--gray-line)"/><path id="cs" d="M428-647V0H128v-1118h283l4 231c63-156 176-245 348-245 232 0 384 159 384 421V0H847v-659c0-139-76-222-202-222-128 0-217 86-217 234" fill="var(--gray-line)"/><path id="ct" d="M572 22C302 22 117-98 78-306l279-48c29 105 101 156 224 156 114 0 185-48 185-115 0-118-228-130-337-155-215-49-322-150-322-317 0-215 187-347 470-347 265 0 424 116 466 298l-266 47c-24-76-87-130-196-130-98 0-174 46-174 113 0 56 38 95 144 117l201 40c216 44 320 143 320 302 0 220-207 367-500 367" fill="var(--gray-line)"/><path id="cu" d="M683-1118v229H474v562c0 71 29 104 102 104 23 0 73-7 95-13l43 225C647 9 580 16 520 16 296 16 174-96 174-301v-588H20v-229h154v-266h300v266h209" fill="var(--gray-line)"/><path id="ez" d="M440 22C227 22 68-92 68-313c0-250 202-322 422-343 195-21 271-24 271-105 0-95-63-149-175-149-116 0-187 57-211 129l-275-46c57-194 237-305 487-305 240 0 474 108 474 379V0H777v-155h-10C713-51 605 22 440 22zm85-211c140 0 238-93 238-211v-121c-37 26-156 42-222 51-111 16-185 59-185 149 0 87 70 132 169 132" fill="var(--gray-line)"/><path id="cw" d="M428-1490V0H128v-1490h300" fill="var(--gray-line)"/><path id="cx" d="M128 0v-1118h300V0H128zm150-1264c-91 0-165-68-165-154 0-85 74-154 165-154 90 0 165 69 165 154 0 86-75 154-165 154" fill="var(--gray-line)"/><path id="cy" d="M625 442c-280 0-454-114-503-274l258-72c28 63 97 128 243 128 153 0 246-69 246-216v-206h-23C805-108 717-16 536-16 284-16 81-191 81-561c0-378 208-571 456-571 188 0 280 113 321 202h13v-188h295V-9c0 303-226 451-541 451zm5-686c153 0 240-119 240-319 0-198-86-329-240-329-158 0-241 137-241 329 0 195 85 319 241 319" fill="var(--gray-line)"/><g id="gp"><use transform="scale(.0128)" xlink:href="#cr"/><use transform="matrix(.0128 0 0 .0128 7.362 0)" xlink:href="#cs"/><use transform="matrix(.0128 0 0 .0128 23.69 0)" xlink:href="#ct"/><use transform="matrix(.0128 0 0 .0128 38.37 0)" xlink:href="#cu"/><use transform="matrix(.0128 0 0 .0128 48.1 0)" xlink:href="#ez"/><use transform="matrix(.0128 0 0 .0128 63.33 0)" xlink:href="#cw"/><use transform="matrix(.0128 0 0 .0128 70.43 0)" xlink:href="#cw"/><use transform="matrix(.0128 0 0 .0128 77.54 0)" xlink:href="#cx"/><use transform="matrix(.0128 0 0 .0128 84.65 0)" xlink:href="#cs"/><use transform="matrix(.0128 0 0 .0128 101 0)" xlink:href="#cy"/></g><use id="go" transform="scale(.0128)" xlink:href="#ez"/><path id="cz" d="M128 418v-1536h295v188h14c41-89 129-202 319-202 248 0 453 193 453 575 0 372-197 576-455 576-183 0-275-108-317-198h-9v597H128zm534-640c156 0 240-139 240-336 0-196-83-334-240-334-154 0-241 131-241 334 0 202 88 336 241 336" fill="var(--gray-line)"/><path id="cA" d="M628 22C291 22 81-210 81-554c0-346 210-578 547-578 265 0 455 142 497 372l-279 52c-25-116-99-188-215-188-160 0-244 139-244 341 0 200 84 341 244 341 116 0 193-74 217-195l279 51C1085-123 896 22 628 22" fill="var(--gray-line)"/><path id="cB" d="M128 0v-1490h300v802h17l366-430h347L740-633 1179 0H826L514-456l-86 97V0H128" fill="var(--gray-line)"/><path id="cC" d="M633 22C291 22 81-200 81-553c0-345 210-579 537-579 292 0 525 185 525 567v84H378c7 183 109 277 260 277 105 0 184-46 216-132l272 51C1071-99 893 22 633 22zM380-669h474c-15-146-94-237-233-237-143 0-229 99-241 237" fill="var(--gray-line)"/><g id="gn"><use transform="scale(.0128)" xlink:href="#cz"/><use transform="matrix(.0128 0 0 .0128 16.79 0)" xlink:href="#ez"/><use transform="matrix(.0128 0 0 .0128 32.01 0)" xlink:href="#cA"/><use transform="matrix(.0128 0 0 .0128 47.44 0)" xlink:href="#cB"/><use transform="matrix(.0128 0 0 .0128 62.65 0)" xlink:href="#ez"/><use transform="matrix(.0128 0 0 .0128 77.87 0)" xlink:href="#cy"/><use transform="matrix(.0128 0 0 .0128 94.44 0)" xlink:href="#cC"/></g><path id="cD" d="M513 14c-232 0-385-159-385-421v-711h300v659c0 139 76 222 202 222 127 0 217-86 217-234v-647h301V0H864l-4-232C797-74 683 14 513 14" fill="var(--gray-line)"/><path id="cE" d="M537 19C279 19 81-185 81-557c0-382 206-575 454-575 190 0 278 113 318 202h10v-560h300V0H868v-179h-15C812-89 719 19 537 19zm92-241c153 0 240-134 240-336 0-203-86-334-240-334-158 0-240 138-240 334 0 197 84 336 240 336" fill="var(--gray-line)"/><g id="gm"><use transform="scale(.0128)" xlink:href="#cx"/><use transform="matrix(.0128 0 0 .0128 7.106 0)" xlink:href="#cs"/><use transform="matrix(.0128 0 0 .0128 23.43 0)" xlink:href="#cA"/><use transform="matrix(.0128 0 0 .0128 38.86 0)" xlink:href="#cw"/><use transform="matrix(.0128 0 0 .0128 45.97 0)" xlink:href="#cD"/><use transform="matrix(.0128 0 0 .0128 62.29 0)" xlink:href="#cE"/><use transform="matrix(.0128 0 0 .0128 78.82 0)" xlink:href="#cx"/><use transform="matrix(.0128 0 0 .0128 85.93 0)" xlink:href="#cs"/><use transform="matrix(.0128 0 0 .0128 102.3 0)" xlink:href="#cy"/></g><path id="cF" d="M443 0L31-1118h319c90 293 199 572 268 885 66-313 175-593 264-885h315L784 0H443" fill="var(--gray-line)"/><path id="cG" d="M128 0v-1118h290v195h12c54-169 184-238 367-200v268c-27-8-86-15-130-15-138 0-239 95-239 234V0H128" fill="var(--gray-line)"/><g id="gl"><use transform="scale(.0128)" xlink:href="#cF"/><use transform="matrix(.0128 0 0 .0128 15.47 0)" xlink:href="#ez"/><use transform="matrix(.0128 0 0 .0128 30.69 0)" xlink:href="#cG"/><use transform="matrix(.0128 0 0 .0128 41.56 0)" xlink:href="#cx"/><use transform="matrix(.0128 0 0 .0128 48.67 0)" xlink:href="#ez"/><use transform="matrix(.0128 0 0 .0128 63.89 0)" xlink:href="#cs"/><use transform="matrix(.0128 0 0 .0128 80.22 0)" xlink:href="#cu"/></g><path id="cH" d="M361 0L31-1118h315c68 295 127 523 188 845 63-317 128-551 199-845h276c71 296 131 525 196 846 57-321 119-552 186-846h319L1378 0h-305c-73-261-148-486-204-771C813-484 740-261 666 0H361" fill="var(--gray-line)"/><path id="cI" d="M428-647V0H128v-1490h294v586c65-146 175-228 341-228 232 0 385 159 385 421V0H847v-659c0-139-76-222-202-222-128 0-217 86-217 234" fill="var(--gray-line)"/><g id="gk"><use transform="scale(.0128)" xlink:href="#cH"/><use transform="matrix(.0128 0 0 .0128 22.29 0)" xlink:href="#cI"/><use transform="matrix(.0128 0 0 .0128 38.62 0)" xlink:href="#cC"/><use transform="matrix(.0128 0 0 .0128 54.24 0)" xlink:href="#cC"/><use transform="matrix(.0128 0 0 .0128 69.86 0)" xlink:href="#cw"/></g><g id="gj"><use transform="scale(.0128)" xlink:href="#cI"/><use transform="matrix(.0128 0 0 .0128 16.32 0)" xlink:href="#ez"/><use transform="matrix(.0128 0 0 .0128 31.55 0)" xlink:href="#cs"/><use transform="matrix(.0128 0 0 .0128 47.87 0)" xlink:href="#cE"/><use transform="matrix(.0128 0 0 .0128 64.4 0)" xlink:href="#cw"/><use transform="matrix(.0128 0 0 .0128 71.51 0)" xlink:href="#cx"/><use transform="matrix(.0128 0 0 .0128 78.62 0)" xlink:href="#cs"/><use transform="matrix(.0128 0 0 .0128 94.94 0)" xlink:href="#cy"/></g><path id="cJ" d="M784 20c-382 0-662-292-662-764 0-473 280-766 662-766s660 293 660 766c0 282-99 499-260 629l192 255h-198L1049-33C969 2 880 20 784 20zm-62-486h198l156 205c112-98 183-261 183-483 0-383-209-590-475-590-268 0-477 208-477 590 0 380 209 588 477 588 54 0 106-9 154-25"/><path id="cK" d="M140 405l46-156c120 36 205 19 263-150l32-93L54-1118h197c107 313 237 620 324 950 87-331 219-637 326-950h196L606 167c-68 178-176 259-334 259-64 0-113-12-132-21"/><g id="gi"><use transform="scale(.009208)" xlink:href="#cJ"/><use transform="matrix(.009208 0 0 .009208 14.42 0)" xlink:href="#ex"/><use transform="matrix(.009208 0 0 .009208 25.57 0)" xlink:href="#ea"/><use transform="matrix(.009208 0 0 .009208 36.56 0)" xlink:href="#eb"/><use transform="matrix(.009208 0 0 .009208 43.96 0)" xlink:href="#cK"/></g><path id="cL" d="M798-719v166H144v-166h654"/><g id="gh"><use transform="scale(.009208)" xlink:href="#ef"/><use transform="matrix(.009208 0 0 .009208 4.567 0)" xlink:href="#ec"/><use transform="matrix(.009208 0 0 .009208 15.71 0)" xlink:href="#ed"/><use transform="matrix(.009208 0 0 .009208 25.66 0)" xlink:href="#eg"/><use transform="matrix(.009208 0 0 .009208 31.92 0)" xlink:href="#ee"/><use transform="matrix(.009208 0 0 .009208 42.51 0)" xlink:href="#ei"/><use transform="matrix(.009208 0 0 .009208 47.08 0)" xlink:href="#ei"/><use transform="matrix(.009208 0 0 .009208 51.65 0)" xlink:href="#cL"/><use transform="matrix(.009208 0 0 .009208 60.32 0)" xlink:href="#eg"/><use transform="matrix(.009208 0 0 .009208 66.49 0)" xlink:href="#ef"/><use transform="matrix(.009208 0 0 .009208 71.06 0)" xlink:href="#ey"/><use transform="matrix(.009208 0 0 .009208 87.58 0)" xlink:href="#ea"/></g><path id="cM" d="M87 0l247-1490h510c346 0 473 206 430 472s-238 479-586 479H366L277 0H87zm307-706h312c241 0 351-138 379-311s-39-306-279-306H496"/><path id="et" d="M66 0l185-1118h174l-28 172h12c78-136 219-209 411-185l-30 181c-211-47-398 67-428 250L246 0H66"/><path id="es" d="M528 24C258 24 94-156 94-433c0-355 229-699 603-699 270 0 436 178 436 458 0 359-234 698-605 698zm4-161c275 0 420-287 420-533 0-170-77-301-260-301-271 0-418 288-418 536 0 168 77 298 258 298"/><path id="cP" d="M389 0L147-1118h188c55 314 135 617 168 951 141-329 323-637 482-951h205L578 0H389"/><path id="ep" d="M66 0l185-1118h180L246 0H66zm307-1301c-71 0-117-55-106-119s74-119 145-119c65 0 117 50 106 118s-78 120-145 120"/><path id="cR" d="M492 24C248 24 94-147 94-425c0-352 212-707 569-707 222 0 274 136 303 198h12l92-556h181L1004 0H829l30-173h-19C792-103 700 24 492 24zm32-161c268 0 407-295 407-549 0-175-80-285-247-285-266 0-408 283-408 536 0 174 79 298 248 298"/><path id="ek" d="M535 24C259 24 94-144 94-427c0-392 272-715 610-715 216 0 356 119 356 305 0 244-237 344-790 350-18 199 49 349 276 352 142 0 260-66 317-173l167 47C947-85 756 24 535 24zM294-623c447-4 586-57 586-218 0-85-78-141-194-141-220 0-342 177-392 359"/><g id="fi"><use transform="scale(.008982)" xlink:href="#cM"/><use transform="matrix(.008982 0 0 .008982 11.75 0)" xlink:href="#et"/><use transform="matrix(.008982 0 0 .008982 18.38 0)" xlink:href="#es"/><use transform="matrix(.008982 0 0 .008982 29.06 0)" xlink:href="#cP"/><use transform="matrix(.008982 0 0 .008982 39.4 0)" xlink:href="#ep"/><use transform="matrix(.008982 0 0 .008982 43.86 0)" xlink:href="#cR"/><use transform="matrix(.008982 0 0 .008982 55.13 0)" xlink:href="#ek"/><use transform="matrix(.008982 0 0 .008982 65.72 0)" xlink:href="#et"/></g><path id="cT" d="M808-1490L561 0H375l218-1314h-10l-405 267 34-204 364-239h232"/><use id="gg" transform="scale(.008982)" xlink:href="#cT"/><path id="cU" d="M61 0l23-137 583-537c198-182 297-283 319-421 25-157-68-250-224-250-169 0-311 109-339 278H242c44-263 264-443 530-443 267 0 433 185 393 418-28 164-126 293-428 566L353-179l-2 12h686L1010 0H61"/><use id="gf" transform="scale(.008982)" xlink:href="#cU"/><g id="ge"><use transform="scale(.009208)" xlink:href="#cq"/><use transform="matrix(.009208 0 0 .009208 11.86 0)" xlink:href="#ea"/><use transform="matrix(.009208 0 0 .009208 22.85 0)" xlink:href="#ed"/><use transform="matrix(.009208 0 0 .009208 32.81 0)" xlink:href="#eh"/><use transform="matrix(.009208 0 0 .009208 44.11 0)" xlink:href="#ei"/><use transform="matrix(.009208 0 0 .009208 48.77 0)" xlink:href="#ej"/><use transform="matrix(.009208 0 0 .009208 59 0)" xlink:href="#ea"/><use transform="matrix(.009208 0 0 .009208 70 0)" xlink:href="#eb"/></g><g id="gd"><use transform="scale(.009208)" xlink:href="#ed"/><use transform="matrix(.009208 0 0 .009208 9.954 0)" xlink:href="#ea"/><use transform="matrix(.009208 0 0 .009208 20.95 0)" xlink:href="#ei"/><use transform="matrix(.009208 0 0 .009208 25.51 0)" xlink:href="#ea"/><use transform="matrix(.009208 0 0 .009208 36.51 0)" xlink:href="#el"/><use transform="matrix(.009208 0 0 .009208 47.28 0)" xlink:href="#eg"/><use transform="matrix(.009208 0 0 .009208 53.27 0)" xlink:href="#ed"/></g><g id="aa"><use transform="scale(.009208)" xlink:href="#eq"/><use transform="matrix(.009208 0 0 .009208 11.73 0)" xlink:href="#ee"/><use transform="matrix(.009208 0 0 .009208 22.32 0)" xlink:href="#el"/><use transform="matrix(.009208 0 0 .009208 33.09 0)" xlink:href="#bZ"/><use transform="matrix(.009208 0 0 .009208 43.44 0)" xlink:href="#ee"/><use transform="matrix(.009208 0 0 .009208 54.03 0)" xlink:href="#ca"/><use transform="matrix(.009208 0 0 .009208 65.6 0)" xlink:href="#ea"/></g><g id="ab"><use transform="scale(.009208)" xlink:href="#ej"/><use transform="matrix(.009208 0 0 .009208 10.23 0)" xlink:href="#ea"/><use transform="matrix(.009208 0 0 .009208 21.22 0)" xlink:href="#eb"/><use transform="matrix(.009208 0 0 .009208 28.32 0)" xlink:href="#ed"/><use transform="matrix(.009208 0 0 .009208 38.28 0)" xlink:href="#ef"/><use transform="matrix(.009208 0 0 .009208 42.84 0)" xlink:href="#eh"/><use transform="matrix(.009208 0 0 .009208 54.15 0)" xlink:href="#ec"/></g><path id="cV" d="M180 0v-1490h908v168H370v486h669v168H370v500h727V0H180"/><path id="cW" d="M65 0l393-574-370-544h210c88 136 192 297 267 435 67-142 176-302 264-435h206L661-564 1053 0H844c-94-144-206-310-287-458C484-308 366-142 273 0H65"/><g id="ac"><use transform="scale(.009208)" xlink:href="#cV"/><use transform="matrix(.009208 0 0 .009208 11.33 0)" xlink:href="#cW"/><use transform="matrix(.009208 0 0 .009208 22 0)" xlink:href="#eg"/><use transform="matrix(.009208 0 0 .009208 28.17 0)" xlink:href="#eb"/><use transform="matrix(.009208 0 0 .009208 35.27 0)" xlink:href="#ee"/><use transform="matrix(.009208 0 0 .009208 45.86 0)" xlink:href="#el"/><use transform="matrix(.009208 0 0 .009208 56.63 0)" xlink:href="#eg"/></g><g id="ad"><use transform="scale(.009208)" xlink:href="#ej"/><use transform="matrix(.009208 0 0 .009208 10.51 0)" xlink:href="#ee"/><use transform="matrix(.009208 0 0 .009208 21.1 0)" xlink:href="#eb"/><use transform="matrix(.009208 0 0 .009208 28.49 0)" xlink:href="#ef"/><use transform="matrix(.009208 0 0 .009208 33.06 0)" xlink:href="#ee"/><use transform="matrix(.009208 0 0 .009208 43.65 0)" xlink:href="#ec"/><use transform="matrix(.009208 0 0 .009208 54.79 0)" xlink:href="#eg"/></g><g id="ae"><use transform="scale(.009208)" xlink:href="#eq"/><use transform="matrix(.009208 0 0 .009208 11.55 0)" xlink:href="#eb"/><use transform="matrix(.009208 0 0 .009208 18.33 0)" xlink:href="#eh"/><use transform="matrix(.009208 0 0 .009208 29.27 0)" xlink:href="#ej"/><use transform="matrix(.009208 0 0 .009208 39.87 0)" xlink:href="#ef"/><use transform="matrix(.009208 0 0 .009208 44.44 0)" xlink:href="#eo"/><use transform="matrix(.009208 0 0 .009208 55.98 0)" xlink:href="#ea"/><use transform="matrix(.009208 0 0 .009208 66.98 0)" xlink:href="#eb"/></g><g id="af"><use transform="scale(.009208)" xlink:href="#el"/><use transform="matrix(.009208 0 0 .009208 10.77 0)" xlink:href="#eh"/><use transform="matrix(.009208 0 0 .009208 22.08 0)" xlink:href="#ec"/><use transform="matrix(.009208 0 0 .009208 33.22 0)" xlink:href="#ev"/><use transform="matrix(.009208 0 0 .009208 40.2 0)" xlink:href="#ef"/><use transform="matrix(.009208 0 0 .009208 44.77 0)" xlink:href="#ca"/><use transform="matrix(.009208 0 0 .009208 56.33 0)" xlink:href="#ex"/><use transform="matrix(.009208 0 0 .009208 67.48 0)" xlink:href="#eb"/><use transform="matrix(.009208 0 0 .009208 74.58 0)" xlink:href="#ee"/><use transform="matrix(.009208 0 0 .009208 85.17 0)" xlink:href="#eg"/><use transform="matrix(.009208 0 0 .009208 91.34 0)" xlink:href="#ef"/><use transform="matrix(.009208 0 0 .009208 95.91 0)" xlink:href="#eh"/><use transform="matrix(.009208 0 0 .009208 107.2 0)" xlink:href="#ec"/></g><g id="ag"><use transform="scale(.007699)" xlink:href="#cd"/><use transform="matrix(.007699 0 0 .007699 11.38 0)" xlink:href="#eh"/><use transform="matrix(.007699 0 0 .007699 20.55 0)" xlink:href="#cj"/><use transform="matrix(.007699 0 0 .007699 33.45 0)" xlink:href="#ec"/><use transform="matrix(.007699 0 0 .007699 42.77 0)" xlink:href="#ei"/><use transform="matrix(.007699 0 0 .007699 46.59 0)" xlink:href="#eh"/><use transform="matrix(.007699 0 0 .007699 56.2 0)" xlink:href="#ee"/><use transform="matrix(.007699 0 0 .007699 65.05 0)" xlink:href="#eo"/></g><path id="cX" d="m750 279c-286 0-388-117-388-391v-228c1-158-59-222-218-220v-182c158 3 218-60 218-218v-230c0-273 102-391 388-391v151c-169-1-222 74-222 243v286c0 117-37 206-205 240v20c168 35 205 125 205 242v284c0 169 52 245 222 245v149"/><path id="cY" d="M123 279V130c170 0 222-76 222-245v-284c0-116 37-207 204-242v-20c-167-34-204-123-204-240v-286c0-168-52-243-222-243v-151c285 0 387 118 387 391v230c-1 158 57 219 219 219v180c-164 1-219 64-219 221v228c0 274-102 391-387 391"/><path id="cZ" d="M295 13c-75 0-135-60-135-135s60-135 135-135 135 60 135 135S370 13 295 13"/><path id="da" d="M157-1118h181V80c1 225-123 350-364 338V252c126 9 184-48 183-172v-1198zm91-183c-68 0-125-53-125-119s57-119 125-119c69 0 126 53 126 119s-57 119-126 119"/><g id="ah"><use transform="scale(.007699)" xlink:href="#cX"/><use transform="matrix(.007699 0 0 .007699 6.721 0)" xlink:href="#ec"/><use transform="matrix(.007699 0 0 .007699 16.04 0)" xlink:href="#ee"/><use transform="matrix(.007699 0 0 .007699 24.89 0)" xlink:href="#ey"/><use transform="matrix(.007699 0 0 .007699 38.7 0)" xlink:href="#ea"/><use transform="matrix(.007699 0 0 .007699 47.72 0)" xlink:href="#cY"/><use transform="matrix(.007699 0 0 .007699 54.44 0)" xlink:href="#cL"/><use transform="matrix(.007699 0 0 .007699 61.69 0)" xlink:href="#cX"/><use transform="matrix(.007699 0 0 .007699 68.41 0)" xlink:href="#ej"/><use transform="matrix(.007699 0 0 .007699 76.97 0)" xlink:href="#ea"/><use transform="matrix(.007699 0 0 .007699 86.16 0)" xlink:href="#eb"/><use transform="matrix(.007699 0 0 .007699 92.1 0)" xlink:href="#ed"/><use transform="matrix(.007699 0 0 .007699 100.4 0)" xlink:href="#ef"/><use transform="matrix(.007699 0 0 .007699 104.2 0)" xlink:href="#eh"/><use transform="matrix(.007699 0 0 .007699 113.7 0)" xlink:href="#ec"/><use transform="matrix(.007699 0 0 .007699 123 0)" xlink:href="#cY"/><use transform="matrix(.007699 0 0 .007699 129.7 0)" xlink:href="#cL"/><use transform="matrix(.007699 0 0 .007699 137 0)" xlink:href="#ej"/><use transform="matrix(.007699 0 0 .007699 145.8 0)" xlink:href="#ee"/><use transform="matrix(.007699 0 0 .007699 154.6 0)" xlink:href="#eb"/><use transform="matrix(.007699 0 0 .007699 160.8 0)" xlink:href="#ef"/><use transform="matrix(.007699 0 0 .007699 164.6 0)" xlink:href="#ee"/><use transform="matrix(.007699 0 0 .007699 173.5 0)" xlink:href="#ec"/><use transform="matrix(.007699 0 0 .007699 182.8 0)" xlink:href="#eg"/><use transform="matrix(.007699 0 0 .007699 187.8 0)" xlink:href="#ed"/><use transform="matrix(.007699 0 0 .007699 196.1 0)" xlink:href="#cZ"/><use transform="matrix(.007699 0 0 .007699 200.7 0)" xlink:href="#da"/><use transform="matrix(.007699 0 0 .007699 204.5 0)" xlink:href="#ed"/><use transform="matrix(.007699 0 0 .007699 212.8 0)" xlink:href="#eh"/><use transform="matrix(.007699 0 0 .007699 222.3 0)" xlink:href="#ec"/></g><g id="ai"><use transform="scale(.007699)" xlink:href="#ev"/><use transform="matrix(.007699 0 0 .007699 5.836 0)" xlink:href="#eb"/><use transform="matrix(.007699 0 0 .007699 11.51 0)" xlink:href="#eh"/><use transform="matrix(.007699 0 0 .007699 20.96 0)" xlink:href="#ey"/></g><g id="aj"><use transform="scale(.007699)" xlink:href="#ef"/><use transform="matrix(.007699 0 0 .007699 3.819 0)" xlink:href="#ec"/><use transform="matrix(.007699 0 0 .007699 13.13 0)" xlink:href="#eo"/><use transform="matrix(.007699 0 0 .007699 22.79 0)" xlink:href="#ea"/><use transform="matrix(.007699 0 0 .007699 31.63 0)" xlink:href="#cW"/></g><path id="db" d="M600 0L52-1490h200c166 485 304 806 458 1336 156-533 285-846 449-1336h202L819 0H600"/><g id="ak"><use transform="scale(.007699)" xlink:href="#db"/><use transform="matrix(.007699 0 0 .007699 10.08 0)" xlink:href="#ea"/><use transform="matrix(.007699 0 0 .007699 19.27 0)" xlink:href="#eb"/><use transform="matrix(.007699 0 0 .007699 25.21 0)" xlink:href="#ed"/><use transform="matrix(.007699 0 0 .007699 33.53 0)" xlink:href="#ef"/><use transform="matrix(.007699 0 0 .007699 37.35 0)" xlink:href="#eh"/><use transform="matrix(.007699 0 0 .007699 46.8 0)" xlink:href="#ec"/></g><g id="al"><use transform="scale(.007699)" xlink:href="#ch"/><use transform="matrix(.007699 0 0 .007699 9.324 0)" xlink:href="#ee"/><use transform="matrix(.007699 0 0 .007699 18.18 0)" xlink:href="#ed"/></g><g id="am"><use transform="scale(.007699)" xlink:href="#ej"/><use transform="matrix(.007699 0 0 .007699 8.785 0)" xlink:href="#ee"/><use transform="matrix(.007699 0 0 .007699 17.64 0)" xlink:href="#eb"/><use transform="matrix(.007699 0 0 .007699 23.82 0)" xlink:href="#ef"/><use transform="matrix(.007699 0 0 .007699 27.64 0)" xlink:href="#ee"/><use transform="matrix(.007699 0 0 .007699 36.49 0)" xlink:href="#ec"/><use transform="matrix(.007699 0 0 .007699 45.81 0)" xlink:href="#eg"/></g><g id="an"><use transform="scale(.007699)" xlink:href="#cj"/><use transform="matrix(.007699 0 0 .007699 12.9 0)" xlink:href="#ch"/><use transform="matrix(.007699 0 0 .007699 22.23 0)" xlink:href="#ea"/><use transform="matrix(.007699 0 0 .007699 31.42 0)" xlink:href="#ea"/><use transform="matrix(.007699 0 0 .007699 40.61 0)" xlink:href="#ei"/><use transform="matrix(.007699 0 0 .007699 44.43 0)" xlink:href="#ed"/></g><g id="ao"><use transform="scale(.007699)" xlink:href="#ef"/><use transform="matrix(.007699 0 0 .007699 3.819 0)" xlink:href="#ec"/><use transform="matrix(.007699 0 0 .007699 13.13 0)" xlink:href="#el"/><use transform="matrix(.007699 0 0 .007699 22.14 0)" xlink:href="#ei"/><use transform="matrix(.007699 0 0 .007699 25.96 0)" xlink:href="#ex"/><use transform="matrix(.007699 0 0 .007699 35.29 0)" xlink:href="#eo"/><use transform="matrix(.007699 0 0 .007699 44.94 0)" xlink:href="#ea"/><use transform="matrix(.007699 0 0 .007699 54.13 0)" xlink:href="#ed"/></g><g id="ap"><use transform="scale(.007699)" xlink:href="#ec"/><use transform="matrix(.007699 0 0 .007699 9.316 0)" xlink:href="#eh"/><use transform="matrix(.007699 0 0 .007699 18.77 0)" xlink:href="#ec"/><use transform="matrix(.007699 0 0 .007699 28.09 0)" xlink:href="#cL"/><use transform="matrix(.007699 0 0 .007699 35.34 0)" xlink:href="#ej"/><use transform="matrix(.007699 0 0 .007699 43.89 0)" xlink:href="#ea"/><use transform="matrix(.007699 0 0 .007699 53.09 0)" xlink:href="#ec"/><use transform="matrix(.007699 0 0 .007699 62.4 0)" xlink:href="#eo"/><use transform="matrix(.007699 0 0 .007699 72.06 0)" xlink:href="#eh"/><use transform="matrix(.007699 0 0 .007699 81.51 0)" xlink:href="#eb"/><use transform="matrix(.007699 0 0 .007699 87.18 0)" xlink:href="#ea"/><use transform="matrix(.007699 0 0 .007699 96.38 0)" xlink:href="#eo"/></g><g id="aq"><use transform="scale(.007699)" xlink:href="#eq"/><use transform="matrix(.007699 0 0 .007699 9.655 0)" xlink:href="#eb"/><use transform="matrix(.007699 0 0 .007699 15.33 0)" xlink:href="#eh"/><use transform="matrix(.007699 0 0 .007699 24.48 0)" xlink:href="#ej"/><use transform="matrix(.007699 0 0 .007699 33.34 0)" xlink:href="#ef"/><use transform="matrix(.007699 0 0 .007699 37.16 0)" xlink:href="#eo"/><use transform="matrix(.007699 0 0 .007699 46.81 0)" xlink:href="#ea"/><use transform="matrix(.007699 0 0 .007699 56 0)" xlink:href="#eb"/><use transform="matrix(.007699 0 0 .007699 61.94 0)" xlink:href="#ed"/></g><path id="dc" d="M180 0v-1490h224l606 953c40 63 108 177 176 312-27-437-7-821-13-1265h190V0h-226C860-448 622-778 356-1262c27 476 11 792 15 1262H180"/><g id="ar"><use transform="scale(.007699)" xlink:href="#dc"/><use transform="matrix(.007699 0 0 .007699 11.88 0)" xlink:href="#ea"/><use transform="matrix(.007699 0 0 .007699 21.07 0)" xlink:href="#ea"/><use transform="matrix(.007699 0 0 .007699 30.27 0)" xlink:href="#eo"/><use transform="matrix(.007699 0 0 .007699 39.92 0)" xlink:href="#ed"/></g><g id="as"><use transform="scale(.007699)" xlink:href="#ex"/><use transform="matrix(.007699 0 0 .007699 9.324 0)" xlink:href="#ed"/><use transform="matrix(.007699 0 0 .007699 17.65 0)" xlink:href="#ea"/><use transform="matrix(.007699 0 0 .007699 26.84 0)" xlink:href="#eb"/></g><g id="at"><use transform="scale(.007699)" xlink:href="#eh"/><use transform="matrix(.007699 0 0 .007699 9.455 0)" xlink:href="#eq"/><use transform="matrix(.007699 0 0 .007699 19.11 0)" xlink:href="#eg"/><use transform="matrix(.007699 0 0 .007699 23.96 0)" xlink:href="#cL"/><use transform="matrix(.007699 0 0 .007699 31.21 0)" xlink:href="#ef"/><use transform="matrix(.007699 0 0 .007699 35.03 0)" xlink:href="#ec"/></g><path id="dd" d="M218-607c0-325 108-727 258-974h175c-155 315-250 682-250 974 0 265 78 531 250 886H476C306-10 218-315 218-607"/><g id="au"><use transform="scale(.007699)" xlink:href="#dd"/><use transform="matrix(.007699 0 0 .007699 5.751 0)" xlink:href="#ej"/><use transform="matrix(.007699 0 0 .007699 14.61 0)" xlink:href="#ef"/><use transform="matrix(.007699 0 0 .007699 18.43 0)" xlink:href="#ee"/></g><path id="de" d="m783 20c-382 0-661-292-661-764 0-473 279-766 661-766 302 0 548 182 601 489h-190c-42-204-217-313-411-313-268 0-476 208-476 590 0 381 209 588 476 588 195 0 369-110 411-313h190c-52 303-296 489-601 489"/><path id="df" d="M180 0v-1490h190v1322h690V0H180"/><g id="av"><use transform="scale(.007699)" xlink:href="#de"/><use transform="matrix(.007699 0 0 .007699 11.52 0)" xlink:href="#df"/><use transform="matrix(.007699 0 0 .007699 20.43 0)" xlink:href="#bR"/><use transform="matrix(.007699 0 0 .007699 24.67 0)" xlink:href="#cl"/></g><g id="aw"><use transform="scale(.007699)" xlink:href="#ed"/><use transform="matrix(.007699 0 0 .007699 8.323 0)" xlink:href="#eg"/><use transform="matrix(.007699 0 0 .007699 13.56 0)" xlink:href="#ee"/><use transform="matrix(.007699 0 0 .007699 22.41 0)" xlink:href="#eg"/><use transform="matrix(.007699 0 0 .007699 27.57 0)" xlink:href="#ef"/><use transform="matrix(.007699 0 0 .007699 31.39 0)" xlink:href="#el"/></g><g id="ax"><use transform="scale(.007699)" xlink:href="#ev"/><use transform="matrix(.007699 0 0 .007699 5.836 0)" xlink:href="#ef"/><use transform="matrix(.007699 0 0 .007699 9.655 0)" xlink:href="#ei"/><use transform="matrix(.007699 0 0 .007699 13.47 0)" xlink:href="#ea"/><use transform="matrix(.007699 0 0 .007699 22.67 0)" xlink:href="#cl"/></g><path id="dg" d="M96 279C273-86 346-350 346-607c0-292-95-659-250-974h175c150 246 258 650 258 974 0 297-91 602-258 886H96"/><g id="ay"><use transform="scale(.007699)" xlink:href="#ea"/><use transform="matrix(.007699 0 0 .007699 9.193 0)" xlink:href="#eg"/><use transform="matrix(.007699 0 0 .007699 14.2 0)" xlink:href="#el"/><use transform="matrix(.007699 0 0 .007699 23.21 0)" xlink:href="#cZ"/><use transform="matrix(.007699 0 0 .007699 27.75 0)" xlink:href="#dg"/></g><g id="az"><use transform="scale(.007699)" xlink:href="#eh"/><use transform="matrix(.007699 0 0 .007699 9.455 0)" xlink:href="#ec"/><use transform="matrix(.007699 0 0 .007699 18.77 0)" xlink:href="#ei"/><use transform="matrix(.007699 0 0 .007699 22.67 0)" xlink:href="#cK"/></g><g id="aA"><use transform="scale(.007699)" xlink:href="#ej"/><use transform="matrix(.007699 0 0 .007699 8.554 0)" xlink:href="#ea"/><use transform="matrix(.007699 0 0 .007699 17.75 0)" xlink:href="#ec"/><use transform="matrix(.007699 0 0 .007699 27.06 0)" xlink:href="#eo"/><use transform="matrix(.007699 0 0 .007699 36.72 0)" xlink:href="#eh"/><use transform="matrix(.007699 0 0 .007699 46.17 0)" xlink:href="#eb"/><use transform="matrix(.007699 0 0 .007699 51.85 0)" xlink:href="#ea"/><use transform="matrix(.007699 0 0 .007699 61.04 0)" xlink:href="#eo"/></g><path id="dh" d="M1096 418H916v-591h-14C865-111 790 24 577 24c-279 0-473-224-473-580 0-354 195-576 474-576 218 0 287 134 324 193h20v-179h174V418zM604-137c203 0 314-172 314-421 0-247-108-413-314-413-212 0-317 181-317 413 0 235 108 421 317 421"/><g id="aB"><use transform="scale(.007699)" xlink:href="#cq"/><use transform="matrix(.007699 0 0 .007699 9.916 0)" xlink:href="#ea"/><use transform="matrix(.007699 0 0 .007699 19.11 0)" xlink:href="#dh"/><use transform="matrix(.007699 0 0 .007699 28.76 0)" xlink:href="#ex"/><use transform="matrix(.007699 0 0 .007699 38.09 0)" xlink:href="#ef"/><use transform="matrix(.007699 0 0 .007699 41.91 0)" xlink:href="#eb"/><use transform="matrix(.007699 0 0 .007699 47.58 0)" xlink:href="#ea"/><use transform="matrix(.007699 0 0 .007699 56.77 0)" xlink:href="#ed"/></g><g id="aC"><use transform="scale(.007699)" xlink:href="#ef"/><use transform="matrix(.007699 0 0 .007699 3.819 0)" xlink:href="#ec"/><use transform="matrix(.007699 0 0 .007699 13.13 0)" xlink:href="#ed"/><use transform="matrix(.007699 0 0 .007699 21.46 0)" xlink:href="#eg"/><use transform="matrix(.007699 0 0 .007699 26.69 0)" xlink:href="#ee"/><use transform="matrix(.007699 0 0 .007699 35.55 0)" xlink:href="#ei"/><use transform="matrix(.007699 0 0 .007699 39.37 0)" xlink:href="#ei"/><use transform="matrix(.007699 0 0 .007699 43.18 0)" xlink:href="#cL"/><use transform="matrix(.007699 0 0 .007699 50.44 0)" xlink:href="#eg"/><use transform="matrix(.007699 0 0 .007699 55.6 0)" xlink:href="#ef"/><use transform="matrix(.007699 0 0 .007699 59.41 0)" xlink:href="#ey"/><use transform="matrix(.007699 0 0 .007699 73.23 0)" xlink:href="#ea"/></g><path id="di" d="m763 24c-353 0-583-224-583-531v-983h190v968c0 214 149 370 393 370 243 0 391-156 391-370v-968h190v983c0 307-230 531-581 531"/><g id="aD"><use transform="scale(.007699)" xlink:href="#di"/><use transform="matrix(.007699 0 0 .007699 11.73 0)" xlink:href="#ed"/><use transform="matrix(.007699 0 0 .007699 20.06 0)" xlink:href="#ea"/><use transform="matrix(.007699 0 0 .007699 29.25 0)" xlink:href="#ed"/></g><path id="dj" d="M52 0l541-1490h220L1361 0h-200l-149-416H398L254 0H52zm404-582h497c-103-290-145-390-251-756-108 377-145 460-246 756"/><path id="dk" d="M98-1322v-168h1126v168H757V0H567v-1322H98"/><g id="aE"><use transform="scale(.007699)" xlink:href="#dj"/><use transform="matrix(.007699 0 0 .007699 10.88 0)" xlink:href="#eh"/><use transform="matrix(.007699 0 0 .007699 19.1 0)" xlink:href="#dk"/></g><g id="aF"><use transform="scale(.007699)" xlink:href="#eq"/><use transform="matrix(.007699 0 0 .007699 9.655 0)" xlink:href="#eb"/><use transform="matrix(.007699 0 0 .007699 15.33 0)" xlink:href="#eh"/><use transform="matrix(.007699 0 0 .007699 24.48 0)" xlink:href="#ej"/><use transform="matrix(.007699 0 0 .007699 33.34 0)" xlink:href="#ef"/><use transform="matrix(.007699 0 0 .007699 37.16 0)" xlink:href="#eo"/><use transform="matrix(.007699 0 0 .007699 46.81 0)" xlink:href="#ea"/><use transform="matrix(.007699 0 0 .007699 56 0)" xlink:href="#eb"/><use transform="matrix(.007699 0 0 .007699 61.94 0)" xlink:href="#ed"/></g><g id="aG"><use transform="scale(.007699)" xlink:href="#eh"/><use transform="matrix(.007699 0 0 .007699 9.455 0)" xlink:href="#ec"/><use transform="matrix(.007699 0 0 .007699 18.77 0)" xlink:href="#ei"/><use transform="matrix(.007699 0 0 .007699 22.67 0)" xlink:href="#cK"/></g><g id="aH"><use transform="scale(.009208)" xlink:href="#de"/><use transform="matrix(.009208 0 0 .009208 13.77 0)" xlink:href="#ch"/><use transform="matrix(.009208 0 0 .009208 24.93 0)" xlink:href="#ea"/><use transform="matrix(.009208 0 0 .009208 35.92 0)" xlink:href="#el"/><use transform="matrix(.009208 0 0 .009208 46.69 0)" xlink:href="#bZ"/></g><path id="dl" d="m232-923-22-567h194l-22 567h-150"/><g id="aI"><use transform="scale(.009208)" xlink:href="#ex"/><use transform="matrix(.009208 0 0 .009208 11.15 0)" xlink:href="#ed"/><use transform="matrix(.009208 0 0 .009208 21.1 0)" xlink:href="#ea"/><use transform="matrix(.009208 0 0 .009208 32.1 0)" xlink:href="#eb"/><use transform="matrix(.009208 0 0 .009208 39.2 0)" xlink:href="#dl"/><use transform="matrix(.009208 0 0 .009208 44.85 0)" xlink:href="#ed"/></g><g id="aJ"><use transform="scale(.009208)" xlink:href="#eq"/><use transform="matrix(.009208 0 0 .009208 11.55 0)" xlink:href="#eb"/><use transform="matrix(.009208 0 0 .009208 18.33 0)" xlink:href="#ea"/><use transform="matrix(.009208 0 0 .009208 29.33 0)" xlink:href="#ev"/><use transform="matrix(.009208 0 0 .009208 35.75 0)" xlink:href="#ea"/><use transform="matrix(.009208 0 0 .009208 46.75 0)" xlink:href="#eb"/><use transform="matrix(.009208 0 0 .009208 53.53 0)" xlink:href="#ea"/><use transform="matrix(.009208 0 0 .009208 64.53 0)" xlink:href="#ec"/><use transform="matrix(.009208 0 0 .009208 75.67 0)" xlink:href="#el"/><use transform="matrix(.009208 0 0 .009208 86.44 0)" xlink:href="#ea"/><use transform="matrix(.009208 0 0 .009208 97.44 0)" xlink:href="#ed"/></g><g id="aK"><use transform="scale(.007699)" xlink:href="#cd"/><use transform="matrix(.007699 0 0 .007699 11.38 0)" xlink:href="#ea"/><use transform="matrix(.007699 0 0 .007699 20.57 0)" xlink:href="#eg"/><use transform="matrix(.007699 0 0 .007699 25.81 0)" xlink:href="#ee"/><use transform="matrix(.007699 0 0 .007699 34.66 0)" xlink:href="#ef"/><use transform="matrix(.007699 0 0 .007699 38.48 0)" xlink:href="#ei"/><use transform="matrix(.007699 0 0 .007699 42.3 0)" xlink:href="#ed"/></g><g id="aL"><use transform="scale(.007699)" xlink:href="#ee"/><use transform="matrix(.007699 0 0 .007699 8.854 0)" xlink:href="#eb"/><use transform="matrix(.007699 0 0 .007699 14.53 0)" xlink:href="#ea"/></g><g id="aM"><use transform="scale(.007699)" xlink:href="#ef"/><use transform="matrix(.007699 0 0 .007699 3.819 0)" xlink:href="#ec"/><use transform="matrix(.007699 0 0 .007699 13.13 0)" xlink:href="#ed"/><use transform="matrix(.007699 0 0 .007699 21.46 0)" xlink:href="#eg"/><use transform="matrix(.007699 0 0 .007699 26.69 0)" xlink:href="#ee"/><use transform="matrix(.007699 0 0 .007699 35.55 0)" xlink:href="#ei"/><use transform="matrix(.007699 0 0 .007699 39.37 0)" xlink:href="#ei"/><use transform="matrix(.007699 0 0 .007699 43.18 0)" xlink:href="#ea"/><use transform="matrix(.007699 0 0 .007699 52.38 0)" xlink:href="#eb"/></g><path id="dm" d="M57 0l534-763-501-727h220c122 187 296 416 391 605 94-191 272-419 396-605h215L811-770 1340 0h-219C986-204 811-426 699-640 588-430 407-202 273 0H57"/><g id="aN"><use transform="scale(.007699)" xlink:href="#di"/><use transform="matrix(.007699 0 0 .007699 11.73 0)" xlink:href="#dm"/></g><g id="aO"><use transform="scale(.007699)" xlink:href="#dd"/><use transform="matrix(.007699 0 0 .007699 5.751 0)" xlink:href="#ey"/><use transform="matrix(.007699 0 0 .007699 19.56 0)" xlink:href="#ee"/><use transform="matrix(.007699 0 0 .007699 28.19 0)" xlink:href="#cK"/></g><path id="dn" d="M677 24c-213 0-288-135-325-197h-20V0H158v-1490h180v551h14c37-59 106-193 324-193 279 0 474 222 474 576 0 356-194 580-473 580zm-27-161c209 0 317-186 317-421 0-232-105-413-317-413-206 0-314 166-314 413 0 249 111 421 314 421"/><g id="aP"><use transform="scale(.007699)" xlink:href="#dn"/><use transform="matrix(.007699 0 0 .007699 9.655 0)" xlink:href="#ea"/></g><g id="aQ"><use transform="scale(.007699)" xlink:href="#de"/><use transform="matrix(.007699 0 0 .007699 11.52 0)" xlink:href="#df"/><use transform="matrix(.007699 0 0 .007699 20.43 0)" xlink:href="#bR"/></g><g id="aR"><use transform="scale(.007699)" xlink:href="#ev"/><use transform="matrix(.007699 0 0 .007699 5.836 0)" xlink:href="#ei"/><use transform="matrix(.007699 0 0 .007699 9.655 0)" xlink:href="#ee"/><use transform="matrix(.007699 0 0 .007699 18.51 0)" xlink:href="#ca"/><use transform="matrix(.007699 0 0 .007699 28.18 0)" xlink:href="#ed"/><use transform="matrix(.007699 0 0 .007699 36.5 0)" xlink:href="#cl"/></g><g id="aS"><use transform="scale(.007699)" xlink:href="#ea"/><use transform="matrix(.007699 0 0 .007699 9.193 0)" xlink:href="#ec"/><use transform="matrix(.007699 0 0 .007699 18.28 0)" xlink:href="#ej"/></g><g id="aT"><use transform="scale(.007699)" xlink:href="#ej"/><use transform="matrix(.007699 0 0 .007699 8.785 0)" xlink:href="#ee"/><use transform="matrix(.007699 0 0 .007699 17.64 0)" xlink:href="#eb"/><use transform="matrix(.007699 0 0 .007699 23.57 0)" xlink:href="#ed"/><use transform="matrix(.007699 0 0 .007699 31.9 0)" xlink:href="#cl"/></g><g id="aU"><use transform="scale(.007699)" xlink:href="#el"/><use transform="matrix(.007699 0 0 .007699 9.008 0)" xlink:href="#eh"/><use transform="matrix(.007699 0 0 .007699 18.46 0)" xlink:href="#ec"/><use transform="matrix(.007699 0 0 .007699 27.78 0)" xlink:href="#ev"/><use transform="matrix(.007699 0 0 .007699 33.61 0)" xlink:href="#ef"/><use transform="matrix(.007699 0 0 .007699 37.43 0)" xlink:href="#ca"/></g><path id="do" d="M87 0l247-1490h218l448 953c25 54 80 176 129 327 11-149 33-280 47-366l151-914h190L1270 0h-219C841-464 670-765 473-1275 414-753 352-475 278 0H87"/><path id="en" d="M691-1118l-25 154H437L325-290c-17 103 16 144 108 144 23 0 63-6 94-12L538-6c-36 12-87 20-136 20-196 0-290-109-260-290l114-688H88l25-154h169l44-266h180l-44 266h229"/><g id="aV"><use transform="scale(.008982)" xlink:href="#do"/><use transform="matrix(.008982 0 0 .008982 13.86 0)" xlink:href="#es"/><use transform="matrix(.008982 0 0 .008982 24.9 0)" xlink:href="#en"/><use transform="matrix(.008982 0 0 .008982 30.76 0)" xlink:href="#ek"/></g><path id="dq" d="M356-670L245 0H65l247-1490h180l-94 565c97-150 219-207 362-207 226 0 365 139 318 422L960 0H779l116-695c29-174-53-275-208-275-158 0-299 107-331 300"/><path id="em" d="M481 24C202 24 45-202 104-557s293-575 571-575c216 0 263 132 291 193h15l29-179h181L1006 0H831l28-173h-21C788-107 693 24 481 24zm56-161c204 0 342-174 383-422s-41-412-245-412c-215 0-350 183-388 412-39 235 39 422 250 422"/><g id="aW"><use transform="scale(.008982)" xlink:href="#en"/><use transform="matrix(.008982 0 0 .008982 6.036 0)" xlink:href="#dq"/><use transform="matrix(.008982 0 0 .008982 16.91 0)" xlink:href="#em"/><use transform="matrix(.008982 0 0 .008982 28.2 0)" xlink:href="#en"/></g><path id="eu" d="M492-1490L245 0H65l247-1490h180"/><g id="aX"><use transform="scale(.008982)" xlink:href="#em"/><use transform="matrix(.008982 0 0 .008982 11.29 0)" xlink:href="#eu"/><use transform="matrix(.008982 0 0 .008982 15.75 0)" xlink:href="#eu"/></g><g id="aY"><use transform="scale(.008982)" xlink:href="#ek"/><use transform="matrix(.008982 0 0 .008982 10.59 0)" xlink:href="#et"/><use transform="matrix(.008982 0 0 .008982 17.81 0)" xlink:href="#et"/><use transform="matrix(.008982 0 0 .008982 24.44 0)" xlink:href="#es"/><use transform="matrix(.008982 0 0 .008982 35.48 0)" xlink:href="#et"/></g><path id="dt" d="M-4 418l255-1536h174l-30 179h9c47-68 143-193 355-193 246 0 401 170 401 447 0 348-211 709-568 709-219 0-274-140-300-202h-17l-99 596H-4zm572-555c267 0 411-296 411-543 0-170-78-291-250-291-269 0-405 284-405 542 0 177 81 292 244 292"/><path id="ew" d="M451 24C217 22 71-78 61-277l174-29c11 123 90 172 219 172 161 0 280-83 297-181 11-71-30-117-135-143l-179-44c-195-48-280-153-253-316 31-186 223-314 455-314 233 4 337 107 366 275l-165 30c-18-80-65-152-204-152-138 0-256 75-272 174-13 77 32 118 158 149l162 40c195 48 278 154 252 313C904-113 708 24 451 24"/><g id="aZ"><use transform="scale(.008982)" xlink:href="#dt"/><use transform="matrix(.008982 0 0 .008982 11.27 0)" xlink:href="#em"/><use transform="matrix(.008982 0 0 .008982 22.56 0)" xlink:href="#en"/><use transform="matrix(.008982 0 0 .008982 28.6 0)" xlink:href="#dq"/><use transform="matrix(.008982 0 0 .008982 39.48 0)" xlink:href="#ew"/></g><g id="ba"><use transform="scale(.008982)" xlink:href="#dq"/><use transform="matrix(.008982 0 0 .008982 10.88 0)" xlink:href="#em"/><use transform="matrix(.008982 0 0 .008982 21.9 0)" xlink:href="#cP"/><use transform="matrix(.008982 0 0 .008982 31.88 0)" xlink:href="#ek"/></g><path id="dv" d="M592 24c-216 0-276-130-305-197h-18L239 0H65l247-1490h180l-92 551h15c51-63 134-193 344-193 246 0 401 170 401 447 0 348-211 709-568 709zm-24-161c267 0 411-296 411-543 0-170-78-291-250-291-269 0-405 284-405 542 0 177 81 292 244 292"/><path id="er" d="M356-664L245 0H65l186-1118h173l-32 197c96-152 219-211 366-211 232 0 366 145 319 428L960 0H779l117-701c29-174-48-269-198-269-165 0-310 115-342 306"/><g id="bb"><use transform="scale(.008982)" xlink:href="#dv"/><use transform="matrix(.008982 0 0 .008982 11.27 0)" xlink:href="#ek"/><use transform="matrix(.008982 0 0 .008982 21.86 0)" xlink:href="#ek"/><use transform="matrix(.008982 0 0 .008982 32.45 0)" xlink:href="#er"/></g><path id="dx" d="M780-1118l-24 146H497L317 116C281 334 148 448-56 448c-43 0-82-5-117-17l45-161c143 34 239 0 264-153L316-972H89l24-146h227l13-77c43-287 254-417 541-345l-50 154c-23-5-81-8-121-8-107 0-167 63-189 196l-13 80h259"/><g id="bc"><use transform="scale(.008982)" xlink:href="#eu"/><use transform="matrix(.008982 0 0 .008982 4.455 0)" xlink:href="#ek"/><use transform="matrix(.008982 0 0 .008982 15.05 0)" xlink:href="#dx"/><use transform="matrix(.008982 0 0 .008982 21.28 0)" xlink:href="#en"/></g><path id="dy" d="M443 14C219 14 87-123 134-408l117-710h180L317-423c-28 171 49 275 206 275s300-105 332-300l110-670h181L961 0H787l35-209C722-47 590 14 443 14"/><path id="dz" d="M210 13C133 13 75-52 89-134c12-70 77-122 143-122 81 0 133 67 122 143-10 69-73 126-144 126"/><g id="bd"><use transform="scale(.008982)" xlink:href="#es"/><use transform="matrix(.008982 0 0 .008982 11.04 0)" xlink:href="#dy"/><use transform="matrix(.008982 0 0 .008982 21.93 0)" xlink:href="#en"/><use transform="matrix(.008982 0 0 .008982 27.96 0)" xlink:href="#dz"/></g><path id="dA" d="M87 0l247-1490h270l211 940c16 74 39 220 54 339 57-123 125-267 165-339l519-940h271L1577 0h-187c75-441 134-849 220-1287C1371-790 1163-459 914 0H749C649-458 553-779 473-1282 408-826 339-440 268 0H87"/><path id="dB" d="M456 442C197 442 73 327 25 209l155-84c33 60 86 160 280 160 184 0 332-89 363-272l37-218-16 4C793-134 707-18 498-18 260-18 96-170 96-443c0-341 216-689 568-689 222 0 274 139 301 198l21-5 30-179h175L999 35c-48 288-275 407-543 407zm75-620c274 0 401-267 401-512 0-170-80-281-247-281-260 0-408 269-408 518 0 167 83 275 254 275"/><g id="be"><use transform="scale(.008982)" xlink:href="#dA"/><use transform="matrix(.008982 0 0 .008982 16.62 0)" xlink:href="#ep"/><use transform="matrix(.008982 0 0 .008982 21.08 0)" xlink:href="#ew"/><use transform="matrix(.008982 0 0 .008982 30.78 0)" xlink:href="#ew"/><use transform="matrix(.008982 0 0 .008982 40.48 0)" xlink:href="#ep"/><use transform="matrix(.008982 0 0 .008982 44.95 0)" xlink:href="#er"/><use transform="matrix(.008982 0 0 .008982 55.83 0)" xlink:href="#dB"/></g><g id="bf"><use transform="scale(.008982)" xlink:href="#es"/><use transform="matrix(.008982 0 0 .008982 11.04 0)" xlink:href="#et"/></g><g id="bg"><use transform="scale(.008982)" xlink:href="#ep"/><use transform="matrix(.008982 0 0 .008982 4.464 0)" xlink:href="#er"/><use transform="matrix(.008982 0 0 .008982 15.07 0)" xlink:href="#cP"/><use transform="matrix(.008982 0 0 .008982 25.05 0)" xlink:href="#em"/><use transform="matrix(.008982 0 0 .008982 36.34 0)" xlink:href="#eu"/><use transform="matrix(.008982 0 0 .008982 40.8 0)" xlink:href="#ep"/><use transform="matrix(.008982 0 0 .008982 45.26 0)" xlink:href="#cR"/></g><path id="dC" d="M65 0l186-1118h175l-31 195c80-148 212-215 337-215 153 0 236 96 255 228 75-143 223-228 382-228 199 0 341 131 298 390L1543 0h-181l126-756c27-162-65-218-177-218-160 0-274 111-297 250L894 0H714l128-773c21-127-57-201-174-201-136 0-277 97-307 277L245 0H65"/><path id="dD" d="M-23 359l182-567h206L115 359H-23"/><g id="bh"><use transform="scale(.008982)" xlink:href="#dC"/><use transform="matrix(.008982 0 0 .008982 16.11 0)" xlink:href="#ek"/><use transform="matrix(.008982 0 0 .008982 26.7 0)" xlink:href="#en"/><use transform="matrix(.008982 0 0 .008982 32.56 0)" xlink:href="#em"/><use transform="matrix(.008982 0 0 .008982 43.85 0)" xlink:href="#cR"/><use transform="matrix(.008982 0 0 .008982 55.12 0)" xlink:href="#em"/><use transform="matrix(.008982 0 0 .008982 66.42 0)" xlink:href="#en"/><use transform="matrix(.008982 0 0 .008982 72.27 0)" xlink:href="#em"/><use transform="matrix(.008982 0 0 .008982 83.56 0)" xlink:href="#dD"/></g><g id="bi"><use transform="scale(.008982)" xlink:href="#dy"/><use transform="matrix(.008982 0 0 .008982 10.89 0)" xlink:href="#ew"/><use transform="matrix(.008982 0 0 .008982 20.59 0)" xlink:href="#ek"/><use transform="matrix(.008982 0 0 .008982 31.18 0)" xlink:href="#et"/></g><g id="bj"><use transform="scale(.008982)" xlink:href="#er"/><use transform="matrix(.008982 0 0 .008982 10.88 0)" xlink:href="#es"/><use transform="matrix(.008982 0 0 .008982 21.92 0)" xlink:href="#en"/></g><g id="bk"><use transform="scale(.008982)" xlink:href="#es"/><use transform="matrix(.008982 0 0 .008982 11.04 0)" xlink:href="#dt"/><use transform="matrix(.008982 0 0 .008982 22.31 0)" xlink:href="#en"/><use transform="matrix(.008982 0 0 .008982 28.35 0)" xlink:href="#ep"/><use transform="matrix(.008982 0 0 .008982 32.81 0)" xlink:href="#er"/><use transform="matrix(.008982 0 0 .008982 43.69 0)" xlink:href="#dB"/></g><g id="bl"><use transform="scale(.008982)" xlink:href="#ep"/><use transform="matrix(.008982 0 0 .008982 4.464 0)" xlink:href="#er"/><use transform="matrix(.008982 0 0 .008982 15.34 0)" xlink:href="#dD"/></g><g id="bm"><use transform="scale(.008982)" xlink:href="#er"/><use transform="matrix(.008982 0 0 .008982 10.88 0)" xlink:href="#es"/></g><g id="bn"><use transform="scale(.008982)" xlink:href="#cP"/><use transform="matrix(.008982 0 0 .008982 9.979 0)" xlink:href="#em"/><use transform="matrix(.008982 0 0 .008982 21.27 0)" xlink:href="#eu"/><use transform="matrix(.008982 0 0 .008982 25.73 0)" xlink:href="#ep"/><use transform="matrix(.008982 0 0 .008982 30.19 0)" xlink:href="#cR"/></g><path id="dE" d="M317 0L163-1118h191c34 329 72 559 91 925 130-352 253-602 392-925h192c32 328 66 558 83 922 132-350 256-600 396-922h191L1175 0H996c-36-314-76-577-98-915C766-585 635-312 496 0H317"/><g id="bo"><use transform="scale(.008982)" xlink:href="#dE"/><use transform="matrix(.008982 0 0 .008982 15.05 0)" xlink:href="#dq"/><use transform="matrix(.008982 0 0 .008982 25.93 0)" xlink:href="#ek"/><use transform="matrix(.008982 0 0 .008982 36.52 0)" xlink:href="#ek"/><use transform="matrix(.008982 0 0 .008982 47.11 0)" xlink:href="#eu"/><use transform="matrix(.008982 0 0 .008982 51.57 0)" xlink:href="#ew"/></g><g id="bp"><use transform="scale(.008982)" xlink:href="#em"/><use transform="matrix(.008982 0 0 .008982 11.02 0)" xlink:href="#cP"/><use transform="matrix(.008982 0 0 .008982 21 0)" xlink:href="#em"/><use transform="matrix(.008982 0 0 .008982 32.29 0)" xlink:href="#ep"/><use transform="matrix(.008982 0 0 .008982 36.76 0)" xlink:href="#eu"/><use transform="matrix(.008982 0 0 .008982 41.21 0)" xlink:href="#em"/><use transform="matrix(.008982 0 0 .008982 52.5 0)" xlink:href="#dv"/><use transform="matrix(.008982 0 0 .008982 63.77 0)" xlink:href="#eu"/><use transform="matrix(.008982 0 0 .008982 68.23 0)" xlink:href="#ek"/><use transform="matrix(.008982 0 0 .008982 78.82 0)" xlink:href="#dD"/></g><g id="bq"><use transform="scale(.008982)" xlink:href="#em"/><use transform="matrix(.008982 0 0 .008982 11.29 0)" xlink:href="#er"/><use transform="matrix(.008982 0 0 .008982 22.17 0)" xlink:href="#cR"/></g><g id="br"><use transform="scale(.008982)" xlink:href="#dC"/><use transform="matrix(.008982 0 0 .008982 16.11 0)" xlink:href="#es"/><use transform="matrix(.008982 0 0 .008982 27.15 0)" xlink:href="#et"/><use transform="matrix(.008982 0 0 .008982 33.78 0)" xlink:href="#ek"/></g><path id="dF" d="M528 24C258 24 94-156 94-433c0-354 228-699 603-699 222 0 381 120 410 314l-176 39c-14-114-95-192-238-192-272 0-419 288-419 536 0 167 76 298 258 298 155 0 277-90 329-211l166 58C935-93 745 24 528 24"/><g id="bs"><use transform="scale(.008982)" xlink:href="#ew"/><use transform="matrix(.008982 0 0 .008982 9.701 0)" xlink:href="#dy"/><use transform="matrix(.008982 0 0 .008982 20.59 0)" xlink:href="#dF"/><use transform="matrix(.008982 0 0 .008982 31.11 0)" xlink:href="#dq"/></g><g id="bt"><use transform="scale(.008982)" xlink:href="#dF"/><use transform="matrix(.008982 0 0 .008982 10.52 0)" xlink:href="#es"/><use transform="matrix(.008982 0 0 .008982 21.56 0)" xlink:href="#er"/><use transform="matrix(.008982 0 0 .008982 32.44 0)" xlink:href="#cR"/><use transform="matrix(.008982 0 0 .008982 43.71 0)" xlink:href="#ep"/><use transform="matrix(.008982 0 0 .008982 48.17 0)" xlink:href="#en"/><use transform="matrix(.008982 0 0 .008982 54.21 0)" xlink:href="#ep"/><use transform="matrix(.008982 0 0 .008982 58.67 0)" xlink:href="#es"/><use transform="matrix(.008982 0 0 .008982 69.71 0)" xlink:href="#er"/><use transform="matrix(.008982 0 0 .008982 80.59 0)" xlink:href="#ew"/></g><path id="dG" d="M-19 405l72-156c121 32 203 15 288-150l47-93-241-1124h188c55 313 135 616 167 950 142-329 324-636 483-950h205L486 167c-97 177-219 259-378 259-59 0-109-11-127-21"/><g id="bu"><use transform="scale(.008982)" xlink:href="#dC"/><use transform="matrix(.008982 0 0 .008982 16.11 0)" xlink:href="#em"/><use transform="matrix(.008982 0 0 .008982 27.14 0)" xlink:href="#dG"/></g><g id="bv"><use transform="scale(.008982)" xlink:href="#et"/><use transform="matrix(.008982 0 0 .008982 6.629 0)" xlink:href="#ek"/><use transform="matrix(.008982 0 0 .008982 17.22 0)" xlink:href="#ew"/><use transform="matrix(.008982 0 0 .008982 26.92 0)" xlink:href="#dy"/><use transform="matrix(.008982 0 0 .008982 37.81 0)" xlink:href="#eu"/><use transform="matrix(.008982 0 0 .008982 42.53 0)" xlink:href="#en"/></g><g id="bw"><use transform="scale(.008982)" xlink:href="#ep"/><use transform="matrix(.008982 0 0 .008982 4.464 0)" xlink:href="#er"/></g><g id="bx"><use transform="scale(.008982)" xlink:href="#en"/><use transform="matrix(.008982 0 0 .008982 6.036 0)" xlink:href="#dq"/><use transform="matrix(.008982 0 0 .008982 16.91 0)" xlink:href="#ek"/></g><g id="by"><use transform="scale(.008982)" xlink:href="#ep"/><use transform="matrix(.008982 0 0 .008982 4.464 0)" xlink:href="#er"/><use transform="matrix(.008982 0 0 .008982 15.34 0)" xlink:href="#ew"/><use transform="matrix(.008982 0 0 .008982 25.04 0)" xlink:href="#en"/><use transform="matrix(.008982 0 0 .008982 30.9 0)" xlink:href="#em"/><use transform="matrix(.008982 0 0 .008982 42.19 0)" xlink:href="#eu"/><use transform="matrix(.008982 0 0 .008982 46.65 0)" xlink:href="#eu"/><use transform="matrix(.008982 0 0 .008982 51.1 0)" xlink:href="#ek"/><use transform="matrix(.008982 0 0 .008982 61.69 0)" xlink:href="#et"/></g><g id="bz"><use transform="scale(.008982)" xlink:href="#ek"/><use transform="matrix(.008982 0 0 .008982 10.59 0)" xlink:href="#et"/><use transform="matrix(.008982 0 0 .008982 17.81 0)" xlink:href="#et"/><use transform="matrix(.008982 0 0 .008982 24.44 0)" xlink:href="#es"/><use transform="matrix(.008982 0 0 .008982 35.48 0)" xlink:href="#et"/><use transform="matrix(.008982 0 0 .008982 42.7 0)" xlink:href="#ep"/><use transform="matrix(.008982 0 0 .008982 47.17 0)" xlink:href="#er"/><use transform="matrix(.008982 0 0 .008982 58.04 0)" xlink:href="#dB"/></g><g id="bA"><use transform="scale(.008982)" xlink:href="#es"/><use transform="matrix(.008982 0 0 .008982 11.04 0)" xlink:href="#dy"/><use transform="matrix(.008982 0 0 .008982 21.93 0)" xlink:href="#en"/><use transform="matrix(.008982 0 0 .008982 27.96 0)" xlink:href="#dz"/></g></defs></g></svg>
