<?xml version="1.0" encoding="UTF-8" standalone="no"?>
<svg
   width="1037"
   height="812"
   viewBox="-75 21 547.69054 426.0153"
   version="1.1"
   id="svg46"
   xmlns="http://www.w3.org/2000/svg"
   xmlns:svg="http://www.w3.org/2000/svg">
  <defs
     id="defs46" />
  <g
     id="g2"
     transform="matrix(0.52674974,0,0,0.52674974,-35.850203,8.8272705)">
    <path
       style="fill:#ffffff"
       d="m 442.625,22.3334 h 72.5 c 10.01,0 18.125,8.9543 18.125,20 0,11.0457 -8.115,20 -18.125,20 h -72.5 c -10.01,0 -18.125,-8.9543 -18.125,-20 0,-11.0457 8.115,-20 18.125,-20 z"
       id="path1" />
    <path
       style="fill:none;fill-opacity:0;stroke:#000000;stroke-width:2"
       d="m 442.625,22.3334 h 72.5 c 10.01,0 18.125,8.9543 18.125,20 0,11.0457 -8.115,20 -18.125,20 h -72.5 c -10.01,0 -18.125,-8.9543 -18.125,-20 0,-11.0457 8.115,-20 18.125,-20"
       id="path2" />
    <text
       font-size="12.8px"
       style="font-style:normal;font-weight:normal;font-family:sans-serif;text-anchor:middle;fill:#000000"
       x="478.875"
       y="47.933399"
       id="text2"><tspan
         x="478.875"
         y="47.933399"
         id="tspan2">import foo</tspan></text>
  </g>
  <g
     id="g4"
     transform="matrix(0.52674974,0,0,0.52674974,-35.850203,8.8272705)">
    <polygon
       style="fill:#ffffff"
       points="412.952,179.945 478.81,126.557 544.668,179.945 478.81,233.333 "
       id="polygon2" />
    <polygon
       style="fill:none;fill-opacity:0;stroke:#000000;stroke-width:2"
       points="412.952,179.945 478.81,126.557 544.668,179.945 478.81,233.333 "
       id="polygon3" />
    <text
       font-size="12.8px"
       style="font-style:normal;font-weight:normal;font-family:sans-serif;text-anchor:middle;fill:#000000"
       x="478.81"
       y="177.645"
       id="text4"><tspan
         x="478.81"
         y="177.645"
         id="tspan3">foo.py</tspan><tspan
         x="478.81"
         y="193.645"
         id="tspan4">found?</tspan></text>
  </g>
  <g
     id="g5"
     transform="matrix(0.52674974,0,0,0.52674974,-35.850203,8.8272705)">
    <line
       style="fill:none;fill-opacity:0;stroke:#000000;stroke-width:2"
       x1="478.87399"
       y1="62.333401"
       x2="478.82001"
       y2="116.821"
       id="line4" />
    <polygon
       style="fill:#000000"
       points="483.822,114.326 478.812,124.321 473.822,114.316 478.82,116.821 "
       id="polygon4" />
    <polygon
       style="fill:none;fill-opacity:0;stroke:#000000;stroke-width:2"
       points="483.822,114.326 478.812,124.321 473.822,114.316 478.82,116.821 "
       id="polygon5" />
  </g>
  <g
     id="g7"
     transform="matrix(0.52674974,0,0,0.52674974,-35.850203,8.8272705)">
    <rect
       style="fill:#ffffff"
       x="410.224"
       y="561"
       width="137.05"
       height="54"
       id="rect5" />
    <rect
       style="fill:none;fill-opacity:0;stroke:#000000;stroke-width:2"
       x="410.224"
       y="561"
       width="137.05"
       height="54"
       id="rect6" />
    <text
       font-size="12.8px"
       style="font-style:normal;font-weight:normal;font-family:sans-serif;text-anchor:middle;fill:#000000"
       x="478.74899"
       y="585.70001"
       id="text7"><tspan
         x="478.74899"
         y="585.70001"
         id="tspan6">load pycache/</tspan><tspan
         x="478.74899"
         y="601.70001"
         id="tspan7">foo.&lt;magic&gt;.pyc</tspan></text>
  </g>
  <g
     id="g8"
     transform="matrix(0.52674974,0,0,0.52674974,-35.850203,8.8272705)">
    <line
       style="fill:none;fill-opacity:0;stroke:#000000;stroke-width:2"
       x1="478.81"
       y1="233.334"
       x2="478.84601"
       y2="296.508"
       id="line7" />
    <polygon
       style="fill:#000000"
       points="483.845,294.005 478.851,304.008 473.845,294.011 478.846,296.508 "
       id="polygon7" />
    <polygon
       style="fill:none;fill-opacity:0;stroke:#000000;stroke-width:2"
       points="483.845,294.005 478.851,304.008 473.845,294.011 478.846,296.508 "
       id="polygon8" />
  </g>
  <text
     font-size="6.7424px"
     style="font-style:normal;font-weight:normal;font-family:sans-serif;text-anchor:start;fill:#000000;stroke-width:0.52675"
     x="201.36311"
     y="136.65154"
     id="text8"><tspan
       x="201.36311"
       y="136.65154"
       id="tspan8"
       style="stroke-width:0.52675">yes</tspan></text>
  <g
     id="g12"
     transform="matrix(0.52674974,0,0,0.52674974,-35.850203,8.8272705)">
    <polygon
       style="fill:#ffffff"
       points="375.088,397.247 478.852,306.244 582.617,397.247 478.852,488.251 "
       id="polygon9" />
    <polygon
       style="fill:none;fill-opacity:0;stroke:#000000;stroke-width:2"
       points="375.088,397.247 478.852,306.244 582.617,397.247 478.852,488.251 "
       id="polygon10" />
    <text
       font-size="12.8px"
       style="font-style:normal;font-weight:normal;font-family:sans-serif;text-anchor:middle;fill:#000000"
       x="478.85199"
       y="386.94699"
       id="text12"><tspan
         x="478.85199"
         y="386.94699"
         id="tspan10">matching</tspan><tspan
         x="478.85199"
         y="402.94699"
         id="tspan11">pycache/</tspan><tspan
         x="478.85199"
         y="418.94699"
         id="tspan12">foo.&lt;magic&gt;.pyc?</tspan></text>
  </g>
  <g
     id="g13"
     transform="matrix(0.52674974,0,0,0.52674974,-35.850203,8.8272705)">
    <line
       style="fill:none;fill-opacity:0;stroke:#000000;stroke-width:2"
       x1="478.75"
       y1="615"
       x2="478.78799"
       y2="782.83197"
       id="line12" />
    <polygon
       style="fill:#000000"
       points="483.787,780.331 478.789,790.332 473.787,780.333 478.788,782.832 "
       id="polygon12" />
    <polygon
       style="fill:none;fill-opacity:0;stroke:#000000;stroke-width:2"
       points="483.787,780.331 478.789,790.332 473.787,780.333 478.788,782.832 "
       id="polygon13" />
  </g>
  <text
     font-size="6.7424px"
     style="font-style:normal;font-weight:normal;font-family:sans-serif;text-anchor:start;fill:#000000;stroke-width:0.52675"
     x="153.95564"
     y="212.85535"
     id="text13"><tspan
       x="153.95564"
       y="212.85535"
       id="tspan13"
       style="stroke-width:0.52675">no</tspan></text>
  <g
     id="g15"
     transform="matrix(0.52674974,0,0,0.52674974,-35.850203,8.8272705)">
    <line
       style="fill:none;fill-opacity:0;stroke:#000000;stroke-width:2"
       x1="478.85199"
       y1="488.25"
       x2="478.76401"
       y2="551.26398"
       id="line13" />
    <polygon
       style="fill:#000000"
       points="483.767,548.771 478.753,558.764 473.767,548.757 478.764,551.264 "
       id="polygon14" />
    <polygon
       style="fill:none;fill-opacity:0;stroke:#000000;stroke-width:2"
       points="483.767,548.771 478.753,558.764 473.767,548.757 478.764,551.264 "
       id="polygon15" />
  </g>
  <text
     font-size="6.7424px"
     style="font-style:normal;font-weight:normal;font-family:sans-serif;text-anchor:start;fill:#000000;stroke-width:0.52675"
     x="202.53882"
     y="272.60562"
     id="text15"><tspan
       x="202.53882"
       y="272.60562"
       id="tspan15"
       style="stroke-width:0.52675">yes</tspan></text>
  <g
     id="g16"
     transform="matrix(0.52674974,0,0,0.52674974,-35.850203,8.8272705)">
    <path
       style="fill:#00ff00"
       d="m 450.767,792.568 h 56.05 c 7.738,0 14.012,8.954 14.012,20 0,11.046 -6.274,20 -14.012,20 h -56.05 c -7.739,0 -14.013,-8.954 -14.013,-20 0,-11.046 6.274,-20 14.013,-20 z"
       id="path15" />
    <path
       style="fill:none;fill-opacity:0;stroke:#000000;stroke-width:2"
       d="m 450.767,792.568 h 56.05 c 7.738,0 14.012,8.954 14.012,20 0,11.046 -6.274,20 -14.012,20 h -56.05 c -7.739,0 -14.013,-8.954 -14.013,-20 0,-11.046 6.274,-20 14.013,-20"
       id="path16" />
    <text
       font-size="12.8px"
       style="font-style:normal;font-weight:normal;font-family:sans-serif;text-anchor:middle;fill:#000000"
       x="478.79199"
       y="818.16803"
       id="text16"><tspan
         x="478.79199"
         y="818.16803"
         id="tspan16">success</tspan></text>
  </g>
  <g
     id="g17"
     transform="matrix(0.52674974,0,0,0.52674974,-35.850203,8.8272705)">
    <polyline
       style="fill:none;fill-opacity:0;stroke:#000000;stroke-width:2"
       points="1.8574,416.142 1.8574,493.334 101.564,493.334 101.564,527.502 "
       id="polyline16" />
    <polygon
       style="fill:#000000"
       points="106.564,525.002 101.564,535.002 96.5644,525.002 101.564,527.502 "
       id="polygon16" />
    <polygon
       style="fill:none;fill-opacity:0;stroke:#000000;stroke-width:2"
       points="106.564,525.002 101.564,535.002 96.5644,525.002 101.564,527.502 "
       id="polygon17" />
  </g>
  <g
     id="g20"
     transform="matrix(0.52674974,0,0,0.52674974,-35.850203,8.8272705)">
    <polygon
       style="fill:#ffffff"
       points="135.447,397.069 214,330.914 292.553,397.069 214,463.225 "
       id="polygon18" />
    <polygon
       style="fill:none;fill-opacity:0;stroke:#000000;stroke-width:2"
       points="135.447,397.069 214,330.914 292.553,397.069 214,463.225 "
       id="polygon19" />
    <text
       font-size="12.8px"
       style="font-style:normal;font-weight:normal;font-family:sans-serif;text-anchor:middle;fill:#000000"
       x="214"
       y="394.76901"
       id="text20"><tspan
         x="214"
         y="394.76901"
         id="tspan19">pycache/</tspan><tspan
         x="214"
         y="410.76901"
         id="tspan20">exists?</tspan></text>
  </g>
  <g
     id="g21"
     transform="matrix(0.52674974,0,0,0.52674974,-35.850203,8.8272705)">
    <path
       style="fill:#c55b5b"
       d="m 862.687,793.316 h 79.7 c 11.004,0 19.925,8.954 19.925,20 0,11.046 -8.921,20 -19.925,20 h -79.7 c -11.004,0 -19.925,-8.954 -19.925,-20 0,-11.046 8.921,-20 19.925,-20 z"
       id="path20" />
    <path
       style="fill:none;fill-opacity:0;stroke:#000000;stroke-width:2"
       d="m 862.687,793.316 h 79.7 c 11.004,0 19.925,8.954 19.925,20 0,11.046 -8.921,20 -19.925,20 h -79.7 c -11.004,0 -19.925,-8.954 -19.925,-20 0,-11.046 8.921,-20 19.925,-20"
       id="path21" />
    <text
       font-size="12.8px"
       style="font-style:normal;font-weight:normal;font-family:sans-serif;text-anchor:middle;fill:#000000"
       x="902.53699"
       y="818.91602"
       id="text21"><tspan
         x="902.53699"
         y="818.91602"
         id="tspan21">ImportError</tspan></text>
  </g>
  <g
     id="g22"
     transform="matrix(0.52674974,0,0,0.52674974,-35.850203,8.8272705)">
    <polyline
       style="fill:none;fill-opacity:0;stroke:#000000;stroke-width:2"
       points="820.672,179.968 902.538,179.968 902.538,783.58 "
       id="polyline21" />
    <polygon
       style="fill:#000000"
       points="907.538,781.08 902.538,791.08 897.538,781.08 902.538,783.58 "
       id="polygon21" />
    <polygon
       style="fill:none;fill-opacity:0;stroke:#000000;stroke-width:2"
       points="907.538,781.08 902.538,791.08 897.538,781.08 902.538,783.58 "
       id="polygon22" />
  </g>
  <text
     font-size="6.7424px"
     style="font-style:normal;font-weight:normal;font-family:sans-serif;text-anchor:start;fill:#000000;stroke-width:0.52675"
     x="251.75516"
     y="97.321228"
     id="text22"><tspan
       x="251.75516"
       y="97.321228"
       id="tspan22"
       style="stroke-width:0.52675">no</tspan></text>
  <g
     id="g24"
     transform="matrix(0.52674974,0,0,0.52674974,-35.850203,8.8272705)">
    <polyline
       style="fill:none;fill-opacity:0;stroke:#000000;stroke-width:2"
       points="214,463.224 214,493.334 101.564,493.334 101.564,527.502 "
       id="polyline22" />
    <polygon
       style="fill:#000000"
       points="106.564,525.002 101.564,535.002 96.5644,525.002 101.564,527.502 "
       id="polygon23" />
    <polygon
       style="fill:none;fill-opacity:0;stroke:#000000;stroke-width:2"
       points="106.564,525.002 101.564,535.002 96.5644,525.002 101.564,527.502 "
       id="polygon24" />
  </g>
  <g
     id="g27"
     transform="matrix(0.52674974,0,0,0.52674974,-35.850203,8.8272705)">
    <rect
       style="fill:#ffffff"
       x="5.0833201"
       y="611"
       width="193"
       height="70"
       id="rect24" />
    <rect
       style="fill:none;fill-opacity:0;stroke:#000000;stroke-width:2"
       x="5.0833201"
       y="611"
       width="193"
       height="70"
       id="rect25" />
    <text
       font-size="12.8px"
       style="font-style:normal;font-weight:normal;font-family:sans-serif;text-anchor:middle;fill:#000000"
       x="101.583"
       y="635.70001"
       id="text27"><tspan
         x="101.583"
         y="635.70001"
         id="tspan25">write</tspan><tspan
         x="101.583"
         y="651.70001"
         id="tspan26">pycache/</tspan><tspan
         x="101.583"
         y="667.70001"
         id="tspan27">foo.&lt;magic&gt;.pyc</tspan></text>
  </g>
  <text
     font-size="6.7424px"
     style="font-style:normal;font-weight:normal;font-family:sans-serif;text-anchor:start;fill:#000000;stroke-width:0.52675"
     x="81.000801"
     y="258.26117"
     id="text28"><tspan
       x="81.000801"
       y="258.26117"
       id="tspan28"
       style="stroke-width:0.52675">yes</tspan></text>
  <text
     font-size="6.7424px"
     style="font-style:normal;font-weight:normal;font-family:sans-serif;text-anchor:start;fill:#000000;stroke-width:0.52675"
     x="27.711109"
     y="210.39648"
     id="text29"><tspan
       x="27.711109"
       y="210.39648"
       id="tspan29"
       style="stroke-width:0.52675">no</tspan></text>
  <g
     id="g30"
     transform="matrix(0.52674974,0,0,0.52674974,-35.850203,8.8272705)">
    <line
       style="fill:none;fill-opacity:0;stroke:#000000;stroke-width:2"
       x1="375.08801"
       y1="397.246"
       x2="302.29001"
       y2="397.08899"
       id="line29" />
    <polygon
       style="fill:#000000"
       points="304.779,402.094 294.79,397.073 304.801,392.094 302.29,397.089 "
       id="polygon29" />
    <polygon
       style="fill:none;fill-opacity:0;stroke:#000000;stroke-width:2"
       points="304.779,402.094 294.79,397.073 304.801,392.094 302.29,397.089 "
       id="polygon30" />
  </g>
  <g
     id="g31"
     transform="matrix(0.52674974,0,0,0.52674974,-35.850203,8.8272705)">
    <rect
       style="fill:#ffffff"
       x="-73.292603"
       y="378.142"
       width="150.3"
       height="38"
       id="rect30" />
    <rect
       style="fill:none;fill-opacity:0;stroke:#000000;stroke-width:2"
       x="-73.292603"
       y="378.142"
       width="150.3"
       height="38"
       id="rect31" />
    <text
       font-size="12.8px"
       style="font-style:normal;font-weight:normal;font-family:sans-serif;text-anchor:middle;fill:#000000"
       x="1.8573999"
       y="402.84201"
       id="text31"><tspan
         x="1.8573999"
         y="402.84201"
         id="tspan31">create pycache/</tspan></text>
  </g>
  <g
     id="g32"
     transform="matrix(0.52674974,0,0,0.52674974,-35.850203,8.8272705)">
    <line
       style="fill:none;fill-opacity:0;stroke:#000000;stroke-width:2"
       x1="135.44701"
       y1="397.06799"
       x2="86.7435"
       y2="397.13"
       id="line31" />
    <polygon
       style="fill:#000000"
       points="89.2498,402.127 79.2435,397.139 89.2371,392.127 86.7435,397.13 "
       id="polygon31" />
    <polygon
       style="fill:none;fill-opacity:0;stroke:#000000;stroke-width:2"
       points="89.2498,402.127 79.2435,397.139 89.2371,392.127 86.7435,397.13 "
       id="polygon32" />
  </g>
  <g
     id="g34"
     transform="matrix(0.52674974,0,0,0.52674974,-35.850203,8.8272705)">
    <polyline
       style="fill:none;fill-opacity:0;stroke:#000000;stroke-width:2"
       points="101.583,681 101.583,720.822 478.79,720.822 478.79,782.832 "
       id="polyline32" />
    <polygon
       style="fill:#000000"
       points="483.79,780.332 478.79,790.332 473.79,780.332 478.79,782.832 "
       id="polygon33" />
    <polygon
       style="fill:none;fill-opacity:0;stroke:#000000;stroke-width:2"
       points="483.79,780.332 478.79,790.332 473.79,780.332 478.79,782.832 "
       id="polygon34" />
  </g>
  <g
     id="g38"
     transform="matrix(0.52674974,0,0,0.52674974,-35.850203,8.8272705)">
    <polygon
       style="fill:#ffffff"
       points="663.084,179.968 741.878,117.723 820.672,179.968 741.878,242.212 "
       id="polygon35" />
    <polygon
       style="fill:none;fill-opacity:0;stroke:#000000;stroke-width:2"
       points="663.084,179.968 741.878,117.723 820.672,179.968 741.878,242.212 "
       id="polygon36" />
    <text
       font-size="12.8px"
       style="font-style:normal;font-weight:normal;font-family:sans-serif;text-anchor:middle;fill:#000000"
       x="741.87799"
       y="169.668"
       id="text38"><tspan
         x="741.87799"
         y="169.668"
         id="tspan36">matching</tspan><tspan
         x="741.87799"
         y="185.668"
         id="tspan37">foo.pyc</tspan><tspan
         x="741.87799"
         y="201.668"
         id="tspan38">found?</tspan></text>
  </g>
  <g
     id="g39"
     transform="matrix(0.52674974,0,0,0.52674974,-35.850203,8.8272705)">
    <line
       style="fill:none;fill-opacity:0;stroke:#000000;stroke-width:2"
       x1="544.66803"
       y1="179.94501"
       x2="653.34802"
       y2="179.966"
       id="line38" />
    <polygon
       style="fill:#000000"
       points="650.849,174.965 660.848,179.967 650.847,184.965 653.348,179.966 "
       id="polygon38" />
    <polygon
       style="fill:none;fill-opacity:0;stroke:#000000;stroke-width:2"
       points="650.849,174.965 660.848,179.967 650.847,184.965 653.348,179.966 "
       id="polygon39" />
  </g>
  <g
     id="g40"
     transform="matrix(0.52674974,0,0,0.52674974,-35.850203,8.8272705)">
    <rect
       style="fill:#ffffff"
       x="677.20801"
       y="372.26001"
       width="129.33299"
       height="61"
       id="rect39" />
    <rect
       style="fill:none;fill-opacity:0;stroke:#000000;stroke-width:2"
       x="677.20801"
       y="372.26001"
       width="129.33299"
       height="61"
       id="rect40" />
    <text
       font-size="12.8px"
       style="font-style:normal;font-weight:normal;font-family:sans-serif;text-anchor:middle;fill:#000000"
       x="741.875"
       y="408.45999"
       id="text40"><tspan
         x="741.875"
         y="408.45999"
         id="tspan40">load foo.pyc</tspan></text>
  </g>
  <g
     id="g41"
     transform="matrix(0.52674974,0,0,0.52674974,-35.850203,8.8272705)">
    <line
       style="fill:none;fill-opacity:0;stroke:#000000;stroke-width:2"
       x1="741.87799"
       y1="242.21201"
       x2="741.87402"
       y2="362.52399"
       id="line40" />
    <polygon
       style="fill:#000000"
       points="746.874,360.024 741.874,370.024 736.874,360.024 741.874,362.524 "
       id="polygon40" />
    <polygon
       style="fill:none;fill-opacity:0;stroke:#000000;stroke-width:2"
       points="746.874,360.024 741.874,370.024 736.874,360.024 741.874,362.524 "
       id="polygon41" />
  </g>
  <g
     id="g43"
     transform="matrix(0.52674974,0,0,0.52674974,-35.850203,8.8272705)">
    <polyline
       style="fill:none;fill-opacity:0;stroke:#000000;stroke-width:2"
       points="741.874,433.26 741.874,720.634 478.79,720.634 478.79,782.832 "
       id="polyline41" />
    <polygon
       style="fill:#000000"
       points="483.79,780.332 478.79,790.332 473.79,780.332 478.79,782.832 "
       id="polygon42" />
    <polygon
       style="fill:none;fill-opacity:0;stroke:#000000;stroke-width:2"
       points="483.79,780.332 478.79,790.332 473.79,780.332 478.79,782.832 "
       id="polygon43" />
  </g>
  <text
     font-size="6.7424px"
     style="font-style:normal;font-weight:normal;font-family:sans-serif;text-anchor:start;fill:#000000;stroke-width:0.52675"
     x="399.84241"
     y="98.656013"
     id="text43"><tspan
       x="399.84241"
       y="98.656013"
       id="tspan43"
       style="stroke-width:0.52675">no</tspan></text>
  <text
     font-size="6.7424px"
     style="font-style:normal;font-weight:normal;font-family:sans-serif;text-anchor:start;fill:#000000;stroke-width:0.52675"
     x="338.73944"
     y="144.30731"
     id="text44"><tspan
       x="338.73944"
       y="144.30731"
       id="tspan44"
       style="stroke-width:0.52675">yes</tspan></text>
  <g
     id="g45"
     transform="matrix(0.52674974,0,0,0.52674974,-35.850203,8.8272705)">
    <rect
       style="fill:#ffffff"
       x="27.0394"
       y="537.23798"
       width="149.05"
       height="38"
       id="rect44" />
    <rect
       style="fill:none;fill-opacity:0;stroke:#000000;stroke-width:2"
       x="27.0394"
       y="537.23798"
       width="149.05"
       height="38"
       id="rect45" />
    <text
       font-size="12.8px"
       style="font-style:normal;font-weight:normal;font-family:sans-serif;text-anchor:middle;fill:#000000"
       x="101.564"
       y="561.93799"
       id="text45"><tspan
         x="101.564"
         y="561.93799"
         id="tspan45">byte compile foo.py</tspan></text>
  </g>
  <g
     id="g46"
     transform="matrix(0.52674974,0,0,0.52674974,-35.850203,8.8272705)">
    <line
       style="fill:none;fill-opacity:0;stroke:#000000;stroke-width:2"
       x1="101.564"
       y1="575.23798"
       x2="101.578"
       y2="601.26398"
       id="line45" />
    <polygon
       style="fill:#000000"
       points="106.577,598.761 101.582,608.764 96.5769,598.767 101.578,601.264 "
       id="polygon45" />
    <polygon
       style="fill:none;fill-opacity:0;stroke:#000000;stroke-width:2"
       points="106.577,598.761 101.582,608.764 96.5769,598.767 101.578,601.264 "
       id="polygon46" />
  </g>
</svg>
