<?xml version="1.0" encoding="utf-8" standalone="no"?>
<!DOCTYPE svg PUBLIC "-//W3C//DTD SVG 1.1//EN"
  "http://www.w3.org/Graphics/SVG/1.1/DTD/svg11.dtd">
<svg xmlns:xlink="http://www.w3.org/1999/xlink" width="460.8pt" height="345.6pt" viewBox="0 0 460.8 345.6" xmlns="http://www.w3.org/2000/svg" version="1.1">
 <metadata>
  <rdf:RDF xmlns:dc="http://purl.org/dc/elements/1.1/" xmlns:cc="http://creativecommons.org/ns#" xmlns:rdf="http://www.w3.org/1999/02/22-rdf-syntax-ns#">
   <cc:Work>
    <dc:type rdf:resource="http://purl.org/dc/dcmitype/StillImage"/>
    <dc:date>2026-04-13T22:12:52.072031</dc:date>
    <dc:format>image/svg+xml</dc:format>
    <dc:creator>
     <cc:Agent>
      <dc:title>Matplotlib v3.10.8, https://matplotlib.org/</dc:title>
     </cc:Agent>
    </dc:creator>
   </cc:Work>
  </rdf:RDF>
 </metadata>
 <defs>
  <style type="text/css">*{stroke-linejoin: round; stroke-linecap: butt}</style>
 </defs>
 <g id="figure_1">
  <g id="patch_1">
   <path d="M 0 345.6 
L 460.8 345.6 
L 460.8 0 
L 0 0 
z
" style="fill: #ffffff"/>
  </g>
  <g id="axes_1">
   <g id="patch_2">
    <path d="M 54.323678 189.851766 
L 457.79976 189.851766 
L 457.79976 3.00024 
L 54.323678 3.00024 
z
" style="fill: #ffffff"/>
   </g>
   <g id="matplotlib.axis_1">
    <g id="xtick_1">
     <g id="line2d_1">
      <path d="M 79.540933 189.851766 
L 79.540933 3.00024 
" clip-path="url(#p7d927e001a)" style="fill: none; stroke: #b0b0b0; stroke-width: 0.8; stroke-linecap: square"/>
     </g>
     <g id="line2d_2">
      <defs>
       <path id="m93f19bce48" d="M 0 0 
L 0 3.5 
" style="stroke: #000000; stroke-width: 0.8"/>
      </defs>
      <g>
       <use xlink:href="#m93f19bce48" x="79.540933" y="189.851766" style="stroke: #000000; stroke-width: 0.8"/>
      </g>
     </g>
     <g id="text_1">
      <!-- macOS M2 -->
      <g transform="translate(40.058963 240.236082) rotate(-45) scale(0.1 -0.1)">
       <defs>
        <path id="DejaVuSans-6d" d="M 3328 2828 
Q 3544 3216 3844 3400 
Q 4144 3584 4550 3584 
Q 5097 3584 5394 3201 
Q 5691 2819 5691 2113 
L 5691 0 
L 5113 0 
L 5113 2094 
Q 5113 2597 4934 2840 
Q 4756 3084 4391 3084 
Q 3944 3084 3684 2787 
Q 3425 2491 3425 1978 
L 3425 0 
L 2847 0 
L 2847 2094 
Q 2847 2600 2669 2842 
Q 2491 3084 2119 3084 
Q 1678 3084 1418 2786 
Q 1159 2488 1159 1978 
L 1159 0 
L 581 0 
L 581 3500 
L 1159 3500 
L 1159 2956 
Q 1356 3278 1631 3431 
Q 1906 3584 2284 3584 
Q 2666 3584 2933 3390 
Q 3200 3197 3328 2828 
z
" transform="scale(0.015625)"/>
        <path id="DejaVuSans-61" d="M 2194 1759 
Q 1497 1759 1228 1600 
Q 959 1441 959 1056 
Q 959 750 1161 570 
Q 1363 391 1709 391 
Q 2188 391 2477 730 
Q 2766 1069 2766 1631 
L 2766 1759 
L 2194 1759 
z
M 3341 1997 
L 3341 0 
L 2766 0 
L 2766 531 
Q 2569 213 2275 61 
Q 1981 -91 1556 -91 
Q 1019 -91 701 211 
Q 384 513 384 1019 
Q 384 1609 779 1909 
Q 1175 2209 1959 2209 
L 2766 2209 
L 2766 2266 
Q 2766 2663 2505 2880 
Q 2244 3097 1772 3097 
Q 1472 3097 1187 3025 
Q 903 2953 641 2809 
L 641 3341 
Q 956 3463 1253 3523 
Q 1550 3584 1831 3584 
Q 2591 3584 2966 3190 
Q 3341 2797 3341 1997 
z
" transform="scale(0.015625)"/>
        <path id="DejaVuSans-63" d="M 3122 3366 
L 3122 2828 
Q 2878 2963 2633 3030 
Q 2388 3097 2138 3097 
Q 1578 3097 1268 2742 
Q 959 2388 959 1747 
Q 959 1106 1268 751 
Q 1578 397 2138 397 
Q 2388 397 2633 464 
Q 2878 531 3122 666 
L 3122 134 
Q 2881 22 2623 -34 
Q 2366 -91 2075 -91 
Q 1284 -91 818 406 
Q 353 903 353 1747 
Q 353 2603 823 3093 
Q 1294 3584 2113 3584 
Q 2378 3584 2631 3529 
Q 2884 3475 3122 3366 
z
" transform="scale(0.015625)"/>
        <path id="DejaVuSans-4f" d="M 2522 4238 
Q 1834 4238 1429 3725 
Q 1025 3213 1025 2328 
Q 1025 1447 1429 934 
Q 1834 422 2522 422 
Q 3209 422 3611 934 
Q 4013 1447 4013 2328 
Q 4013 3213 3611 3725 
Q 3209 4238 2522 4238 
z
M 2522 4750 
Q 3503 4750 4090 4092 
Q 4678 3434 4678 2328 
Q 4678 1225 4090 567 
Q 3503 -91 2522 -91 
Q 1538 -91 948 565 
Q 359 1222 359 2328 
Q 359 3434 948 4092 
Q 1538 4750 2522 4750 
z
" transform="scale(0.015625)"/>
        <path id="DejaVuSans-53" d="M 3425 4513 
L 3425 3897 
Q 3066 4069 2747 4153 
Q 2428 4238 2131 4238 
Q 1616 4238 1336 4038 
Q 1056 3838 1056 3469 
Q 1056 3159 1242 3001 
Q 1428 2844 1947 2747 
L 2328 2669 
Q 3034 2534 3370 2195 
Q 3706 1856 3706 1288 
Q 3706 609 3251 259 
Q 2797 -91 1919 -91 
Q 1588 -91 1214 -16 
Q 841 59 441 206 
L 441 856 
Q 825 641 1194 531 
Q 1563 422 1919 422 
Q 2459 422 2753 634 
Q 3047 847 3047 1241 
Q 3047 1584 2836 1778 
Q 2625 1972 2144 2069 
L 1759 2144 
Q 1053 2284 737 2584 
Q 422 2884 422 3419 
Q 422 4038 858 4394 
Q 1294 4750 2059 4750 
Q 2388 4750 2728 4690 
Q 3069 4631 3425 4513 
z
" transform="scale(0.015625)"/>
        <path id="DejaVuSans-20" transform="scale(0.015625)"/>
        <path id="DejaVuSans-4d" d="M 628 4666 
L 1569 4666 
L 2759 1491 
L 3956 4666 
L 4897 4666 
L 4897 0 
L 4281 0 
L 4281 4097 
L 3078 897 
L 2444 897 
L 1241 4097 
L 1241 0 
L 628 0 
L 628 4666 
z
" transform="scale(0.015625)"/>
        <path id="DejaVuSans-32" d="M 1228 531 
L 3431 531 
L 3431 0 
L 469 0 
L 469 531 
Q 828 903 1448 1529 
Q 2069 2156 2228 2338 
Q 2531 2678 2651 2914 
Q 2772 3150 2772 3378 
Q 2772 3750 2511 3984 
Q 2250 4219 1831 4219 
Q 1534 4219 1204 4116 
Q 875 4013 500 3803 
L 500 4441 
Q 881 4594 1212 4672 
Q 1544 4750 1819 4750 
Q 2544 4750 2975 4387 
Q 3406 4025 3406 3419 
Q 3406 3131 3298 2873 
Q 3191 2616 2906 2266 
Q 2828 2175 2409 1742 
Q 1991 1309 1228 531 
z
" transform="scale(0.015625)"/>
       </defs>
       <use xlink:href="#DejaVuSans-6d"/>
       <use xlink:href="#DejaVuSans-61" transform="translate(97.412109 0)"/>
       <use xlink:href="#DejaVuSans-63" transform="translate(158.691406 0)"/>
       <use xlink:href="#DejaVuSans-4f" transform="translate(213.671875 0)"/>
       <use xlink:href="#DejaVuSans-53" transform="translate(292.382812 0)"/>
       <use xlink:href="#DejaVuSans-20" transform="translate(355.859375 0)"/>
       <use xlink:href="#DejaVuSans-4d" transform="translate(387.646484 0)"/>
       <use xlink:href="#DejaVuSans-32" transform="translate(473.925781 0)"/>
      </g>
     </g>
    </g>
    <g id="xtick_2">
     <g id="line2d_3">
      <path d="M 129.975443 189.851766 
L 129.975443 3.00024 
" clip-path="url(#p7d927e001a)" style="fill: none; stroke: #b0b0b0; stroke-width: 0.8; stroke-linecap: square"/>
     </g>
     <g id="line2d_4">
      <g>
       <use xlink:href="#m93f19bce48" x="129.975443" y="189.851766" style="stroke: #000000; stroke-width: 0.8"/>
      </g>
     </g>
     <g id="text_2">
      <!-- macOS M3Pro -->
      <g transform="translate(79.279201 251.450353) rotate(-45) scale(0.1 -0.1)">
       <defs>
        <path id="DejaVuSans-33" d="M 2597 2516 
Q 3050 2419 3304 2112 
Q 3559 1806 3559 1356 
Q 3559 666 3084 287 
Q 2609 -91 1734 -91 
Q 1441 -91 1130 -33 
Q 819 25 488 141 
L 488 750 
Q 750 597 1062 519 
Q 1375 441 1716 441 
Q 2309 441 2620 675 
Q 2931 909 2931 1356 
Q 2931 1769 2642 2001 
Q 2353 2234 1838 2234 
L 1294 2234 
L 1294 2753 
L 1863 2753 
Q 2328 2753 2575 2939 
Q 2822 3125 2822 3475 
Q 2822 3834 2567 4026 
Q 2313 4219 1838 4219 
Q 1578 4219 1281 4162 
Q 984 4106 628 3988 
L 628 4550 
Q 988 4650 1302 4700 
Q 1616 4750 1894 4750 
Q 2613 4750 3031 4423 
Q 3450 4097 3450 3541 
Q 3450 3153 3228 2886 
Q 3006 2619 2597 2516 
z
" transform="scale(0.015625)"/>
        <path id="DejaVuSans-50" d="M 1259 4147 
L 1259 2394 
L 2053 2394 
Q 2494 2394 2734 2622 
Q 2975 2850 2975 3272 
Q 2975 3691 2734 3919 
Q 2494 4147 2053 4147 
L 1259 4147 
z
M 628 4666 
L 2053 4666 
Q 2838 4666 3239 4311 
Q 3641 3956 3641 3272 
Q 3641 2581 3239 2228 
Q 2838 1875 2053 1875 
L 1259 1875 
L 1259 0 
L 628 0 
L 628 4666 
z
" transform="scale(0.015625)"/>
        <path id="DejaVuSans-72" d="M 2631 2963 
Q 2534 3019 2420 3045 
Q 2306 3072 2169 3072 
Q 1681 3072 1420 2755 
Q 1159 2438 1159 1844 
L 1159 0 
L 581 0 
L 581 3500 
L 1159 3500 
L 1159 2956 
Q 1341 3275 1631 3429 
Q 1922 3584 2338 3584 
Q 2397 3584 2469 3576 
Q 2541 3569 2628 3553 
L 2631 2963 
z
" transform="scale(0.015625)"/>
        <path id="DejaVuSans-6f" d="M 1959 3097 
Q 1497 3097 1228 2736 
Q 959 2375 959 1747 
Q 959 1119 1226 758 
Q 1494 397 1959 397 
Q 2419 397 2687 759 
Q 2956 1122 2956 1747 
Q 2956 2369 2687 2733 
Q 2419 3097 1959 3097 
z
M 1959 3584 
Q 2709 3584 3137 3096 
Q 3566 2609 3566 1747 
Q 3566 888 3137 398 
Q 2709 -91 1959 -91 
Q 1206 -91 779 398 
Q 353 888 353 1747 
Q 353 2609 779 3096 
Q 1206 3584 1959 3584 
z
" transform="scale(0.015625)"/>
       </defs>
       <use xlink:href="#DejaVuSans-6d"/>
       <use xlink:href="#DejaVuSans-61" transform="translate(97.412109 0)"/>
       <use xlink:href="#DejaVuSans-63" transform="translate(158.691406 0)"/>
       <use xlink:href="#DejaVuSans-4f" transform="translate(213.671875 0)"/>
       <use xlink:href="#DejaVuSans-53" transform="translate(292.382812 0)"/>
       <use xlink:href="#DejaVuSans-20" transform="translate(355.859375 0)"/>
       <use xlink:href="#DejaVuSans-4d" transform="translate(387.646484 0)"/>
       <use xlink:href="#DejaVuSans-33" transform="translate(473.925781 0)"/>
       <use xlink:href="#DejaVuSans-50" transform="translate(537.548828 0)"/>
       <use xlink:href="#DejaVuSans-72" transform="translate(596.101562 0)"/>
       <use xlink:href="#DejaVuSans-6f" transform="translate(634.964844 0)"/>
      </g>
     </g>
    </g>
    <g id="xtick_3">
     <g id="line2d_5">
      <path d="M 180.409953 189.851766 
L 180.409953 3.00024 
" clip-path="url(#p7d927e001a)" style="fill: none; stroke: #b0b0b0; stroke-width: 0.8; stroke-linecap: square"/>
     </g>
     <g id="line2d_6">
      <g>
       <use xlink:href="#m93f19bce48" x="180.409953" y="189.851766" style="stroke: #000000; stroke-width: 0.8"/>
      </g>
     </g>
     <g id="text_3">
      <!-- Debian RPi5 -->
      <g transform="translate(136.147278 245.016786) rotate(-45) scale(0.1 -0.1)">
       <defs>
        <path id="DejaVuSans-44" d="M 1259 4147 
L 1259 519 
L 2022 519 
Q 2988 519 3436 956 
Q 3884 1394 3884 2338 
Q 3884 3275 3436 3711 
Q 2988 4147 2022 4147 
L 1259 4147 
z
M 628 4666 
L 1925 4666 
Q 3281 4666 3915 4102 
Q 4550 3538 4550 2338 
Q 4550 1131 3912 565 
Q 3275 0 1925 0 
L 628 0 
L 628 4666 
z
" transform="scale(0.015625)"/>
        <path id="DejaVuSans-65" d="M 3597 1894 
L 3597 1613 
L 953 1613 
Q 991 1019 1311 708 
Q 1631 397 2203 397 
Q 2534 397 2845 478 
Q 3156 559 3463 722 
L 3463 178 
Q 3153 47 2828 -22 
Q 2503 -91 2169 -91 
Q 1331 -91 842 396 
Q 353 884 353 1716 
Q 353 2575 817 3079 
Q 1281 3584 2069 3584 
Q 2775 3584 3186 3129 
Q 3597 2675 3597 1894 
z
M 3022 2063 
Q 3016 2534 2758 2815 
Q 2500 3097 2075 3097 
Q 1594 3097 1305 2825 
Q 1016 2553 972 2059 
L 3022 2063 
z
" transform="scale(0.015625)"/>
        <path id="DejaVuSans-62" d="M 3116 1747 
Q 3116 2381 2855 2742 
Q 2594 3103 2138 3103 
Q 1681 3103 1420 2742 
Q 1159 2381 1159 1747 
Q 1159 1113 1420 752 
Q 1681 391 2138 391 
Q 2594 391 2855 752 
Q 3116 1113 3116 1747 
z
M 1159 2969 
Q 1341 3281 1617 3432 
Q 1894 3584 2278 3584 
Q 2916 3584 3314 3078 
Q 3713 2572 3713 1747 
Q 3713 922 3314 415 
Q 2916 -91 2278 -91 
Q 1894 -91 1617 61 
Q 1341 213 1159 525 
L 1159 0 
L 581 0 
L 581 4863 
L 1159 4863 
L 1159 2969 
z
" transform="scale(0.015625)"/>
        <path id="DejaVuSans-69" d="M 603 3500 
L 1178 3500 
L 1178 0 
L 603 0 
L 603 3500 
z
M 603 4863 
L 1178 4863 
L 1178 4134 
L 603 4134 
L 603 4863 
z
" transform="scale(0.015625)"/>
        <path id="DejaVuSans-6e" d="M 3513 2113 
L 3513 0 
L 2938 0 
L 2938 2094 
Q 2938 2591 2744 2837 
Q 2550 3084 2163 3084 
Q 1697 3084 1428 2787 
Q 1159 2491 1159 1978 
L 1159 0 
L 581 0 
L 581 3500 
L 1159 3500 
L 1159 2956 
Q 1366 3272 1645 3428 
Q 1925 3584 2291 3584 
Q 2894 3584 3203 3211 
Q 3513 2838 3513 2113 
z
" transform="scale(0.015625)"/>
        <path id="DejaVuSans-52" d="M 2841 2188 
Q 3044 2119 3236 1894 
Q 3428 1669 3622 1275 
L 4263 0 
L 3584 0 
L 2988 1197 
Q 2756 1666 2539 1819 
Q 2322 1972 1947 1972 
L 1259 1972 
L 1259 0 
L 628 0 
L 628 4666 
L 2053 4666 
Q 2853 4666 3247 4331 
Q 3641 3997 3641 3322 
Q 3641 2881 3436 2590 
Q 3231 2300 2841 2188 
z
M 1259 4147 
L 1259 2491 
L 2053 2491 
Q 2509 2491 2742 2702 
Q 2975 2913 2975 3322 
Q 2975 3731 2742 3939 
Q 2509 4147 2053 4147 
L 1259 4147 
z
" transform="scale(0.015625)"/>
        <path id="DejaVuSans-35" d="M 691 4666 
L 3169 4666 
L 3169 4134 
L 1269 4134 
L 1269 2991 
Q 1406 3038 1543 3061 
Q 1681 3084 1819 3084 
Q 2600 3084 3056 2656 
Q 3513 2228 3513 1497 
Q 3513 744 3044 326 
Q 2575 -91 1722 -91 
Q 1428 -91 1123 -41 
Q 819 9 494 109 
L 494 744 
Q 775 591 1075 516 
Q 1375 441 1709 441 
Q 2250 441 2565 725 
Q 2881 1009 2881 1497 
Q 2881 1984 2565 2268 
Q 2250 2553 1709 2553 
Q 1456 2553 1204 2497 
Q 953 2441 691 2322 
L 691 4666 
z
" transform="scale(0.015625)"/>
       </defs>
       <use xlink:href="#DejaVuSans-44"/>
       <use xlink:href="#DejaVuSans-65" transform="translate(77.001953 0)"/>
       <use xlink:href="#DejaVuSans-62" transform="translate(138.525391 0)"/>
       <use xlink:href="#DejaVuSans-69" transform="translate(202.001953 0)"/>
       <use xlink:href="#DejaVuSans-61" transform="translate(229.785156 0)"/>
       <use xlink:href="#DejaVuSans-6e" transform="translate(291.064453 0)"/>
       <use xlink:href="#DejaVuSans-20" transform="translate(354.443359 0)"/>
       <use xlink:href="#DejaVuSans-52" transform="translate(386.230469 0)"/>
       <use xlink:href="#DejaVuSans-50" transform="translate(455.712891 0)"/>
       <use xlink:href="#DejaVuSans-69" transform="translate(513.765625 0)"/>
       <use xlink:href="#DejaVuSans-35" transform="translate(541.548828 0)"/>
      </g>
     </g>
    </g>
    <g id="xtick_4">
     <g id="line2d_7">
      <path d="M 230.844464 189.851766 
L 230.844464 3.00024 
" clip-path="url(#p7d927e001a)" style="fill: none; stroke: #b0b0b0; stroke-width: 0.8; stroke-linecap: square"/>
     </g>
     <g id="line2d_8">
      <g>
       <use xlink:href="#m93f19bce48" x="230.844464" y="189.851766" style="stroke: #000000; stroke-width: 0.8"/>
      </g>
     </g>
     <g id="text_4">
      <!-- Ubuntu Ampere Altra Max -->
      <g transform="translate(137.655524 293.943051) rotate(-45) scale(0.1 -0.1)">
       <defs>
        <path id="DejaVuSans-55" d="M 556 4666 
L 1191 4666 
L 1191 1831 
Q 1191 1081 1462 751 
Q 1734 422 2344 422 
Q 2950 422 3222 751 
Q 3494 1081 3494 1831 
L 3494 4666 
L 4128 4666 
L 4128 1753 
Q 4128 841 3676 375 
Q 3225 -91 2344 -91 
Q 1459 -91 1007 375 
Q 556 841 556 1753 
L 556 4666 
z
" transform="scale(0.015625)"/>
        <path id="DejaVuSans-75" d="M 544 1381 
L 544 3500 
L 1119 3500 
L 1119 1403 
Q 1119 906 1312 657 
Q 1506 409 1894 409 
Q 2359 409 2629 706 
Q 2900 1003 2900 1516 
L 2900 3500 
L 3475 3500 
L 3475 0 
L 2900 0 
L 2900 538 
Q 2691 219 2414 64 
Q 2138 -91 1772 -91 
Q 1169 -91 856 284 
Q 544 659 544 1381 
z
M 1991 3584 
L 1991 3584 
z
" transform="scale(0.015625)"/>
        <path id="DejaVuSans-74" d="M 1172 4494 
L 1172 3500 
L 2356 3500 
L 2356 3053 
L 1172 3053 
L 1172 1153 
Q 1172 725 1289 603 
Q 1406 481 1766 481 
L 2356 481 
L 2356 0 
L 1766 0 
Q 1100 0 847 248 
Q 594 497 594 1153 
L 594 3053 
L 172 3053 
L 172 3500 
L 594 3500 
L 594 4494 
L 1172 4494 
z
" transform="scale(0.015625)"/>
        <path id="DejaVuSans-41" d="M 2188 4044 
L 1331 1722 
L 3047 1722 
L 2188 4044 
z
M 1831 4666 
L 2547 4666 
L 4325 0 
L 3669 0 
L 3244 1197 
L 1141 1197 
L 716 0 
L 50 0 
L 1831 4666 
z
" transform="scale(0.015625)"/>
        <path id="DejaVuSans-70" d="M 1159 525 
L 1159 -1331 
L 581 -1331 
L 581 3500 
L 1159 3500 
L 1159 2969 
Q 1341 3281 1617 3432 
Q 1894 3584 2278 3584 
Q 2916 3584 3314 3078 
Q 3713 2572 3713 1747 
Q 3713 922 3314 415 
Q 2916 -91 2278 -91 
Q 1894 -91 1617 61 
Q 1341 213 1159 525 
z
M 3116 1747 
Q 3116 2381 2855 2742 
Q 2594 3103 2138 3103 
Q 1681 3103 1420 2742 
Q 1159 2381 1159 1747 
Q 1159 1113 1420 752 
Q 1681 391 2138 391 
Q 2594 391 2855 752 
Q 3116 1113 3116 1747 
z
" transform="scale(0.015625)"/>
        <path id="DejaVuSans-6c" d="M 603 4863 
L 1178 4863 
L 1178 0 
L 603 0 
L 603 4863 
z
" transform="scale(0.015625)"/>
        <path id="DejaVuSans-78" d="M 3513 3500 
L 2247 1797 
L 3578 0 
L 2900 0 
L 1881 1375 
L 863 0 
L 184 0 
L 1544 1831 
L 300 3500 
L 978 3500 
L 1906 2253 
L 2834 3500 
L 3513 3500 
z
" transform="scale(0.015625)"/>
       </defs>
       <use xlink:href="#DejaVuSans-55"/>
       <use xlink:href="#DejaVuSans-62" transform="translate(73.193359 0)"/>
       <use xlink:href="#DejaVuSans-75" transform="translate(136.669922 0)"/>
       <use xlink:href="#DejaVuSans-6e" transform="translate(200.048828 0)"/>
       <use xlink:href="#DejaVuSans-74" transform="translate(263.427734 0)"/>
       <use xlink:href="#DejaVuSans-75" transform="translate(302.636719 0)"/>
       <use xlink:href="#DejaVuSans-20" transform="translate(366.015625 0)"/>
       <use xlink:href="#DejaVuSans-41" transform="translate(397.802734 0)"/>
       <use xlink:href="#DejaVuSans-6d" transform="translate(466.210938 0)"/>
       <use xlink:href="#DejaVuSans-70" transform="translate(563.623047 0)"/>
       <use xlink:href="#DejaVuSans-65" transform="translate(627.099609 0)"/>
       <use xlink:href="#DejaVuSans-72" transform="translate(688.623047 0)"/>
       <use xlink:href="#DejaVuSans-65" transform="translate(727.486328 0)"/>
       <use xlink:href="#DejaVuSans-20" transform="translate(789.009766 0)"/>
       <use xlink:href="#DejaVuSans-41" transform="translate(820.796875 0)"/>
       <use xlink:href="#DejaVuSans-6c" transform="translate(889.205078 0)"/>
       <use xlink:href="#DejaVuSans-74" transform="translate(916.988281 0)"/>
       <use xlink:href="#DejaVuSans-72" transform="translate(956.197266 0)"/>
       <use xlink:href="#DejaVuSans-61" transform="translate(997.310547 0)"/>
       <use xlink:href="#DejaVuSans-20" transform="translate(1058.589844 0)"/>
       <use xlink:href="#DejaVuSans-4d" transform="translate(1090.376953 0)"/>
       <use xlink:href="#DejaVuSans-61" transform="translate(1176.65625 0)"/>
       <use xlink:href="#DejaVuSans-78" transform="translate(1237.935547 0)"/>
      </g>
     </g>
    </g>
    <g id="xtick_5">
     <g id="line2d_9">
      <path d="M 281.278974 189.851766 
L 281.278974 3.00024 
" clip-path="url(#p7d927e001a)" style="fill: none; stroke: #b0b0b0; stroke-width: 0.8; stroke-linecap: square"/>
     </g>
     <g id="line2d_10">
      <g>
       <use xlink:href="#m93f19bce48" x="281.278974" y="189.851766" style="stroke: #000000; stroke-width: 0.8"/>
      </g>
     </g>
     <g id="text_5">
      <!-- Ubuntu AWS Graviton c7g.16xlarge -->
      <g transform="translate(154.582012 327.451074) rotate(-45) scale(0.1 -0.1)">
       <defs>
        <path id="DejaVuSans-57" d="M 213 4666 
L 850 4666 
L 1831 722 
L 2809 4666 
L 3519 4666 
L 4500 722 
L 5478 4666 
L 6119 4666 
L 4947 0 
L 4153 0 
L 3169 4050 
L 2175 0 
L 1381 0 
L 213 4666 
z
" transform="scale(0.015625)"/>
        <path id="DejaVuSans-47" d="M 3809 666 
L 3809 1919 
L 2778 1919 
L 2778 2438 
L 4434 2438 
L 4434 434 
Q 4069 175 3628 42 
Q 3188 -91 2688 -91 
Q 1594 -91 976 548 
Q 359 1188 359 2328 
Q 359 3472 976 4111 
Q 1594 4750 2688 4750 
Q 3144 4750 3555 4637 
Q 3966 4525 4313 4306 
L 4313 3634 
Q 3963 3931 3569 4081 
Q 3175 4231 2741 4231 
Q 1884 4231 1454 3753 
Q 1025 3275 1025 2328 
Q 1025 1384 1454 906 
Q 1884 428 2741 428 
Q 3075 428 3337 486 
Q 3600 544 3809 666 
z
" transform="scale(0.015625)"/>
        <path id="DejaVuSans-76" d="M 191 3500 
L 800 3500 
L 1894 563 
L 2988 3500 
L 3597 3500 
L 2284 0 
L 1503 0 
L 191 3500 
z
" transform="scale(0.015625)"/>
        <path id="DejaVuSans-37" d="M 525 4666 
L 3525 4666 
L 3525 4397 
L 1831 0 
L 1172 0 
L 2766 4134 
L 525 4134 
L 525 4666 
z
" transform="scale(0.015625)"/>
        <path id="DejaVuSans-67" d="M 2906 1791 
Q 2906 2416 2648 2759 
Q 2391 3103 1925 3103 
Q 1463 3103 1205 2759 
Q 947 2416 947 1791 
Q 947 1169 1205 825 
Q 1463 481 1925 481 
Q 2391 481 2648 825 
Q 2906 1169 2906 1791 
z
M 3481 434 
Q 3481 -459 3084 -895 
Q 2688 -1331 1869 -1331 
Q 1566 -1331 1297 -1286 
Q 1028 -1241 775 -1147 
L 775 -588 
Q 1028 -725 1275 -790 
Q 1522 -856 1778 -856 
Q 2344 -856 2625 -561 
Q 2906 -266 2906 331 
L 2906 616 
Q 2728 306 2450 153 
Q 2172 0 1784 0 
Q 1141 0 747 490 
Q 353 981 353 1791 
Q 353 2603 747 3093 
Q 1141 3584 1784 3584 
Q 2172 3584 2450 3431 
Q 2728 3278 2906 2969 
L 2906 3500 
L 3481 3500 
L 3481 434 
z
" transform="scale(0.015625)"/>
        <path id="DejaVuSans-2e" d="M 684 794 
L 1344 794 
L 1344 0 
L 684 0 
L 684 794 
z
" transform="scale(0.015625)"/>
        <path id="DejaVuSans-31" d="M 794 531 
L 1825 531 
L 1825 4091 
L 703 3866 
L 703 4441 
L 1819 4666 
L 2450 4666 
L 2450 531 
L 3481 531 
L 3481 0 
L 794 0 
L 794 531 
z
" transform="scale(0.015625)"/>
        <path id="DejaVuSans-36" d="M 2113 2584 
Q 1688 2584 1439 2293 
Q 1191 2003 1191 1497 
Q 1191 994 1439 701 
Q 1688 409 2113 409 
Q 2538 409 2786 701 
Q 3034 994 3034 1497 
Q 3034 2003 2786 2293 
Q 2538 2584 2113 2584 
z
M 3366 4563 
L 3366 3988 
Q 3128 4100 2886 4159 
Q 2644 4219 2406 4219 
Q 1781 4219 1451 3797 
Q 1122 3375 1075 2522 
Q 1259 2794 1537 2939 
Q 1816 3084 2150 3084 
Q 2853 3084 3261 2657 
Q 3669 2231 3669 1497 
Q 3669 778 3244 343 
Q 2819 -91 2113 -91 
Q 1303 -91 875 529 
Q 447 1150 447 2328 
Q 447 3434 972 4092 
Q 1497 4750 2381 4750 
Q 2619 4750 2861 4703 
Q 3103 4656 3366 4563 
z
" transform="scale(0.015625)"/>
       </defs>
       <use xlink:href="#DejaVuSans-55"/>
       <use xlink:href="#DejaVuSans-62" transform="translate(73.193359 0)"/>
       <use xlink:href="#DejaVuSans-75" transform="translate(136.669922 0)"/>
       <use xlink:href="#DejaVuSans-6e" transform="translate(200.048828 0)"/>
       <use xlink:href="#DejaVuSans-74" transform="translate(263.427734 0)"/>
       <use xlink:href="#DejaVuSans-75" transform="translate(302.636719 0)"/>
       <use xlink:href="#DejaVuSans-20" transform="translate(366.015625 0)"/>
       <use xlink:href="#DejaVuSans-41" transform="translate(397.802734 0)"/>
       <use xlink:href="#DejaVuSans-57" transform="translate(460.710938 0)"/>
       <use xlink:href="#DejaVuSans-53" transform="translate(559.587891 0)"/>
       <use xlink:href="#DejaVuSans-20" transform="translate(623.064453 0)"/>
       <use xlink:href="#DejaVuSans-47" transform="translate(654.851562 0)"/>
       <use xlink:href="#DejaVuSans-72" transform="translate(732.341797 0)"/>
       <use xlink:href="#DejaVuSans-61" transform="translate(773.455078 0)"/>
       <use xlink:href="#DejaVuSans-76" transform="translate(834.734375 0)"/>
       <use xlink:href="#DejaVuSans-69" transform="translate(893.914062 0)"/>
       <use xlink:href="#DejaVuSans-74" transform="translate(921.697266 0)"/>
       <use xlink:href="#DejaVuSans-6f" transform="translate(960.90625 0)"/>
       <use xlink:href="#DejaVuSans-6e" transform="translate(1022.087891 0)"/>
       <use xlink:href="#DejaVuSans-20" transform="translate(1085.466797 0)"/>
       <use xlink:href="#DejaVuSans-63" transform="translate(1117.253906 0)"/>
       <use xlink:href="#DejaVuSans-37" transform="translate(1172.234375 0)"/>
       <use xlink:href="#DejaVuSans-67" transform="translate(1235.857422 0)"/>
       <use xlink:href="#DejaVuSans-2e" transform="translate(1299.333984 0)"/>
       <use xlink:href="#DejaVuSans-31" transform="translate(1331.121094 0)"/>
       <use xlink:href="#DejaVuSans-36" transform="translate(1394.744141 0)"/>
       <use xlink:href="#DejaVuSans-78" transform="translate(1458.367188 0)"/>
       <use xlink:href="#DejaVuSans-6c" transform="translate(1517.546875 0)"/>
       <use xlink:href="#DejaVuSans-61" transform="translate(1545.330078 0)"/>
       <use xlink:href="#DejaVuSans-72" transform="translate(1606.609375 0)"/>
       <use xlink:href="#DejaVuSans-67" transform="translate(1645.972656 0)"/>
       <use xlink:href="#DejaVuSans-65" transform="translate(1709.449219 0)"/>
      </g>
     </g>
    </g>
    <g id="xtick_6">
     <g id="line2d_11">
      <path d="M 331.713484 189.851766 
L 331.713484 3.00024 
" clip-path="url(#p7d927e001a)" style="fill: none; stroke: #b0b0b0; stroke-width: 0.8; stroke-linecap: square"/>
     </g>
     <g id="line2d_12">
      <g>
       <use xlink:href="#m93f19bce48" x="331.713484" y="189.851766" style="stroke: #000000; stroke-width: 0.8"/>
      </g>
     </g>
     <g id="text_6">
      <!-- Ubuntu Intel i7-12700H -->
      <g transform="translate(247.386581 285.081015) rotate(-45) scale(0.1 -0.1)">
       <defs>
        <path id="DejaVuSans-49" d="M 628 4666 
L 1259 4666 
L 1259 0 
L 628 0 
L 628 4666 
z
" transform="scale(0.015625)"/>
        <path id="DejaVuSans-2d" d="M 313 2009 
L 1997 2009 
L 1997 1497 
L 313 1497 
L 313 2009 
z
" transform="scale(0.015625)"/>
        <path id="DejaVuSans-30" d="M 2034 4250 
Q 1547 4250 1301 3770 
Q 1056 3291 1056 2328 
Q 1056 1369 1301 889 
Q 1547 409 2034 409 
Q 2525 409 2770 889 
Q 3016 1369 3016 2328 
Q 3016 3291 2770 3770 
Q 2525 4250 2034 4250 
z
M 2034 4750 
Q 2819 4750 3233 4129 
Q 3647 3509 3647 2328 
Q 3647 1150 3233 529 
Q 2819 -91 2034 -91 
Q 1250 -91 836 529 
Q 422 1150 422 2328 
Q 422 3509 836 4129 
Q 1250 4750 2034 4750 
z
" transform="scale(0.015625)"/>
        <path id="DejaVuSans-48" d="M 628 4666 
L 1259 4666 
L 1259 2753 
L 3553 2753 
L 3553 4666 
L 4184 4666 
L 4184 0 
L 3553 0 
L 3553 2222 
L 1259 2222 
L 1259 0 
L 628 0 
L 628 4666 
z
" transform="scale(0.015625)"/>
       </defs>
       <use xlink:href="#DejaVuSans-55"/>
       <use xlink:href="#DejaVuSans-62" transform="translate(73.193359 0)"/>
       <use xlink:href="#DejaVuSans-75" transform="translate(136.669922 0)"/>
       <use xlink:href="#DejaVuSans-6e" transform="translate(200.048828 0)"/>
       <use xlink:href="#DejaVuSans-74" transform="translate(263.427734 0)"/>
       <use xlink:href="#DejaVuSans-75" transform="translate(302.636719 0)"/>
       <use xlink:href="#DejaVuSans-20" transform="translate(366.015625 0)"/>
       <use xlink:href="#DejaVuSans-49" transform="translate(397.802734 0)"/>
       <use xlink:href="#DejaVuSans-6e" transform="translate(427.294922 0)"/>
       <use xlink:href="#DejaVuSans-74" transform="translate(490.673828 0)"/>
       <use xlink:href="#DejaVuSans-65" transform="translate(529.882812 0)"/>
       <use xlink:href="#DejaVuSans-6c" transform="translate(591.40625 0)"/>
       <use xlink:href="#DejaVuSans-20" transform="translate(619.189453 0)"/>
       <use xlink:href="#DejaVuSans-69" transform="translate(650.976562 0)"/>
       <use xlink:href="#DejaVuSans-37" transform="translate(678.759766 0)"/>
       <use xlink:href="#DejaVuSans-2d" transform="translate(742.382812 0)"/>
       <use xlink:href="#DejaVuSans-31" transform="translate(778.466797 0)"/>
       <use xlink:href="#DejaVuSans-32" transform="translate(842.089844 0)"/>
       <use xlink:href="#DejaVuSans-37" transform="translate(905.712891 0)"/>
       <use xlink:href="#DejaVuSans-30" transform="translate(969.335938 0)"/>
       <use xlink:href="#DejaVuSans-30" transform="translate(1032.958984 0)"/>
       <use xlink:href="#DejaVuSans-48" transform="translate(1096.582031 0)"/>
      </g>
     </g>
    </g>
    <g id="xtick_7">
     <g id="line2d_13">
      <path d="M 382.147995 189.851766 
L 382.147995 3.00024 
" clip-path="url(#p7d927e001a)" style="fill: none; stroke: #b0b0b0; stroke-width: 0.8; stroke-linecap: square"/>
     </g>
     <g id="line2d_14">
      <g>
       <use xlink:href="#m93f19bce48" x="382.147995" y="189.851766" style="stroke: #000000; stroke-width: 0.8"/>
      </g>
     </g>
     <g id="text_7">
      <!-- Ubuntu AMD EPYC 9654 -->
      <g transform="translate(296.23673 286.665376) rotate(-45) scale(0.1 -0.1)">
       <defs>
        <path id="DejaVuSans-45" d="M 628 4666 
L 3578 4666 
L 3578 4134 
L 1259 4134 
L 1259 2753 
L 3481 2753 
L 3481 2222 
L 1259 2222 
L 1259 531 
L 3634 531 
L 3634 0 
L 628 0 
L 628 4666 
z
" transform="scale(0.015625)"/>
        <path id="DejaVuSans-59" d="M -13 4666 
L 666 4666 
L 1959 2747 
L 3244 4666 
L 3922 4666 
L 2272 2222 
L 2272 0 
L 1638 0 
L 1638 2222 
L -13 4666 
z
" transform="scale(0.015625)"/>
        <path id="DejaVuSans-43" d="M 4122 4306 
L 4122 3641 
Q 3803 3938 3442 4084 
Q 3081 4231 2675 4231 
Q 1875 4231 1450 3742 
Q 1025 3253 1025 2328 
Q 1025 1406 1450 917 
Q 1875 428 2675 428 
Q 3081 428 3442 575 
Q 3803 722 4122 1019 
L 4122 359 
Q 3791 134 3420 21 
Q 3050 -91 2638 -91 
Q 1578 -91 968 557 
Q 359 1206 359 2328 
Q 359 3453 968 4101 
Q 1578 4750 2638 4750 
Q 3056 4750 3426 4639 
Q 3797 4528 4122 4306 
z
" transform="scale(0.015625)"/>
        <path id="DejaVuSans-39" d="M 703 97 
L 703 672 
Q 941 559 1184 500 
Q 1428 441 1663 441 
Q 2288 441 2617 861 
Q 2947 1281 2994 2138 
Q 2813 1869 2534 1725 
Q 2256 1581 1919 1581 
Q 1219 1581 811 2004 
Q 403 2428 403 3163 
Q 403 3881 828 4315 
Q 1253 4750 1959 4750 
Q 2769 4750 3195 4129 
Q 3622 3509 3622 2328 
Q 3622 1225 3098 567 
Q 2575 -91 1691 -91 
Q 1453 -91 1209 -44 
Q 966 3 703 97 
z
M 1959 2075 
Q 2384 2075 2632 2365 
Q 2881 2656 2881 3163 
Q 2881 3666 2632 3958 
Q 2384 4250 1959 4250 
Q 1534 4250 1286 3958 
Q 1038 3666 1038 3163 
Q 1038 2656 1286 2365 
Q 1534 2075 1959 2075 
z
" transform="scale(0.015625)"/>
        <path id="DejaVuSans-34" d="M 2419 4116 
L 825 1625 
L 2419 1625 
L 2419 4116 
z
M 2253 4666 
L 3047 4666 
L 3047 1625 
L 3713 1625 
L 3713 1100 
L 3047 1100 
L 3047 0 
L 2419 0 
L 2419 1100 
L 313 1100 
L 313 1709 
L 2253 4666 
z
" transform="scale(0.015625)"/>
       </defs>
       <use xlink:href="#DejaVuSans-55"/>
       <use xlink:href="#DejaVuSans-62" transform="translate(73.193359 0)"/>
       <use xlink:href="#DejaVuSans-75" transform="translate(136.669922 0)"/>
       <use xlink:href="#DejaVuSans-6e" transform="translate(200.048828 0)"/>
       <use xlink:href="#DejaVuSans-74" transform="translate(263.427734 0)"/>
       <use xlink:href="#DejaVuSans-75" transform="translate(302.636719 0)"/>
       <use xlink:href="#DejaVuSans-20" transform="translate(366.015625 0)"/>
       <use xlink:href="#DejaVuSans-41" transform="translate(397.802734 0)"/>
       <use xlink:href="#DejaVuSans-4d" transform="translate(466.210938 0)"/>
       <use xlink:href="#DejaVuSans-44" transform="translate(552.490234 0)"/>
       <use xlink:href="#DejaVuSans-20" transform="translate(629.492188 0)"/>
       <use xlink:href="#DejaVuSans-45" transform="translate(661.279297 0)"/>
       <use xlink:href="#DejaVuSans-50" transform="translate(724.462891 0)"/>
       <use xlink:href="#DejaVuSans-59" transform="translate(782.515625 0)"/>
       <use xlink:href="#DejaVuSans-43" transform="translate(838.099609 0)"/>
       <use xlink:href="#DejaVuSans-20" transform="translate(907.923828 0)"/>
       <use xlink:href="#DejaVuSans-39" transform="translate(939.710938 0)"/>
       <use xlink:href="#DejaVuSans-36" transform="translate(1003.333984 0)"/>
       <use xlink:href="#DejaVuSans-35" transform="translate(1066.957031 0)"/>
       <use xlink:href="#DejaVuSans-34" transform="translate(1130.580078 0)"/>
      </g>
     </g>
    </g>
    <g id="xtick_8">
     <g id="line2d_15">
      <path d="M 432.582505 189.851766 
L 432.582505 3.00024 
" clip-path="url(#p7d927e001a)" style="fill: none; stroke: #b0b0b0; stroke-width: 0.8; stroke-linecap: square"/>
     </g>
     <g id="line2d_16">
      <g>
       <use xlink:href="#m93f19bce48" x="432.582505" y="189.851766" style="stroke: #000000; stroke-width: 0.8"/>
      </g>
     </g>
     <g id="text_8">
      <!-- Ubuntu Intel Xeon Platinum 8480 -->
      <g transform="translate(313.759839 319.576777) rotate(-45) scale(0.1 -0.1)">
       <defs>
        <path id="DejaVuSans-58" d="M 403 4666 
L 1081 4666 
L 2241 2931 
L 3406 4666 
L 4084 4666 
L 2584 2425 
L 4184 0 
L 3506 0 
L 2194 1984 
L 872 0 
L 191 0 
L 1856 2491 
L 403 4666 
z
" transform="scale(0.015625)"/>
        <path id="DejaVuSans-38" d="M 2034 2216 
Q 1584 2216 1326 1975 
Q 1069 1734 1069 1313 
Q 1069 891 1326 650 
Q 1584 409 2034 409 
Q 2484 409 2743 651 
Q 3003 894 3003 1313 
Q 3003 1734 2745 1975 
Q 2488 2216 2034 2216 
z
M 1403 2484 
Q 997 2584 770 2862 
Q 544 3141 544 3541 
Q 544 4100 942 4425 
Q 1341 4750 2034 4750 
Q 2731 4750 3128 4425 
Q 3525 4100 3525 3541 
Q 3525 3141 3298 2862 
Q 3072 2584 2669 2484 
Q 3125 2378 3379 2068 
Q 3634 1759 3634 1313 
Q 3634 634 3220 271 
Q 2806 -91 2034 -91 
Q 1263 -91 848 271 
Q 434 634 434 1313 
Q 434 1759 690 2068 
Q 947 2378 1403 2484 
z
M 1172 3481 
Q 1172 3119 1398 2916 
Q 1625 2713 2034 2713 
Q 2441 2713 2670 2916 
Q 2900 3119 2900 3481 
Q 2900 3844 2670 4047 
Q 2441 4250 2034 4250 
Q 1625 4250 1398 4047 
Q 1172 3844 1172 3481 
z
" transform="scale(0.015625)"/>
       </defs>
       <use xlink:href="#DejaVuSans-55"/>
       <use xlink:href="#DejaVuSans-62" transform="translate(73.193359 0)"/>
       <use xlink:href="#DejaVuSans-75" transform="translate(136.669922 0)"/>
       <use xlink:href="#DejaVuSans-6e" transform="translate(200.048828 0)"/>
       <use xlink:href="#DejaVuSans-74" transform="translate(263.427734 0)"/>
       <use xlink:href="#DejaVuSans-75" transform="translate(302.636719 0)"/>
       <use xlink:href="#DejaVuSans-20" transform="translate(366.015625 0)"/>
       <use xlink:href="#DejaVuSans-49" transform="translate(397.802734 0)"/>
       <use xlink:href="#DejaVuSans-6e" transform="translate(427.294922 0)"/>
       <use xlink:href="#DejaVuSans-74" transform="translate(490.673828 0)"/>
       <use xlink:href="#DejaVuSans-65" transform="translate(529.882812 0)"/>
       <use xlink:href="#DejaVuSans-6c" transform="translate(591.40625 0)"/>
       <use xlink:href="#DejaVuSans-20" transform="translate(619.189453 0)"/>
       <use xlink:href="#DejaVuSans-58" transform="translate(650.976562 0)"/>
       <use xlink:href="#DejaVuSans-65" transform="translate(714.982422 0)"/>
       <use xlink:href="#DejaVuSans-6f" transform="translate(776.505859 0)"/>
       <use xlink:href="#DejaVuSans-6e" transform="translate(837.6875 0)"/>
       <use xlink:href="#DejaVuSans-20" transform="translate(901.066406 0)"/>
       <use xlink:href="#DejaVuSans-50" transform="translate(932.853516 0)"/>
       <use xlink:href="#DejaVuSans-6c" transform="translate(993.15625 0)"/>
       <use xlink:href="#DejaVuSans-61" transform="translate(1020.939453 0)"/>
       <use xlink:href="#DejaVuSans-74" transform="translate(1082.21875 0)"/>
       <use xlink:href="#DejaVuSans-69" transform="translate(1121.427734 0)"/>
       <use xlink:href="#DejaVuSans-6e" transform="translate(1149.210938 0)"/>
       <use xlink:href="#DejaVuSans-75" transform="translate(1212.589844 0)"/>
       <use xlink:href="#DejaVuSans-6d" transform="translate(1275.96875 0)"/>
       <use xlink:href="#DejaVuSans-20" transform="translate(1373.380859 0)"/>
       <use xlink:href="#DejaVuSans-38" transform="translate(1405.167969 0)"/>
       <use xlink:href="#DejaVuSans-34" transform="translate(1468.791016 0)"/>
       <use xlink:href="#DejaVuSans-38" transform="translate(1532.414062 0)"/>
       <use xlink:href="#DejaVuSans-30" transform="translate(1596.037109 0)"/>
      </g>
     </g>
    </g>
    <g id="text_9">
     <!-- System configurations -->
     <g transform="translate(200.05625 340.520072) scale(0.1 -0.1)">
      <defs>
       <path id="DejaVuSans-79" d="M 2059 -325 
Q 1816 -950 1584 -1140 
Q 1353 -1331 966 -1331 
L 506 -1331 
L 506 -850 
L 844 -850 
Q 1081 -850 1212 -737 
Q 1344 -625 1503 -206 
L 1606 56 
L 191 3500 
L 800 3500 
L 1894 763 
L 2988 3500 
L 3597 3500 
L 2059 -325 
z
" transform="scale(0.015625)"/>
       <path id="DejaVuSans-73" d="M 2834 3397 
L 2834 2853 
Q 2591 2978 2328 3040 
Q 2066 3103 1784 3103 
Q 1356 3103 1142 2972 
Q 928 2841 928 2578 
Q 928 2378 1081 2264 
Q 1234 2150 1697 2047 
L 1894 2003 
Q 2506 1872 2764 1633 
Q 3022 1394 3022 966 
Q 3022 478 2636 193 
Q 2250 -91 1575 -91 
Q 1294 -91 989 -36 
Q 684 19 347 128 
L 347 722 
Q 666 556 975 473 
Q 1284 391 1588 391 
Q 1994 391 2212 530 
Q 2431 669 2431 922 
Q 2431 1156 2273 1281 
Q 2116 1406 1581 1522 
L 1381 1569 
Q 847 1681 609 1914 
Q 372 2147 372 2553 
Q 372 3047 722 3315 
Q 1072 3584 1716 3584 
Q 2034 3584 2315 3537 
Q 2597 3491 2834 3397 
z
" transform="scale(0.015625)"/>
       <path id="DejaVuSans-66" d="M 2375 4863 
L 2375 4384 
L 1825 4384 
Q 1516 4384 1395 4259 
Q 1275 4134 1275 3809 
L 1275 3500 
L 2222 3500 
L 2222 3053 
L 1275 3053 
L 1275 0 
L 697 0 
L 697 3053 
L 147 3053 
L 147 3500 
L 697 3500 
L 697 3744 
Q 697 4328 969 4595 
Q 1241 4863 1831 4863 
L 2375 4863 
z
" transform="scale(0.015625)"/>
      </defs>
      <use xlink:href="#DejaVuSans-53"/>
      <use xlink:href="#DejaVuSans-79" transform="translate(63.476562 0)"/>
      <use xlink:href="#DejaVuSans-73" transform="translate(122.65625 0)"/>
      <use xlink:href="#DejaVuSans-74" transform="translate(174.755859 0)"/>
      <use xlink:href="#DejaVuSans-65" transform="translate(213.964844 0)"/>
      <use xlink:href="#DejaVuSans-6d" transform="translate(275.488281 0)"/>
      <use xlink:href="#DejaVuSans-20" transform="translate(372.900391 0)"/>
      <use xlink:href="#DejaVuSans-63" transform="translate(404.6875 0)"/>
      <use xlink:href="#DejaVuSans-6f" transform="translate(459.667969 0)"/>
      <use xlink:href="#DejaVuSans-6e" transform="translate(520.849609 0)"/>
      <use xlink:href="#DejaVuSans-66" transform="translate(584.228516 0)"/>
      <use xlink:href="#DejaVuSans-69" transform="translate(619.433594 0)"/>
      <use xlink:href="#DejaVuSans-67" transform="translate(647.216797 0)"/>
      <use xlink:href="#DejaVuSans-75" transform="translate(710.693359 0)"/>
      <use xlink:href="#DejaVuSans-72" transform="translate(774.072266 0)"/>
      <use xlink:href="#DejaVuSans-61" transform="translate(815.185547 0)"/>
      <use xlink:href="#DejaVuSans-74" transform="translate(876.464844 0)"/>
      <use xlink:href="#DejaVuSans-69" transform="translate(915.673828 0)"/>
      <use xlink:href="#DejaVuSans-6f" transform="translate(943.457031 0)"/>
      <use xlink:href="#DejaVuSans-6e" transform="translate(1004.638672 0)"/>
      <use xlink:href="#DejaVuSans-73" transform="translate(1068.017578 0)"/>
     </g>
    </g>
   </g>
   <g id="matplotlib.axis_2">
    <g id="ytick_1">
     <g id="line2d_17">
      <path d="M 54.323678 174.799724 
L 457.79976 174.799724 
" clip-path="url(#p7d927e001a)" style="fill: none; stroke: #b0b0b0; stroke-width: 0.8; stroke-linecap: square"/>
     </g>
     <g id="line2d_18">
      <defs>
       <path id="m03288d584c" d="M 0 0 
L -3.5 0 
" style="stroke: #000000; stroke-width: 0.8"/>
      </defs>
      <g>
       <use xlink:href="#m03288d584c" x="54.323678" y="174.799724" style="stroke: #000000; stroke-width: 0.8"/>
      </g>
     </g>
     <g id="text_10">
      <!-- 0.93× -->
      <g transform="translate(16.678365 178.598943) scale(0.1 -0.1)">
       <defs>
        <path id="DejaVuSans-d7" d="M 4488 3438 
L 3059 2003 
L 4488 575 
L 4116 197 
L 2681 1631 
L 1247 197 
L 878 575 
L 2303 2003 
L 878 3438 
L 1247 3816 
L 2681 2381 
L 4116 3816 
L 4488 3438 
z
" transform="scale(0.015625)"/>
       </defs>
       <use xlink:href="#DejaVuSans-30"/>
       <use xlink:href="#DejaVuSans-2e" transform="translate(63.623047 0)"/>
       <use xlink:href="#DejaVuSans-39" transform="translate(95.410156 0)"/>
       <use xlink:href="#DejaVuSans-33" transform="translate(159.033203 0)"/>
       <use xlink:href="#DejaVuSans-d7" transform="translate(222.65625 0)"/>
      </g>
     </g>
    </g>
    <g id="ytick_2">
     <g id="line2d_19">
      <path d="M 54.323678 149.08066 
L 457.79976 149.08066 
" clip-path="url(#p7d927e001a)" style="fill: none; stroke: #b0b0b0; stroke-width: 0.8; stroke-linecap: square"/>
     </g>
     <g id="line2d_20">
      <g>
       <use xlink:href="#m03288d584c" x="54.323678" y="149.08066" style="stroke: #000000; stroke-width: 0.8"/>
      </g>
     </g>
     <g id="text_11">
      <!-- 0.95× -->
      <g transform="translate(16.678365 152.879879) scale(0.1 -0.1)">
       <use xlink:href="#DejaVuSans-30"/>
       <use xlink:href="#DejaVuSans-2e" transform="translate(63.623047 0)"/>
       <use xlink:href="#DejaVuSans-39" transform="translate(95.410156 0)"/>
       <use xlink:href="#DejaVuSans-35" transform="translate(159.033203 0)"/>
       <use xlink:href="#DejaVuSans-d7" transform="translate(222.65625 0)"/>
      </g>
     </g>
    </g>
    <g id="ytick_3">
     <g id="line2d_21">
      <path d="M 54.323678 123.361596 
L 457.79976 123.361596 
" clip-path="url(#p7d927e001a)" style="fill: none; stroke: #b0b0b0; stroke-width: 0.8; stroke-linecap: square"/>
     </g>
     <g id="line2d_22">
      <g>
       <use xlink:href="#m03288d584c" x="54.323678" y="123.361596" style="stroke: #000000; stroke-width: 0.8"/>
      </g>
     </g>
     <g id="text_12">
      <!-- 0.98× -->
      <g transform="translate(16.678365 127.160815) scale(0.1 -0.1)">
       <use xlink:href="#DejaVuSans-30"/>
       <use xlink:href="#DejaVuSans-2e" transform="translate(63.623047 0)"/>
       <use xlink:href="#DejaVuSans-39" transform="translate(95.410156 0)"/>
       <use xlink:href="#DejaVuSans-38" transform="translate(159.033203 0)"/>
       <use xlink:href="#DejaVuSans-d7" transform="translate(222.65625 0)"/>
      </g>
     </g>
    </g>
    <g id="ytick_4">
     <g id="line2d_23">
      <path d="M 54.323678 97.642532 
L 457.79976 97.642532 
" clip-path="url(#p7d927e001a)" style="fill: none; stroke: #b0b0b0; stroke-width: 0.8; stroke-linecap: square"/>
     </g>
     <g id="line2d_24">
      <g>
       <use xlink:href="#m03288d584c" x="54.323678" y="97.642532" style="stroke: #000000; stroke-width: 0.8"/>
      </g>
     </g>
     <g id="text_13">
      <!-- 1.00× -->
      <g transform="translate(16.678365 101.44175) scale(0.1 -0.1)">
       <use xlink:href="#DejaVuSans-31"/>
       <use xlink:href="#DejaVuSans-2e" transform="translate(63.623047 0)"/>
       <use xlink:href="#DejaVuSans-30" transform="translate(95.410156 0)"/>
       <use xlink:href="#DejaVuSans-30" transform="translate(159.033203 0)"/>
       <use xlink:href="#DejaVuSans-d7" transform="translate(222.65625 0)"/>
      </g>
     </g>
    </g>
    <g id="ytick_5">
     <g id="line2d_25">
      <path d="M 54.323678 71.923468 
L 457.79976 71.923468 
" clip-path="url(#p7d927e001a)" style="fill: none; stroke: #b0b0b0; stroke-width: 0.8; stroke-linecap: square"/>
     </g>
     <g id="line2d_26">
      <g>
       <use xlink:href="#m03288d584c" x="54.323678" y="71.923468" style="stroke: #000000; stroke-width: 0.8"/>
      </g>
     </g>
     <g id="text_14">
      <!-- 1.02× -->
      <g transform="translate(16.678365 75.722686) scale(0.1 -0.1)">
       <use xlink:href="#DejaVuSans-31"/>
       <use xlink:href="#DejaVuSans-2e" transform="translate(63.623047 0)"/>
       <use xlink:href="#DejaVuSans-30" transform="translate(95.410156 0)"/>
       <use xlink:href="#DejaVuSans-32" transform="translate(159.033203 0)"/>
       <use xlink:href="#DejaVuSans-d7" transform="translate(222.65625 0)"/>
      </g>
     </g>
    </g>
    <g id="ytick_6">
     <g id="line2d_27">
      <path d="M 54.323678 46.204403 
L 457.79976 46.204403 
" clip-path="url(#p7d927e001a)" style="fill: none; stroke: #b0b0b0; stroke-width: 0.8; stroke-linecap: square"/>
     </g>
     <g id="line2d_28">
      <g>
       <use xlink:href="#m03288d584c" x="54.323678" y="46.204403" style="stroke: #000000; stroke-width: 0.8"/>
      </g>
     </g>
     <g id="text_15">
      <!-- 1.05× -->
      <g transform="translate(16.678365 50.003622) scale(0.1 -0.1)">
       <use xlink:href="#DejaVuSans-31"/>
       <use xlink:href="#DejaVuSans-2e" transform="translate(63.623047 0)"/>
       <use xlink:href="#DejaVuSans-30" transform="translate(95.410156 0)"/>
       <use xlink:href="#DejaVuSans-35" transform="translate(159.033203 0)"/>
       <use xlink:href="#DejaVuSans-d7" transform="translate(222.65625 0)"/>
      </g>
     </g>
    </g>
    <g id="ytick_7">
     <g id="line2d_29">
      <path d="M 54.323678 20.485339 
L 457.79976 20.485339 
" clip-path="url(#p7d927e001a)" style="fill: none; stroke: #b0b0b0; stroke-width: 0.8; stroke-linecap: square"/>
     </g>
     <g id="line2d_30">
      <g>
       <use xlink:href="#m03288d584c" x="54.323678" y="20.485339" style="stroke: #000000; stroke-width: 0.8"/>
      </g>
     </g>
     <g id="text_16">
      <!-- 1.07× -->
      <g transform="translate(16.678365 24.284558) scale(0.1 -0.1)">
       <use xlink:href="#DejaVuSans-31"/>
       <use xlink:href="#DejaVuSans-2e" transform="translate(63.623047 0)"/>
       <use xlink:href="#DejaVuSans-30" transform="translate(95.410156 0)"/>
       <use xlink:href="#DejaVuSans-37" transform="translate(159.033203 0)"/>
       <use xlink:href="#DejaVuSans-d7" transform="translate(222.65625 0)"/>
      </g>
     </g>
    </g>
    <g id="text_17">
     <!-- Effect on pyperformance -->
     <g transform="translate(10.598677 158.454128) rotate(-90) scale(0.1 -0.1)">
      <use xlink:href="#DejaVuSans-45"/>
      <use xlink:href="#DejaVuSans-66" transform="translate(63.183594 0)"/>
      <use xlink:href="#DejaVuSans-66" transform="translate(98.388672 0)"/>
      <use xlink:href="#DejaVuSans-65" transform="translate(133.59375 0)"/>
      <use xlink:href="#DejaVuSans-63" transform="translate(195.117188 0)"/>
      <use xlink:href="#DejaVuSans-74" transform="translate(250.097656 0)"/>
      <use xlink:href="#DejaVuSans-20" transform="translate(289.306641 0)"/>
      <use xlink:href="#DejaVuSans-6f" transform="translate(321.09375 0)"/>
      <use xlink:href="#DejaVuSans-6e" transform="translate(382.275391 0)"/>
      <use xlink:href="#DejaVuSans-20" transform="translate(445.654297 0)"/>
      <use xlink:href="#DejaVuSans-70" transform="translate(477.441406 0)"/>
      <use xlink:href="#DejaVuSans-79" transform="translate(540.917969 0)"/>
      <use xlink:href="#DejaVuSans-70" transform="translate(600.097656 0)"/>
      <use xlink:href="#DejaVuSans-65" transform="translate(663.574219 0)"/>
      <use xlink:href="#DejaVuSans-72" transform="translate(725.097656 0)"/>
      <use xlink:href="#DejaVuSans-66" transform="translate(766.210938 0)"/>
      <use xlink:href="#DejaVuSans-6f" transform="translate(801.416016 0)"/>
      <use xlink:href="#DejaVuSans-72" transform="translate(862.597656 0)"/>
      <use xlink:href="#DejaVuSans-6d" transform="translate(901.960938 0)"/>
      <use xlink:href="#DejaVuSans-61" transform="translate(999.373047 0)"/>
      <use xlink:href="#DejaVuSans-6e" transform="translate(1060.652344 0)"/>
      <use xlink:href="#DejaVuSans-63" transform="translate(1124.03125 0)"/>
      <use xlink:href="#DejaVuSans-65" transform="translate(1179.011719 0)"/>
     </g>
    </g>
   </g>
   <g id="patch_3">
    <path d="M 66.932305 107.135426 
L 92.14956 107.135426 
L 92.14956 97.86644 
L 66.932305 97.86644 
L 66.932305 107.135426 
z
" clip-path="url(#p7d927e001a)" style="fill: #ffffff; stroke: #000000; stroke-linejoin: miter"/>
   </g>
   <g id="line2d_31">
    <path d="M 79.540933 107.135426 
L 79.540933 118.486278 
" clip-path="url(#p7d927e001a)" style="fill: none; stroke: #000000; stroke-linecap: square"/>
   </g>
   <g id="line2d_32">
    <path d="M 79.540933 97.86644 
L 79.540933 86.059147 
" clip-path="url(#p7d927e001a)" style="fill: none; stroke: #000000; stroke-linecap: square"/>
   </g>
   <g id="line2d_33">
    <path d="M 73.236619 118.486278 
L 85.845246 118.486278 
" clip-path="url(#p7d927e001a)" style="fill: none; stroke: #000000; stroke-linecap: square"/>
   </g>
   <g id="line2d_34">
    <path d="M 73.236619 86.059147 
L 85.845246 86.059147 
" clip-path="url(#p7d927e001a)" style="fill: none; stroke: #000000; stroke-linecap: square"/>
   </g>
   <g id="line2d_35">
    <defs>
     <path id="m99160b380e" d="M 0 3 
C 0.795609 3 1.55874 2.683901 2.12132 2.12132 
C 2.683901 1.55874 3 0.795609 3 0 
C 3 -0.795609 2.683901 -1.55874 2.12132 -2.12132 
C 1.55874 -2.683901 0.795609 -3 0 -3 
C -0.795609 -3 -1.55874 -2.683901 -2.12132 -2.12132 
C -2.683901 -1.55874 -3 -0.795609 -3 0 
C -3 0.795609 -2.683901 1.55874 -2.12132 2.12132 
C -1.55874 2.683901 -0.795609 3 0 3 
z
" style="stroke: #000000"/>
    </defs>
    <g clip-path="url(#p7d927e001a)">
     <use xlink:href="#m99160b380e" x="79.540933" y="145.306928" style="fill-opacity: 0; stroke: #000000"/>
     <use xlink:href="#m99160b380e" x="79.540933" y="131.704824" style="fill-opacity: 0; stroke: #000000"/>
     <use xlink:href="#m99160b380e" x="79.540933" y="128.849395" style="fill-opacity: 0; stroke: #000000"/>
     <use xlink:href="#m99160b380e" x="79.540933" y="127.274663" style="fill-opacity: 0; stroke: #000000"/>
     <use xlink:href="#m99160b380e" x="79.540933" y="122.997564" style="fill-opacity: 0; stroke: #000000"/>
     <use xlink:href="#m99160b380e" x="79.540933" y="75.351758" style="fill-opacity: 0; stroke: #000000"/>
     <use xlink:href="#m99160b380e" x="79.540933" y="66.548453" style="fill-opacity: 0; stroke: #000000"/>
     <use xlink:href="#m99160b380e" x="79.540933" y="46.009133" style="fill-opacity: 0; stroke: #000000"/>
    </g>
   </g>
   <g id="patch_4">
    <path d="M 117.366815 103.16787 
L 142.584071 103.16787 
L 142.584071 93.243194 
L 117.366815 93.243194 
L 117.366815 103.16787 
z
" clip-path="url(#p7d927e001a)" style="fill: #ffffff; stroke: #000000; stroke-linejoin: miter"/>
   </g>
   <g id="line2d_36">
    <path d="M 129.975443 103.16787 
L 129.975443 115.411332 
" clip-path="url(#p7d927e001a)" style="fill: none; stroke: #000000; stroke-linecap: square"/>
   </g>
   <g id="line2d_37">
    <path d="M 129.975443 93.243194 
L 129.975443 82.861128 
" clip-path="url(#p7d927e001a)" style="fill: none; stroke: #000000; stroke-linecap: square"/>
   </g>
   <g id="line2d_38">
    <path d="M 123.671129 115.411332 
L 136.279757 115.411332 
" clip-path="url(#p7d927e001a)" style="fill: none; stroke: #000000; stroke-linecap: square"/>
   </g>
   <g id="line2d_39">
    <path d="M 123.671129 82.861128 
L 136.279757 82.861128 
" clip-path="url(#p7d927e001a)" style="fill: none; stroke: #000000; stroke-linecap: square"/>
   </g>
   <g id="line2d_40">
    <g clip-path="url(#p7d927e001a)">
     <use xlink:href="#m99160b380e" x="129.975443" y="141.417598" style="fill-opacity: 0; stroke: #000000"/>
     <use xlink:href="#m99160b380e" x="129.975443" y="75.886897" style="fill-opacity: 0; stroke: #000000"/>
    </g>
   </g>
   <g id="patch_5">
    <path d="M 167.801326 107.367288 
L 193.018581 107.367288 
L 193.018581 90.082167 
L 167.801326 90.082167 
L 167.801326 107.367288 
z
" clip-path="url(#p7d927e001a)" style="fill: #ffffff; stroke: #000000; stroke-linejoin: miter"/>
   </g>
   <g id="line2d_41">
    <path d="M 180.409953 107.367288 
L 180.409953 132.011176 
" clip-path="url(#p7d927e001a)" style="fill: none; stroke: #000000; stroke-linecap: square"/>
   </g>
   <g id="line2d_42">
    <path d="M 180.409953 90.082167 
L 180.409953 70.32373 
" clip-path="url(#p7d927e001a)" style="fill: none; stroke: #000000; stroke-linecap: square"/>
   </g>
   <g id="line2d_43">
    <path d="M 174.105639 132.011176 
L 186.714267 132.011176 
" clip-path="url(#p7d927e001a)" style="fill: none; stroke: #000000; stroke-linecap: square"/>
   </g>
   <g id="line2d_44">
    <path d="M 174.105639 70.32373 
L 186.714267 70.32373 
" clip-path="url(#p7d927e001a)" style="fill: none; stroke: #000000; stroke-linecap: square"/>
   </g>
   <g id="line2d_45">
    <g clip-path="url(#p7d927e001a)">
     <use xlink:href="#m99160b380e" x="180.409953" y="56.8334" style="fill-opacity: 0; stroke: #000000"/>
    </g>
   </g>
   <g id="patch_6">
    <path d="M 218.235836 125.464584 
L 243.453091 125.464584 
L 243.453091 102.258195 
L 218.235836 102.258195 
L 218.235836 125.464584 
z
" clip-path="url(#p7d927e001a)" style="fill: #ffffff; stroke: #000000; stroke-linejoin: miter"/>
   </g>
   <g id="line2d_46">
    <path d="M 230.844464 125.464584 
L 230.844464 147.30184 
" clip-path="url(#p7d927e001a)" style="fill: none; stroke: #000000; stroke-linecap: square"/>
   </g>
   <g id="line2d_47">
    <path d="M 230.844464 102.258195 
L 230.844464 75.815591 
" clip-path="url(#p7d927e001a)" style="fill: none; stroke: #000000; stroke-linecap: square"/>
   </g>
   <g id="line2d_48">
    <path d="M 224.54015 147.30184 
L 237.148777 147.30184 
" clip-path="url(#p7d927e001a)" style="fill: none; stroke: #000000; stroke-linecap: square"/>
   </g>
   <g id="line2d_49">
    <path d="M 224.54015 75.815591 
L 237.148777 75.815591 
" clip-path="url(#p7d927e001a)" style="fill: none; stroke: #000000; stroke-linecap: square"/>
   </g>
   <g id="line2d_50">
    <g clip-path="url(#p7d927e001a)">
     <use xlink:href="#m99160b380e" x="230.844464" y="11.493491" style="fill-opacity: 0; stroke: #000000"/>
    </g>
   </g>
   <g id="patch_7">
    <path d="M 268.670346 131.555605 
L 293.887601 131.555605 
L 293.887601 109.031445 
L 268.670346 109.031445 
L 268.670346 131.555605 
z
" clip-path="url(#p7d927e001a)" style="fill: #ffffff; stroke: #000000; stroke-linejoin: miter"/>
   </g>
   <g id="line2d_51">
    <path d="M 281.278974 131.555605 
L 281.278974 164.364041 
" clip-path="url(#p7d927e001a)" style="fill: none; stroke: #000000; stroke-linecap: square"/>
   </g>
   <g id="line2d_52">
    <path d="M 281.278974 109.031445 
L 281.278974 85.008753 
" clip-path="url(#p7d927e001a)" style="fill: none; stroke: #000000; stroke-linecap: square"/>
   </g>
   <g id="line2d_53">
    <path d="M 274.97466 164.364041 
L 287.583288 164.364041 
" clip-path="url(#p7d927e001a)" style="fill: none; stroke: #000000; stroke-linecap: square"/>
   </g>
   <g id="line2d_54">
    <path d="M 274.97466 85.008753 
L 287.583288 85.008753 
" clip-path="url(#p7d927e001a)" style="fill: none; stroke: #000000; stroke-linecap: square"/>
   </g>
   <g id="line2d_55">
    <g clip-path="url(#p7d927e001a)">
     <use xlink:href="#m99160b380e" x="281.278974" y="170.044122" style="fill-opacity: 0; stroke: #000000"/>
    </g>
   </g>
   <g id="patch_8">
    <path d="M 319.104857 127.915815 
L 344.322112 127.915815 
L 344.322112 104.668772 
L 319.104857 104.668772 
L 319.104857 127.915815 
z
" clip-path="url(#p7d927e001a)" style="fill: #d3d3d3; stroke: #000000; stroke-linejoin: miter"/>
   </g>
   <g id="line2d_56">
    <path d="M 331.713484 127.915815 
L 331.713484 155.627417 
" clip-path="url(#p7d927e001a)" style="fill: none; stroke: #000000; stroke-linecap: square"/>
   </g>
   <g id="line2d_57">
    <path d="M 331.713484 104.668772 
L 331.713484 73.320782 
" clip-path="url(#p7d927e001a)" style="fill: none; stroke: #000000; stroke-linecap: square"/>
   </g>
   <g id="line2d_58">
    <path d="M 325.40917 155.627417 
L 338.017798 155.627417 
" clip-path="url(#p7d927e001a)" style="fill: none; stroke: #000000; stroke-linecap: square"/>
   </g>
   <g id="line2d_59">
    <path d="M 325.40917 73.320782 
L 338.017798 73.320782 
" clip-path="url(#p7d927e001a)" style="fill: none; stroke: #000000; stroke-linecap: square"/>
   </g>
   <g id="line2d_60">
    <g clip-path="url(#p7d927e001a)">
     <use xlink:href="#m99160b380e" x="331.713484" y="181.358515" style="fill-opacity: 0; stroke: #000000"/>
     <use xlink:href="#m99160b380e" x="331.713484" y="163.591222" style="fill-opacity: 0; stroke: #000000"/>
    </g>
   </g>
   <g id="patch_9">
    <path d="M 369.539367 130.045446 
L 394.756622 130.045446 
L 394.756622 100.757573 
L 369.539367 100.757573 
L 369.539367 130.045446 
z
" clip-path="url(#p7d927e001a)" style="fill: #d3d3d3; stroke: #000000; stroke-linejoin: miter"/>
   </g>
   <g id="line2d_61">
    <path d="M 382.147995 130.045446 
L 382.147995 167.819506 
" clip-path="url(#p7d927e001a)" style="fill: none; stroke: #000000; stroke-linecap: square"/>
   </g>
   <g id="line2d_62">
    <path d="M 382.147995 100.757573 
L 382.147995 58.453703 
" clip-path="url(#p7d927e001a)" style="fill: none; stroke: #000000; stroke-linecap: square"/>
   </g>
   <g id="line2d_63">
    <path d="M 375.843681 167.819506 
L 388.452308 167.819506 
" clip-path="url(#p7d927e001a)" style="fill: none; stroke: #000000; stroke-linecap: square"/>
   </g>
   <g id="line2d_64">
    <path d="M 375.843681 58.453703 
L 388.452308 58.453703 
" clip-path="url(#p7d927e001a)" style="fill: none; stroke: #000000; stroke-linecap: square"/>
   </g>
   <g id="line2d_65">
    <g clip-path="url(#p7d927e001a)">
     <use xlink:href="#m99160b380e" x="382.147995" y="14.341563" style="fill-opacity: 0; stroke: #000000"/>
    </g>
   </g>
   <g id="patch_10">
    <path d="M 419.973877 120.87069 
L 445.191132 120.87069 
L 445.191132 102.111552 
L 419.973877 102.111552 
L 419.973877 120.87069 
z
" clip-path="url(#p7d927e001a)" style="fill: #d3d3d3; stroke: #000000; stroke-linejoin: miter"/>
   </g>
   <g id="line2d_66">
    <path d="M 432.582505 120.87069 
L 432.582505 148.703954 
" clip-path="url(#p7d927e001a)" style="fill: none; stroke: #000000; stroke-linecap: square"/>
   </g>
   <g id="line2d_67">
    <path d="M 432.582505 102.111552 
L 432.582505 83.603283 
" clip-path="url(#p7d927e001a)" style="fill: none; stroke: #000000; stroke-linecap: square"/>
   </g>
   <g id="line2d_68">
    <path d="M 426.278191 148.703954 
L 438.886819 148.703954 
" clip-path="url(#p7d927e001a)" style="fill: none; stroke: #000000; stroke-linecap: square"/>
   </g>
   <g id="line2d_69">
    <path d="M 426.278191 83.603283 
L 438.886819 83.603283 
" clip-path="url(#p7d927e001a)" style="fill: none; stroke: #000000; stroke-linecap: square"/>
   </g>
   <g id="line2d_70">
    <g clip-path="url(#p7d927e001a)">
     <use xlink:href="#m99160b380e" x="432.582505" y="165.614485" style="fill-opacity: 0; stroke: #000000"/>
     <use xlink:href="#m99160b380e" x="432.582505" y="157.05634" style="fill-opacity: 0; stroke: #000000"/>
     <use xlink:href="#m99160b380e" x="432.582505" y="152.8475" style="fill-opacity: 0; stroke: #000000"/>
     <use xlink:href="#m99160b380e" x="432.582505" y="152.492126" style="fill-opacity: 0; stroke: #000000"/>
     <use xlink:href="#m99160b380e" x="432.582505" y="66.819711" style="fill-opacity: 0; stroke: #000000"/>
     <use xlink:href="#m99160b380e" x="432.582505" y="64.310241" style="fill-opacity: 0; stroke: #000000"/>
     <use xlink:href="#m99160b380e" x="432.582505" y="61.435953" style="fill-opacity: 0; stroke: #000000"/>
    </g>
   </g>
   <g id="line2d_71">
    <path d="M 79.540933 102.360277 
" clip-path="url(#p7d927e001a)" style="fill: none; stroke: #008000; stroke-width: 1.5; stroke-linecap: square"/>
    <defs>
     <path id="ma6e388c36f" d="M 0 2 
C 0.530406 2 1.03916 1.789267 1.414214 1.414214 
C 1.789267 1.03916 2 0.530406 2 0 
C 2 -0.530406 1.789267 -1.03916 1.414214 -1.414214 
C 1.03916 -1.789267 0.530406 -2 0 -2 
C -0.530406 -2 -1.03916 -1.789267 -1.414214 -1.414214 
C -1.789267 -1.03916 -2 -0.530406 -2 0 
C -2 0.530406 -1.789267 1.03916 -1.414214 1.414214 
C -1.03916 1.789267 -0.530406 2 0 2 
z
" style="stroke: #008000"/>
    </defs>
    <g clip-path="url(#p7d927e001a)">
     <use xlink:href="#ma6e388c36f" x="79.540933" y="102.360277" style="fill: #008000; stroke: #008000"/>
    </g>
   </g>
   <g id="line2d_72">
    <path d="M 129.975443 98.958296 
" clip-path="url(#p7d927e001a)" style="fill: none; stroke: #008000; stroke-width: 1.5; stroke-linecap: square"/>
    <g clip-path="url(#p7d927e001a)">
     <use xlink:href="#ma6e388c36f" x="129.975443" y="98.958296" style="fill: #008000; stroke: #008000"/>
    </g>
   </g>
   <g id="line2d_73">
    <path d="M 180.409953 99.574205 
" clip-path="url(#p7d927e001a)" style="fill: none; stroke: #008000; stroke-width: 1.5; stroke-linecap: square"/>
    <g clip-path="url(#p7d927e001a)">
     <use xlink:href="#ma6e388c36f" x="180.409953" y="99.574205" style="fill: #008000; stroke: #008000"/>
    </g>
   </g>
   <g id="line2d_74">
    <path d="M 230.844464 113.195995 
" clip-path="url(#p7d927e001a)" style="fill: none; stroke: #008000; stroke-width: 1.5; stroke-linecap: square"/>
    <g clip-path="url(#p7d927e001a)">
     <use xlink:href="#ma6e388c36f" x="230.844464" y="113.195995" style="fill: #008000; stroke: #008000"/>
    </g>
   </g>
   <g id="line2d_75">
    <path d="M 281.278974 120.796858 
" clip-path="url(#p7d927e001a)" style="fill: none; stroke: #008000; stroke-width: 1.5; stroke-linecap: square"/>
    <g clip-path="url(#p7d927e001a)">
     <use xlink:href="#ma6e388c36f" x="281.278974" y="120.796858" style="fill: #008000; stroke: #008000"/>
    </g>
   </g>
   <g id="line2d_76">
    <path d="M 331.713484 117.024085 
" clip-path="url(#p7d927e001a)" style="fill: none; stroke: #008000; stroke-width: 1.5; stroke-linecap: square"/>
    <g clip-path="url(#p7d927e001a)">
     <use xlink:href="#ma6e388c36f" x="331.713484" y="117.024085" style="fill: #008000; stroke: #008000"/>
    </g>
   </g>
   <g id="line2d_77">
    <path d="M 382.147995 115.418416 
" clip-path="url(#p7d927e001a)" style="fill: none; stroke: #008000; stroke-width: 1.5; stroke-linecap: square"/>
    <g clip-path="url(#p7d927e001a)">
     <use xlink:href="#ma6e388c36f" x="382.147995" y="115.418416" style="fill: #008000; stroke: #008000"/>
    </g>
   </g>
   <g id="line2d_78">
    <path d="M 432.582505 112.450848 
" clip-path="url(#p7d927e001a)" style="fill: none; stroke: #008000; stroke-width: 1.5; stroke-linecap: square"/>
    <g clip-path="url(#p7d927e001a)">
     <use xlink:href="#ma6e388c36f" x="432.582505" y="112.450848" style="fill: #008000; stroke: #008000"/>
    </g>
   </g>
   <g id="line2d_79">
    <path d="M 54.323678 97.642532 
L 457.79976 97.642532 
" clip-path="url(#p7d927e001a)" style="fill: none; stroke: #1f77b4; stroke-width: 1.5; stroke-linecap: square"/>
   </g>
   <g id="line2d_80">
    <path d="M 66.932305 101.615677 
L 92.14956 101.615677 
" clip-path="url(#p7d927e001a)" style="fill: none; stroke: #ff7f0e"/>
   </g>
   <g id="line2d_81">
    <path d="M 117.366815 97.65538 
L 142.584071 97.65538 
" clip-path="url(#p7d927e001a)" style="fill: none; stroke: #ff7f0e"/>
   </g>
   <g id="line2d_82">
    <path d="M 167.801326 101.058054 
L 193.018581 101.058054 
" clip-path="url(#p7d927e001a)" style="fill: none; stroke: #ff7f0e"/>
   </g>
   <g id="line2d_83">
    <path d="M 218.235836 114.295569 
L 243.453091 114.295569 
" clip-path="url(#p7d927e001a)" style="fill: none; stroke: #ff7f0e"/>
   </g>
   <g id="line2d_84">
    <path d="M 268.670346 117.965115 
L 293.887601 117.965115 
" clip-path="url(#p7d927e001a)" style="fill: none; stroke: #ff7f0e"/>
   </g>
   <g id="line2d_85">
    <path d="M 319.104857 115.598834 
L 344.322112 115.598834 
" clip-path="url(#p7d927e001a)" style="fill: none; stroke: #ff7f0e"/>
   </g>
   <g id="line2d_86">
    <path d="M 369.539367 116.569378 
L 394.756622 116.569378 
" clip-path="url(#p7d927e001a)" style="fill: none; stroke: #ff7f0e"/>
   </g>
   <g id="line2d_87">
    <path d="M 419.973877 110.995188 
L 445.191132 110.995188 
" clip-path="url(#p7d927e001a)" style="fill: none; stroke: #ff7f0e"/>
   </g>
   <g id="patch_11">
    <path d="M 54.323678 189.851766 
L 54.323678 3.00024 
" style="fill: none; stroke: #000000; stroke-width: 0.8; stroke-linejoin: miter; stroke-linecap: square"/>
   </g>
   <g id="patch_12">
    <path d="M 457.79976 189.851766 
L 457.79976 3.00024 
" style="fill: none; stroke: #000000; stroke-width: 0.8; stroke-linejoin: miter; stroke-linecap: square"/>
   </g>
   <g id="patch_13">
    <path d="M 54.323678 189.851766 
L 457.79976 189.851766 
" style="fill: none; stroke: #000000; stroke-width: 0.8; stroke-linejoin: miter; stroke-linecap: square"/>
   </g>
   <g id="patch_14">
    <path d="M 54.323678 3.00024 
L 457.79976 3.00024 
" style="fill: none; stroke: #000000; stroke-width: 0.8; stroke-linejoin: miter; stroke-linecap: square"/>
   </g>
   <g id="legend_1">
    <g id="patch_15">
     <path d="M 61.323678 40.35649 
L 135.726803 40.35649 
Q 137.726803 40.35649 137.726803 38.35649 
L 137.726803 10.00024 
Q 137.726803 8.00024 135.726803 8.00024 
L 61.323678 8.00024 
Q 59.323678 8.00024 59.323678 10.00024 
L 59.323678 38.35649 
Q 59.323678 40.35649 61.323678 40.35649 
z
" style="fill: #ffffff; opacity: 0.8; stroke: #cccccc; stroke-linejoin: miter"/>
    </g>
    <g id="patch_16">
     <path d="M 63.323678 19.598678 
L 83.323678 19.598678 
L 83.323678 12.598678 
L 63.323678 12.598678 
z
" style="fill: #ffffff; stroke: #000000; stroke-linejoin: miter"/>
    </g>
    <g id="text_18">
     <!-- AArch64 -->
     <g transform="translate(91.323678 19.598678) scale(0.1 -0.1)">
      <defs>
       <path id="DejaVuSans-68" d="M 3513 2113 
L 3513 0 
L 2938 0 
L 2938 2094 
Q 2938 2591 2744 2837 
Q 2550 3084 2163 3084 
Q 1697 3084 1428 2787 
Q 1159 2491 1159 1978 
L 1159 0 
L 581 0 
L 581 4863 
L 1159 4863 
L 1159 2956 
Q 1366 3272 1645 3428 
Q 1925 3584 2291 3584 
Q 2894 3584 3203 3211 
Q 3513 2838 3513 2113 
z
" transform="scale(0.015625)"/>
      </defs>
      <use xlink:href="#DejaVuSans-41"/>
      <use xlink:href="#DejaVuSans-41" transform="translate(71.158203 0)"/>
      <use xlink:href="#DejaVuSans-72" transform="translate(139.566406 0)"/>
      <use xlink:href="#DejaVuSans-63" transform="translate(178.429688 0)"/>
      <use xlink:href="#DejaVuSans-68" transform="translate(233.410156 0)"/>
      <use xlink:href="#DejaVuSans-36" transform="translate(296.789062 0)"/>
      <use xlink:href="#DejaVuSans-34" transform="translate(360.412109 0)"/>
     </g>
    </g>
    <g id="patch_17">
     <path d="M 63.323678 34.276803 
L 83.323678 34.276803 
L 83.323678 27.276803 
L 63.323678 27.276803 
z
" style="fill: #d3d3d3; stroke: #000000; stroke-linejoin: miter"/>
    </g>
    <g id="text_19">
     <!-- x86-64 -->
     <g transform="translate(91.323678 34.276803) scale(0.1 -0.1)">
      <use xlink:href="#DejaVuSans-78"/>
      <use xlink:href="#DejaVuSans-38" transform="translate(59.179688 0)"/>
      <use xlink:href="#DejaVuSans-36" transform="translate(122.802734 0)"/>
      <use xlink:href="#DejaVuSans-2d" transform="translate(186.425781 0)"/>
      <use xlink:href="#DejaVuSans-36" transform="translate(222.509766 0)"/>
      <use xlink:href="#DejaVuSans-34" transform="translate(286.132812 0)"/>
     </g>
    </g>
   </g>
  </g>
 </g>
 <defs>
  <clipPath id="p7d927e001a">
   <rect x="54.323678" y="3.00024" width="403.476082" height="186.851526"/>
  </clipPath>
 </defs>
</svg>
