<svg version="1.1" viewBox="0.0 0.0 423.71391076115486 422.73490813648294" fill="none" stroke="none" stroke-linecap="square" stroke-miterlimit="10" xmlns:xlink="http://www.w3.org/1999/xlink" xmlns="http://www.w3.org/2000/svg"><clipPath id="p.0"><path d="m0 0l423.7139 0l0 422.7349l-423.7139 0l0 -422.7349z" clip-rule="nonzero"/></clipPath><g clip-path="url(#p.0)"><path fill="#000000" fill-opacity="0.0" d="m0 0l423.7139 0l0 422.7349l-423.7139 0z" fill-rule="evenodd"/><path fill="#000000" fill-opacity="0.0" d="m208.0 240.0l128.0 -128.0" fill-rule="evenodd"/><path stroke="#3d85c6" stroke-width="2.0" stroke-linejoin="round" stroke-linecap="butt" stroke-dasharray="8.0,6.0" d="m208.0 240.0l128.0 -128.0" fill-rule="evenodd"/><path fill="#000000" fill-opacity="0.0" d="m223.05511 381.98425l42.960632 0l0 42.015747l-42.960632 0z" fill-rule="evenodd"/><path fill="#000000" d="m239.27386 407.15424q-1.734375 1.96875 -3.5625 1.96875q-1.109375 0 -1.796875 -0.640625q-0.6875 -0.640625 -0.6875 -1.578125q0 -0.609375 0.296875 -2.09375l1.171875 -5.578125l1.65625 0l-1.296875 6.1875q-0.171875 0.765625 -0.171875 1.203125q0 0.546875 0.328125 0.859375q0.34375 0.296875 0.984375 0.296875q0.703125 0 1.359375 -0.328125q0.65625 -0.34375 1.125 -0.921875q0.484375 -0.578125 0.796875 -1.359375q0.1875 -0.5 0.453125 -1.765625l0.875 -4.171875l1.65625 0l-2.03125 9.671875l-1.515625 0l0.359375 -1.75z" fill-rule="nonzero"/><path fill="#000000" d="m243.36833 405.77924q0 -1.21875 0.359375 -2.46875q0.375 -1.25 0.8125 -2.0q0.4375 -0.75 0.90625 -1.171875q0.484375 -0.421875 0.9375 -0.609375q0.46875 -0.203125 1.03125 -0.203125q1.09375 0 1.8125 0.8125q0.734375 0.8125 0.734375 2.34375q0 1.59375 -0.5 3.140625q-0.59375 1.828125 -1.671875 2.75q-0.8125 0.6875 -1.859375 0.6875q-1.078125 0 -1.828125 -0.828125q-0.734375 -0.84375 -0.734375 -2.453125zm1.140625 0.296875q0 0.875 0.296875 1.375q0.390625 0.671875 1.171875 0.671875q0.6875 0 1.25 -0.609375q0.8125 -0.875 1.21875 -2.546875q0.40625 -1.6875 0.40625 -2.765625q0 -1.015625 -0.40625 -1.46875q-0.390625 -0.46875 -1.03125 -0.46875q-0.46875 0 -0.875 0.25q-0.40625 0.234375 -0.78125 0.828125q-0.515625 0.828125 -0.90625 2.46875q-0.34375 1.40625 -0.34375 2.265625z" fill-rule="nonzero"/><path fill="#3d85c6" d="m32.0 192.0l8.0 0l0 48.0l-8.0 0z" fill-rule="evenodd"/><path fill="#ffd966" d="m40.0 192.0l8.0 0l0 48.0l-8.0 0z" fill-rule="evenodd"/><path fill="#3d85c6" d="m210.01575 384.0l48.0 0l0 8.0l-48.0 0z" fill-rule="evenodd"/><path fill="#ffd966" d="m162.01575 384.0l48.0 0l0 8.0l-48.0 0z" fill-rule="evenodd"/><path fill="#000000" fill-opacity="0.0" d="m32.0 392.0l0 -360.0" fill-rule="evenodd"/><path stroke="#595959" stroke-width="1.0" stroke-linejoin="round" stroke-linecap="butt" d="m32.0 392.0l0 -356.5729" fill-rule="evenodd"/><path fill="#595959" stroke="#595959" stroke-width="1.0" stroke-linecap="butt" d="m32.0 35.427086l1.1245842 1.1245842l-1.1245842 -3.0897675l-1.1245842 3.0897675z" fill-rule="evenodd"/><path fill="#000000" fill-opacity="0.0" d="m32.0 392.0l378.01575 0" fill-rule="evenodd"/><path stroke="#595959" stroke-width="1.0" stroke-linejoin="round" stroke-linecap="butt" d="m32.0 392.0l374.58865 0" fill-rule="evenodd"/><path fill="#595959" stroke="#595959" stroke-width="1.0" stroke-linecap="butt" d="m406.58865 392.0l-1.1245728 1.1245728l3.0897522 -1.1245728l-3.0897522 -1.1245728z" fill-rule="evenodd"/><path fill="#000000" fill-opacity="0.0" d="m104.0 344.0l104.0 -104.0" fill-rule="evenodd"/><path stroke="#3d85c6" stroke-width="2.0" stroke-linejoin="round" stroke-linecap="butt" d="m104.0 344.0l104.0 -104.0" fill-rule="evenodd"/><path fill="#000000" fill-opacity="0.0" d="m208.0 192.0l128.0 -128.0" fill-rule="evenodd"/><path stroke="#3d85c6" stroke-width="2.0" stroke-linejoin="round" stroke-linecap="butt" d="m208.0 192.0l128.0 -128.0" fill-rule="evenodd"/><path fill="#000000" fill-opacity="0.0" d="m208.0 240.0l0 -48.0" fill-rule="evenodd"/><path stroke="#3d85c6" stroke-width="2.0" stroke-linejoin="round" stroke-linecap="butt" d="m208.0 240.0l0 -48.0" fill-rule="evenodd"/><path fill="#000000" fill-opacity="0.0" d="m8.0 184.0l24.0 0l0 42.015747l-24.0 0z" fill-rule="evenodd"/><path fill="#000000" d="m21.46875 209.57625l-0.265625 1.359375q-0.59375 0.140625 -1.15625 0.140625q-0.984375 0 -1.5625 -0.46875q-0.4375 -0.375 -0.4375 -1.0q0 -0.3125 0.234375 -1.46875l1.171875 -5.625l-1.296875 0l0.265625 -1.265625l1.296875 0l0.5 -2.375l1.890625 -1.140625l-0.734375 3.515625l1.625 0l-0.28125 1.265625l-1.609375 0l-1.125 5.359375q-0.203125 1.015625 -0.203125 1.21875q0 0.28125 0.15625 0.4375q0.171875 0.15625 0.5625 0.15625q0.546875 0 0.96875 -0.109375z" fill-rule="nonzero"/><path fill="#000000" fill-opacity="0.0" d="m-8.0 82.96063l0 -58.960632l42.015747 0l0 58.960632z" fill-rule="evenodd"/><path fill="#000000" d="m18.919998 72.77313l-13.359375 0l0 -1.640625l13.359375 0l0 1.640625zm-4.84375 -3.5823212q-2.6875 0 -3.96875 -1.484375q-1.078125 -1.25 -1.078125 -3.046875q0 -2.0000038 1.3125 -3.2656288q1.296875 -1.265625 3.609375 -1.265625q1.859375 0 2.9375 0.5625q1.0625 0.5625 1.65625 1.640625q0.59375 1.0625 0.59375 2.3281288q0 2.03125 -1.296875 3.28125q-1.3125 1.25 -3.765625 1.25zm0 -1.6875q1.859375 0 2.796875 -0.796875q0.921875 -0.8125 0.921875 -2.046875q0 -1.2187538 -0.921875 -2.0312538q-0.9375 -0.8125 -2.84375 -0.8125q-1.796875 0 -2.71875 0.8125q-0.921875 0.8125 -0.921875 2.0312538q0 1.234375 0.921875 2.046875q0.90625 0.796875 2.765625 0.796875zm1.296875 -15.610096l0.21875 -1.609375q1.65625 0.265625 2.609375 1.359375q0.9375 1.078125 0.9375 2.671875q0 1.984375 -1.296875 3.1875q-1.296875 1.203125 -3.71875 1.203125q-1.578125 0 -2.75 -0.515625q-1.171875 -0.515625 -1.75 -1.578125q-0.59375 -1.0625 -0.59375 -2.3125q0 -1.578125 0.796875 -2.578125q0.796875 -1.0 2.265625 -1.28125l0.234375 1.59375q-0.96875 0.234375 -1.453125 0.8125q-0.5 0.578125 -0.5 1.390625q0 1.234375 0.890625 2.015625q0.890625 0.78125 2.8125 0.78125q1.953125 0 2.84375 -0.75q0.875 -0.75 0.875 -1.953125q0 -0.96875 -0.59375 -1.609375q-0.59375 -0.65625 -1.828125 -0.828125zm2.359375 -9.328125q0.765625 0.921875 1.09375 1.765625q0.3125 0.828125 0.3125 1.796875q0 1.59375 -0.78125 2.453125q-0.78125 0.859375 -1.984375 0.859375q-0.71875 0 -1.296875 -0.328125q-0.59375 -0.328125 -0.9375 -0.84375q-0.359375 -0.53125 -0.546875 -1.1875q-0.125 -0.46875 -0.25 -1.453125q-0.234375 -1.984375 -0.5625 -2.921875q-0.34375 -0.015625 -0.421875 -0.015625q-1.0 0 -1.421875 0.46875q-0.546875 0.625 -0.546875 1.875q0 1.15625 0.40625 1.703125q0.40625 0.546875 1.421875 0.8125l-0.21875 1.609375q-1.015625 -0.21875 -1.640625 -0.71875q-0.640625 -0.5 -0.984375 -1.453125q-0.34375 -0.953125 -0.34375 -2.1875q0 -1.25 0.296875 -2.015625q0.28125 -0.78125 0.734375 -1.140625q0.4375 -0.375 1.109375 -0.515625q0.421875 -0.078125 1.515625 -0.078125l2.1875 0q2.28125 0 2.890625 -0.109375q0.59375 -0.109375 1.15625 -0.40625l0 1.703125q-0.515625 0.265625 -1.1875 0.328125zm-3.671875 0.140625q0.375 0.890625 0.625 2.671875q0.140625 1.015625 0.328125 1.4375q0.1875 0.421875 0.53125 0.65625q0.34375 0.21875 0.78125 0.21875q0.65625 0 1.09375 -0.5q0.4375 -0.5 0.4375 -1.453125q0 -0.9375 -0.40625 -1.671875q-0.421875 -0.75 -1.140625 -1.09375q-0.5625 -0.265625 -1.640625 -0.265625l-0.609375 0zm4.859375 -4.156967l-13.359375 0l0 -1.640625l13.359375 0l0 1.640625z" fill-rule="nonzero"/><path fill="#000000" fill-opacity="0.0" d="m266.01575 189.98425l56.0 0l0 42.015747l-56.0 0z" fill-rule="evenodd"/><path fill="#000000" d="m283.21887 209.77925l5.96875 0l-1.203125 5.71875q-1.046875 0.6875 -2.59375 1.171875q-1.53125 0.46875 -3.125 0.46875q-2.484375 0 -3.796875 -1.125q-1.796875 -1.53125 -1.796875 -4.4375q0 -1.953125 0.765625 -3.734375q0.9375 -2.15625 2.640625 -3.328125q1.71875 -1.1875 4.03125 -1.1875q2.3125 0 3.703125 1.078125q1.40625 1.0625 1.859375 3.125l-2.5625 0.296875q-0.328125 -1.140625 -1.09375 -1.703125q-0.75 -0.578125 -1.875 -0.578125q-1.34375 0 -2.453125 0.703125q-1.109375 0.6875 -1.734375 2.140625q-0.625 1.4375 -0.625 3.15625q0 1.671875 0.765625 2.484375q0.765625 0.8125 2.234375 0.8125q0.890625 0 1.8125 -0.25q0.9375 -0.25 1.609375 -0.609375l0.40625 -1.984375l-3.40625 0l0.46875 -2.21875zm10.745819 0.1875l-2.546875 -0.21875q0.4375 -1.28125 1.515625 -2.015625q1.09375 -0.734375 2.890625 -0.734375q1.859375 0 2.75 0.75q0.90625 0.75 0.90625 1.84375q0 0.4375 -0.078125 0.9375q-0.078125 0.484375 -0.546875 2.578125q-0.375 1.734375 -0.375 2.421875q0 0.625 0.21875 1.375l-2.546875 0q-0.15625 -0.53125 -0.1875 -1.09375q-0.578125 0.640625 -1.328125 0.984375q-0.75 0.34375 -1.5 0.34375q-1.203125 0 -1.984375 -0.78125q-0.78125 -0.796875 -0.78125 -2.046875q0 -1.375 0.859375 -2.203125q0.859375 -0.828125 3.0625 -1.0q1.875 -0.15625 2.5 -0.375q0.171875 -0.546875 0.171875 -0.875q0 -0.421875 -0.34375 -0.703125q-0.328125 -0.28125 -1.0 -0.28125q-0.703125 0 -1.109375 0.296875q-0.40625 0.28125 -0.546875 0.796875zm2.484375 2.421875q-0.234375 0.0625 -0.625 0.125q-1.96875 0.234375 -2.578125 0.6875q-0.421875 0.328125 -0.421875 0.890625q0 0.453125 0.328125 0.765625q0.328125 0.3125 0.859375 0.3125q0.59375 0 1.109375 -0.28125q0.53125 -0.296875 0.796875 -0.734375q0.265625 -0.453125 0.453125 -1.40625l0.078125 -0.359375zm6.141327 -5.15625l2.484375 0l-0.21875 0.984375q0.796875 -0.65625 1.484375 -0.9375q0.6875 -0.28125 1.484375 -0.28125q1.53125 0 2.453125 1.046875q0.921875 1.046875 0.921875 3.125q0 2.625 -1.59375 4.421875q-1.375 1.546875 -3.234375 1.546875q-1.921875 0 -2.90625 -1.5625l-1.046875 5.015625l-2.609375 0l2.78125 -13.359375zm1.578125 5.546875q0 1.125 0.546875 1.75q0.546875 0.625 1.296875 0.625q0.65625 0 1.25 -0.46875q0.609375 -0.46875 1.0 -1.546875q0.390625 -1.09375 0.390625 -2.03125q0 -1.078125 -0.515625 -1.65625q-0.515625 -0.578125 -1.3125 -0.578125q-0.75 0 -1.375 0.53125q-0.609375 0.53125 -0.953125 1.5625q-0.328125 1.03125 -0.328125 1.8125z" fill-rule="nonzero"/><path fill="#000000" fill-opacity="0.0" d="m112.0 288.0l96.0 -96.0" fill-rule="evenodd"/><path stroke="#f1c232" stroke-width="2.0" stroke-linejoin="round" stroke-linecap="butt" stroke-dasharray="8.0,6.0" d="m112.0 288.0l96.0 -96.0" fill-rule="evenodd"/><path fill="#000000" fill-opacity="0.0" d="m32.0 208.0l208.0 0" fill-rule="evenodd"/><path stroke="#000000" stroke-width="1.0" stroke-linejoin="round" stroke-linecap="butt" stroke-dasharray="4.0,3.0" d="m32.0 208.0l208.0 0" fill-rule="evenodd"/><path fill="#000000" fill-opacity="0.0" d="m32.0 240.0l176.0 0" fill-rule="evenodd"/><path stroke="#000000" stroke-width="1.0" stroke-linejoin="round" stroke-linecap="butt" stroke-dasharray="1.0,3.0" d="m32.0 240.0l176.0 0" fill-rule="evenodd"/><path fill="#000000" fill-opacity="0.0" d="m194.01575 392.0l0 -184.0" fill-rule="evenodd"/><path stroke="#000000" stroke-width="1.0" stroke-linejoin="round" stroke-linecap="butt" stroke-dasharray="4.0,3.0" d="m194.01575 392.0l0 -184.0" fill-rule="evenodd"/><path fill="#000000" fill-opacity="0.0" d="m240.0 392.0l0 -184.0" fill-rule="evenodd"/><path stroke="#000000" stroke-width="1.0" stroke-linejoin="round" stroke-linecap="butt" stroke-dasharray="4.0,3.0" d="m240.0 392.0l0 -184.0" fill-rule="evenodd"/><path fill="#000000" fill-opacity="0.0" d="m178.01575 381.98425l40.0 0l0 42.015747l-40.0 0z" fill-rule="evenodd"/><path fill="#000000" d="m194.2345 407.15424q-1.734375 1.96875 -3.5625 1.96875q-1.109375 0 -1.796875 -0.640625q-0.6875 -0.640625 -0.6875 -1.578125q0 -0.609375 0.296875 -2.09375l1.171875 -5.578125l1.65625 0l-1.296875 6.1875q-0.171875 0.765625 -0.171875 1.203125q0 0.546875 0.328125 0.859375q0.34375 0.296875 0.984375 0.296875q0.703125 0 1.359375 -0.328125q0.65625 -0.34375 1.125 -0.921875q0.484375 -0.578125 0.796875 -1.359375q0.1875 -0.5 0.453125 -1.765625l0.875 -4.171875l1.65625 0l-2.03125 9.671875l-1.515625 0l0.359375 -1.75z" fill-rule="nonzero"/><path fill="#000000" d="m200.59459 408.90424l1.515625 -7.203125q-0.984375 0.765625 -2.75 1.234375l0.21875 -1.078125q0.890625 -0.34375 1.734375 -0.90625q0.859375 -0.578125 1.296875 -1.0q0.25 -0.25 0.484375 -0.625l0.6875 0l-2.0 9.578125l-1.1875 0z" fill-rule="nonzero"/><path fill="#000000" fill-opacity="0.0" d="m162.01575 392.0l0 -152.0" fill-rule="evenodd"/><path stroke="#000000" stroke-width="1.0" stroke-linejoin="round" stroke-linecap="butt" stroke-dasharray="1.0,3.0" d="m162.01575 392.0l0 -152.0" fill-rule="evenodd"/><path fill="#000000" fill-opacity="0.0" d="m208.0 392.0l0 -152.0" fill-rule="evenodd"/><path stroke="#000000" stroke-width="1.0" stroke-linejoin="round" stroke-linecap="butt" stroke-dasharray="1.0,3.0" d="m208.0 392.0l0 -152.0" fill-rule="evenodd"/><path fill="#000000" fill-opacity="0.0" d="m256.0 392.0l0 -200.0" fill-rule="evenodd"/><path stroke="#000000" stroke-width="1.0" stroke-linejoin="round" stroke-linecap="butt" stroke-dasharray="1.0,3.0" d="m256.0 392.0l0 -200.0" fill-rule="evenodd"/><path fill="#000000" fill-opacity="0.0" d="m32.0 192.0l224.0 0" fill-rule="evenodd"/><path stroke="#000000" stroke-width="1.0" stroke-linejoin="round" stroke-linecap="butt" stroke-dasharray="1.0,3.0" d="m32.0 192.0l224.0 0" fill-rule="evenodd"/></g></svg>